<?xml version="1.0" encoding="UTF-8" standalone="no"?>
<!-- Created with Inkscape (http://www.inkscape.org/) -->

<svg
   xmlns:dc="http://purl.org/dc/elements/1.1/"
   xmlns:cc="http://creativecommons.org/ns#"
   xmlns:rdf="http://www.w3.org/1999/02/22-rdf-syntax-ns#"
   xmlns:svg="http://www.w3.org/2000/svg"
   xmlns="http://www.w3.org/2000/svg"
   xmlns:sodipodi="http://sodipodi.sourceforge.net/DTD/sodipodi-0.dtd"
   xmlns:inkscape="http://www.inkscape.org/namespaces/inkscape"
   version="1.1"
   id="svg8451"
   xml:space="preserve"
   width="800"
   height="800"
   viewBox="0 0 800 800"
   sodipodi:docname="logo-design-element-#13.svg"
   inkscape:version="0.92.4 (5da689c313, 2019-01-14)"><metadata
     id="metadata8457"><rdf:RDF><cc:Work
         rdf:about=""><dc:format>image/svg+xml</dc:format><dc:type
           rdf:resource="http://purl.org/dc/dcmitype/StillImage" /><dc:title></dc:title></cc:Work></rdf:RDF></metadata><defs
     id="defs8455"><clipPath
       clipPathUnits="userSpaceOnUse"
       id="clipPath8467"><path
         d="M 0,600 H 600 V 0 H 0 Z"
         id="path8465"
         inkscape:connector-curvature="0" /></clipPath><linearGradient
       x1="0"
       y1="0"
       x2="1"
       y2="0"
       gradientUnits="userSpaceOnUse"
       gradientTransform="matrix(479.396,0,0,-479.396,50.933106,341.12793)"
       spreadMethod="pad"
       id="linearGradient8491"><stop
         style="stop-opacity:1;stop-color:#1aaeec"
         offset="0"
         id="stop8481" /><stop
         style="stop-opacity:1;stop-color:#4253a7"
         offset="0.297753"
         id="stop8483" /><stop
         style="stop-opacity:1;stop-color:#e70c8d"
         offset="0.646067"
         id="stop8485" /><stop
         style="stop-opacity:1;stop-color:#e33c47"
         offset="0.955056"
         id="stop8487" /><stop
         style="stop-opacity:1;stop-color:#e33c47"
         offset="1"
         id="stop8489" /></linearGradient></defs><sodipodi:namedview
     pagecolor="#ffffff"
     bordercolor="#666666"
     borderopacity="1"
     objecttolerance="10"
     gridtolerance="10"
     guidetolerance="10"
     inkscape:pageopacity="0"
     inkscape:pageshadow="2"
     inkscape:window-width="724"
     inkscape:window-height="480"
     id="namedview8453"
     showgrid="false"
     inkscape:zoom="0.295"
     inkscape:cx="400"
     inkscape:cy="400"
     inkscape:window-x="0"
     inkscape:window-y="0"
     inkscape:window-maximized="0"
     inkscape:current-layer="g8459" /><g
     id="g8459"
     inkscape:groupmode="layer"
     inkscape:label="logotype-element-13-publicdomainvectors.org"
     transform="matrix(1.3333333,0,0,-1.3333333,0,800)"><g
       id="g8461"><g
         id="g8463"
         clip-path="url(#clipPath8467)"><g
           id="g8469"><g
             id="g8471"><g
               id="g8477"><g
                 id="g8479"><path
                   d="m 197.84,547.562 c -11.454,-1.317 -16.201,-12.242 -10.455,-24.491 5.797,-12.307 19.873,-20.984 31.287,-19.36 11.248,1.613 15.569,12.646 9.826,24.632 -5.724,11.91 -19.368,20.494 -30.658,19.219 m -51.491,-4.382 c -9.841,-1.21 -14.045,-10.429 -9.269,-20.654 4.809,-10.254 16.756,-17.427 26.573,-16.007 9.705,1.425 13.595,10.716 8.826,20.743 -4.756,9.984 -16.399,17.091 -26.13,15.918 m 31.311,-37.5 c -10.506,-0.887 -15.47,-10.458 -10.949,-21.451 4.55,-11.034 16.859,-19.101 27.363,-17.977 10.371,1.128 14.979,10.805 10.454,21.593 -4.532,10.736 -16.493,18.695 -26.868,17.835 m 29.895,-39.409 c -11.174,-0.519 -16.934,-10.433 -12.738,-22.225 4.244,-11.865 16.877,-20.884 28.087,-20.105 11.059,0.791 16.441,10.85 12.188,22.439 -4.247,11.517 -16.504,20.388 -27.537,19.891 M 59.045,570.993 c -7.377,-1.261 -10.261,-8.224 -6.392,-15.591 3.892,-7.38 13.039,-12.243 20.381,-10.885 7.28,1.377 9.989,8.352 6.144,15.613 -3.849,7.23 -12.822,12.082 -20.133,10.863 m 32.322,-33.475 c -8.03,-1.055 -11.565,-8.43 -7.802,-16.51 3.772,-8.105 13.399,-13.729 21.418,-12.536 7.935,1.182 11.263,8.599 7.514,16.558 -3.753,7.937 -13.173,13.525 -21.13,12.488 m 30.967,-35.313 c -8.703,-0.804 -12.917,-8.569 -9.329,-17.398 3.614,-8.854 13.663,-15.271 22.367,-14.323 8.624,0.963 12.599,8.791 9.002,17.496 -3.605,8.655 -13.419,15.004 -22.04,14.225 M 151.904,465 c -9.381,-0.503 -14.334,-8.66 -10.977,-18.26 3.394,-9.648 13.844,-16.923 23.248,-16.249 9.301,0.691 13.99,8.932 10.592,18.396 -3.396,9.41 -13.582,16.603 -22.863,16.113 m 28.114,-39.199 c -10.07,-0.167 -15.809,-8.671 -12.737,-19.083 3.115,-10.461 13.922,-18.694 24.039,-18.336 10.005,0.373 15.465,9.009 12.314,19.274 -3.134,10.204 -13.655,18.292 -23.616,18.145 m 26.6,-41.264 c -10.76,0.225 -17.363,-8.636 -14.624,-19.883 2.765,-11.331 13.902,-20.584 24.748,-20.605 10.728,-0.004 17.006,9.037 14.167,20.142 -2.835,11.037 -13.647,20.102 -24.291,20.346 M 63.11,497.473 c -6.67,-0.67 -9.98,-6.494 -7.346,-13.036 2.641,-6.566 10.229,-11.274 16.895,-10.521 6.613,0.756 9.801,6.611 7.154,13.083 -2.634,6.454 -10.087,11.128 -16.703,10.474 m 29.264,-34.852 c -7.358,-0.466 -11.348,-6.712 -8.829,-13.999 2.52,-7.315 10.599,-12.813 17.967,-12.247 7.313,0.555 11.128,6.859 8.604,14.073 -2.533,7.173 -10.445,12.615 -17.742,12.173 M 120.2,425.806 c -8.051,-0.205 -12.752,-6.859 -10.427,-14.923 2.343,-8.099 10.843,-14.432 18.935,-14.121 8.02,0.314 12.54,7.054 10.176,15.037 -2.371,7.924 -10.688,14.181 -18.684,14.007 m 26.332,-38.869 c -8.761,0.118 -14.241,-6.926 -12.167,-15.797 2.096,-8.915 11.001,-16.164 19.813,-16.158 8.739,0.018 14.009,7.178 11.874,15.958 -2.131,8.724 -10.832,15.863 -19.52,15.997 m 24.749,-41.008 c -9.469,0.491 -15.8,-6.915 -14.034,-16.629 1.775,-9.778 11.03,-18.027 20.586,-18.376 9.477,-0.335 15.563,7.227 13.724,16.852 -1.85,9.555 -10.886,17.652 -20.276,18.153 m -62.692,-52.334 c 6.45,-14.901 23.007,-23.913 36.778,-20.14 13.547,3.738 19.138,18.458 12.753,32.893 -6.366,14.333 -22.334,23.287 -35.922,20.036 -13.799,-3.329 -19.991,-17.976 -13.609,-32.789 m 26.589,-65.725 c 5.472,-12.391 19.06,-19.494 30.225,-15.862 11.001,3.608 15.394,16.298 9.982,28.371 -5.417,12.011 -18.604,19.083 -29.646,15.827 -11.187,-3.32 -15.978,-15.985 -10.561,-28.336 m 35.998,29.151 c 5.033,-12.849 18.587,-21.009 30.127,-18.196 11.367,2.786 16.386,15.192 11.37,27.702 -5.002,12.431 -18.138,20.502 -29.517,18.078 -11.537,-2.49 -16.969,-14.808 -11.98,-27.584 m 36.687,25.299 c 4.577,-13.218 18.026,-22.385 29.889,-20.448 11.698,1.945 17.309,13.978 12.72,26.866 -4.578,12.79 -17.592,21.817 -29.264,20.24 -11.832,-1.626 -17.872,-13.521 -13.345,-26.658 M 133.006,125.638 c 4.611,-9.14 14.888,-13.448 22.916,-9.655 7.936,3.776 10.611,14.054 6.076,23 -4.541,8.925 -14.616,13.256 -22.603,9.691 -8.057,-3.613 -10.949,-13.925 -6.389,-23.036 m 30.865,34.242 c 4.388,-9.758 14.926,-15.022 23.475,-11.77 8.446,3.238 11.69,13.586 7.343,23.147 -4.346,9.509 -14.645,14.775 -23.122,11.76 -8.565,-3.069 -12.061,-13.414 -7.696,-23.137 m 32.032,30.6 c 4.123,-10.318 14.846,-16.537 23.87,-13.888 8.912,2.633 12.716,12.958 8.619,23.058 -4.106,10.061 -14.56,16.226 -23.495,13.836 -9.022,-2.448 -13.086,-12.726 -8.994,-23.006 m 32.994,27.002 c 3.817,-10.814 14.662,-17.978 24.11,-15.996 9.338,1.998 13.698,12.196 9.882,22.783 -3.819,10.522 -14.374,17.607 -23.7,15.866 -9.427,-1.778 -14.079,-11.896 -10.292,-22.653 m 33.802,23.449 c 3.487,-11.241 14.365,-19.339 24.197,-18.048 9.716,1.289 14.643,11.292 11.126,22.305 -3.506,10.934 -14.084,18.909 -23.763,17.86 -9.795,-1.068 -15.014,-10.935 -11.56,-22.117 m 34.429,19.981 c 3.128,-11.604 13.996,-20.607 24.157,-20.053 10.061,0.561 15.529,10.281 12.356,21.655 -3.169,11.294 -13.729,20.12 -23.717,19.804 -10.11,-0.339 -15.881,-9.878 -12.796,-21.406 M 222.699,121.408 c 3.121,-7.64 10.928,-11.998 17.414,-9.734 6.432,2.267 9.079,10.169 5.983,17.684 -3.095,7.488 -10.767,11.826 -17.211,9.705 -6.489,-2.153 -9.274,-10.04 -6.186,-17.655 m 29.21,28.452 c 2.987,-8.237 11.098,-13.442 18.098,-11.611 6.935,1.822 10.096,9.881 7.119,17.983 -2.963,8.068 -10.927,13.226 -17.865,11.554 -6.983,-1.707 -10.303,-9.72 -7.352,-17.926 m 30.257,25.146 c 2.795,-8.777 11.152,-14.839 18.62,-13.505 7.402,1.339 11.075,9.417 8.275,18.059 -2.792,8.596 -10.982,14.575 -18.371,13.41 -7.433,-1.202 -11.283,-9.214 -8.524,-17.964 m 31.147,21.869 c 2.56,-9.265 11.087,-16.171 18.99,-15.398 7.829,0.774 12.011,8.821 9.429,17.931 -2.58,9.067 -10.924,15.868 -18.718,15.258 -7.86,-0.63 -12.236,-8.569 -9.701,-17.791 m 31.877,18.631 c 2.292,-9.689 10.927,-17.442 19.22,-17.273 8.223,0.179 12.916,8.083 10.581,17.621 -2.336,9.483 -10.771,17.097 -18.939,17.093 -8.238,-0.025 -13.128,-7.807 -10.862,-17.441 m 63.315,-70.45 c 10.551,4.434 13.585,19.132 6.952,32.854 -6.6,13.653 -20.412,21.435 -31.048,17.453 -10.783,-4.077 -14.27,-18.742 -7.603,-32.813 6.718,-14.139 20.978,-21.971 31.699,-17.494 m 45.368,17.156 c 7.985,3.488 10.016,15.02 4.625,25.801 -5.37,10.728 -16.162,16.814 -24.216,13.612 -8.147,-3.263 -10.441,-14.794 -5.021,-25.781 5.453,-11.032 16.512,-17.132 24.612,-13.632 m -31.753,38.032 c 8.968,2.762 11.983,14.312 6.856,25.785 -5.102,11.405 -16.425,18.627 -25.424,16.158 -9.105,-2.516 -12.43,-13.999 -7.317,-25.692 5.164,-11.761 16.807,-19.044 25.885,-16.251 m -30.574,40.27 c 9.927,1.94 14.002,13.326 9.26,25.407 -4.731,11.999 -16.486,20.357 -26.416,18.73 -10.045,-1.669 -14.48,-12.927 -9.772,-25.229 4.757,-12.38 16.869,-20.855 26.928,-18.908 m 134.642,-92.025 c 4.943,2.951 5.533,11.227 1.384,18.526 -4.157,7.272 -11.511,10.885 -16.495,8.077 -5.02,-2.855 -5.732,-11.144 -1.553,-18.55 4.2,-7.409 11.673,-11.003 16.664,-8.053 m -29.783,30.956 c 5.734,2.588 6.983,11.159 2.849,19.175 -4.13,7.984 -12.107,12.485 -17.882,10.051 -5.818,-2.461 -7.21,-11.032 -3.06,-19.164 4.184,-8.153 12.303,-12.663 18.093,-10.062 m -29.23,33.368 c 6.557,2.108 8.55,10.86 4.516,19.551 -4.019,8.647 -12.549,14.074 -19.13,12.138 -6.646,-1.976 -8.805,-10.685 -4.776,-19.509 4.063,-8.849 12.769,-14.299 19.39,-12.18 m -28.382,35.544 c 7.385,1.536 10.197,10.332 6.372,19.637 -3.823,9.261 -12.84,15.632 -20.231,14.295 -7.459,-1.371 -10.477,-10.1 -6.662,-19.536 3.843,-9.478 13.063,-15.93 20.521,-14.396 m -27.239,37.474 c 8.21,0.858 11.913,9.558 8.375,19.407 -3.523,9.786 -12.945,17.143 -21.134,16.484 -8.27,-0.681 -12.211,-9.26 -8.709,-19.24 3.527,-10.04 13.172,-17.503 21.468,-16.651 m -25.807,39.088 c 9.006,0.097 13.66,8.561 10.507,18.859 -3.145,10.235 -12.869,18.561 -21.828,18.673 -9.057,0.1 -13.965,-8.206 -10.883,-18.63 3.122,-10.502 13.101,-18.983 22.204,-18.902 m 123.814,-99.22 c 4.422,1.486 5.618,7.598 2.702,13.662 -2.909,6.051 -8.834,9.796 -13.271,8.4 -4.46,-1.419 -5.745,-7.512 -2.821,-13.64 2.933,-6.142 8.935,-9.91 13.39,-8.422 m -26.16,31.077 c 5.118,1.144 6.918,7.457 4.046,14.132 -2.864,6.649 -9.307,11.191 -14.431,10.161 -5.162,-1.042 -7.053,-7.329 -4.195,-14.079 2.88,-6.758 9.423,-11.333 14.58,-10.214 m -25.33,32.985 c 5.825,0.686 8.284,7.102 5.547,14.343 -2.738,7.204 -9.625,12.56 -15.451,11.997 -5.869,-0.579 -8.452,-6.947 -5.731,-14.261 2.743,-7.324 9.755,-12.744 15.635,-12.079 m -24.25,34.65 c 6.538,0.138 9.742,6.539 7.206,14.279 -2.519,7.698 -9.805,13.893 -16.32,13.877 -6.569,-0.028 -9.912,-6.347 -7.411,-14.157 2.507,-7.846 9.933,-14.126 16.525,-13.999 m -22.907,36.037 c 7.234,-0.483 11.229,5.766 8.984,13.936 -2.233,8.124 -9.816,15.157 -17.009,15.763 -7.257,0.604 -11.405,-5.537 -9.226,-13.772 2.206,-8.282 9.957,-15.429 17.251,-15.927 m 39.198,40.751 c -5.886,11.46 -17.905,19.056 -26.99,17.012 -9.21,-2.088 -11.959,-13.273 -6.018,-25.032 5.975,-11.813 18.339,-19.474 27.484,-17.1 9.018,2.36 11.43,13.607 5.524,25.12 m -24.274,49.472 c -4.747,9.094 -14.475,15.256 -21.835,13.782 -7.433,-1.503 -9.657,-10.222 -4.878,-19.507 4.811,-9.324 14.758,-15.519 22.152,-13.842 7.312,1.673 9.309,10.433 4.561,19.567 m -22.403,-18.432 c -4.62,9.969 -15.059,17.119 -23.439,16.005 -8.463,-1.142 -11.665,-10.275 -7.036,-20.465 4.661,-10.232 15.376,-17.457 23.825,-16.123 8.356,1.344 11.285,10.564 6.65,20.583 m -25.748,-17.39 c -4.387,10.875 -15.519,19.102 -24.998,18.445 -9.589,-0.682 -13.916,-10.191 -9.544,-21.318 4.407,-11.183 15.854,-19.537 25.455,-18.629 9.484,0.92 13.489,10.56 9.087,21.502 m 40.807,102.271 c -3.592,6.119 -10.382,10.088 -15.231,8.895 -4.877,-1.226 -5.931,-7.226 -2.326,-13.431 3.629,-6.216 10.521,-10.198 15.375,-8.905 4.808,1.294 5.764,7.31 2.182,13.441 m -17.313,-17.667 c -3.623,6.839 -11.079,11.565 -16.721,10.572 -5.685,-1.011 -7.382,-7.443 -3.744,-14.396 3.652,-6.962 11.237,-11.713 16.899,-10.607 5.614,1.112 7.187,7.57 3.566,14.431 m -20.182,-16.842 c -3.571,7.595 -11.689,13.152 -18.198,12.431 -6.564,-0.731 -9.025,-7.561 -5.446,-15.283 3.606,-7.758 11.879,-13.354 18.437,-12.507 6.493,0.855 8.792,7.733 5.207,15.359 m -23.231,-15.852 c -3.448,8.377 -12.205,14.842 -19.65,14.486 -7.512,-0.388 -10.861,-7.567 -7.436,-16.092 3.462,-8.558 12.41,-15.099 19.923,-14.585 7.448,0.516 10.61,7.778 7.163,16.191 m -26.499,-14.652 c -3.207,9.18 -12.581,16.638 -21.029,16.712 -8.531,0.064 -12.938,-7.419 -9.76,-16.77 3.204,-9.397 12.798,-16.971 21.354,-16.877 8.482,0.103 12.653,7.697 9.435,16.935 m -29.953,-13.253 c -2.865,10 -12.812,18.54 -22.318,19.138 -9.623,0.6 -15.233,-7.114 -12.445,-17.301 2.818,-10.255 13.027,-18.958 22.701,-19.374 9.587,-0.407 14.929,7.465 12.062,17.537 m 56.87,93.326 c -2.564,5.342 -8.373,9.321 -13.035,8.908 -4.69,-0.423 -6.438,-5.129 -3.88,-10.53 2.568,-5.408 8.464,-9.42 13.145,-8.936 4.654,0.479 6.321,5.207 3.77,10.558 m -20.732,-14.481 c -2.527,6.018 -8.943,10.742 -14.392,10.594 -5.484,-0.172 -7.925,-5.222 -5.403,-11.317 2.522,-6.106 9.045,-10.88 14.536,-10.651 5.446,0.244 7.781,5.336 5.259,11.374 m -23.689,-13.371 c -2.407,6.716 -9.408,12.269 -15.707,12.444 -6.34,0.161 -9.59,-5.187 -7.204,-11.996 2.394,-6.831 9.53,-12.455 15.89,-12.541 6.298,-0.064 9.424,5.345 7.021,12.093 m -26.827,-12.069 c -2.186,7.429 -9.74,13.878 -16.946,14.466 -7.262,0.577 -11.447,-5.027 -9.31,-12.554 2.161,-7.564 9.872,-14.113 17.167,-14.6 7.236,-0.469 11.274,5.219 9.089,12.688 m -41.61,-23.703 c -8.298,0.978 -16.537,8.532 -18.342,16.848 -1.781,8.262 3.501,14.031 11.738,12.959 8.169,-1.068 16.224,-8.506 18.077,-16.65 1.854,-8.2 -3.243,-14.11 -11.473,-13.157"
                   style="fill:url(#linearGradient8491);stroke:none"
                   id="path8493"
                   inkscape:connector-curvature="0" /></g></g></g></g><path
           d="m 197.84,547.562 c -11.454,-1.317 -16.201,-12.242 -10.455,-24.491 5.797,-12.307 19.873,-20.984 31.287,-19.36 11.248,1.613 15.569,12.646 9.826,24.632 -5.724,11.91 -19.368,20.494 -30.658,19.219 z m -51.491,-4.382 c -9.841,-1.21 -14.045,-10.429 -9.269,-20.654 4.809,-10.254 16.756,-17.427 26.573,-16.007 9.705,1.425 13.595,10.716 8.826,20.743 -4.756,9.984 -16.399,17.091 -26.13,15.918 z m 31.311,-37.5 c -10.506,-0.887 -15.47,-10.458 -10.949,-21.451 4.55,-11.034 16.859,-19.101 27.363,-17.977 10.371,1.128 14.979,10.805 10.454,21.593 -4.532,10.736 -16.493,18.695 -26.868,17.835 z m 29.895,-39.409 c -11.174,-0.519 -16.934,-10.433 -12.738,-22.225 4.244,-11.865 16.877,-20.884 28.087,-20.105 11.059,0.791 16.441,10.85 12.188,22.439 -4.247,11.517 -16.504,20.388 -27.537,19.891 z M 59.045,570.993 c -7.377,-1.261 -10.261,-8.224 -6.392,-15.591 3.892,-7.38 13.039,-12.243 20.381,-10.885 7.28,1.377 9.989,8.352 6.144,15.613 -3.849,7.23 -12.822,12.082 -20.133,10.863 z m 32.322,-33.475 c -8.03,-1.055 -11.565,-8.43 -7.802,-16.51 3.772,-8.105 13.399,-13.729 21.418,-12.536 7.935,1.182 11.263,8.599 7.514,16.558 -3.753,7.937 -13.173,13.525 -21.13,12.488 z m 30.967,-35.313 c -8.703,-0.804 -12.917,-8.569 -9.329,-17.398 3.614,-8.854 13.663,-15.271 22.367,-14.323 8.624,0.963 12.599,8.791 9.002,17.496 -3.605,8.655 -13.419,15.004 -22.04,14.225 z M 151.904,465 c -9.381,-0.503 -14.334,-8.66 -10.977,-18.26 3.394,-9.648 13.844,-16.923 23.248,-16.249 9.301,0.691 13.99,8.932 10.592,18.396 -3.396,9.41 -13.582,16.603 -22.863,16.113 z m 28.114,-39.199 c -10.07,-0.167 -15.809,-8.671 -12.737,-19.083 3.115,-10.461 13.922,-18.694 24.039,-18.336 10.005,0.373 15.465,9.009 12.314,19.274 -3.134,10.204 -13.655,18.292 -23.616,18.145 z m 26.6,-41.264 c -10.76,0.225 -17.363,-8.636 -14.624,-19.883 2.765,-11.331 13.902,-20.584 24.748,-20.605 10.728,-0.004 17.006,9.037 14.167,20.142 -2.835,11.037 -13.647,20.102 -24.291,20.346 z M 63.11,497.473 c -6.67,-0.67 -9.98,-6.494 -7.346,-13.036 2.641,-6.566 10.229,-11.274 16.895,-10.521 6.613,0.756 9.801,6.611 7.154,13.083 -2.634,6.454 -10.087,11.128 -16.703,10.474 z m 29.264,-34.852 c -7.358,-0.466 -11.348,-6.712 -8.829,-13.999 2.52,-7.315 10.599,-12.813 17.967,-12.247 7.313,0.555 11.128,6.859 8.604,14.073 -2.533,7.173 -10.445,12.615 -17.742,12.173 z M 120.2,425.806 c -8.051,-0.205 -12.752,-6.859 -10.427,-14.923 2.343,-8.099 10.843,-14.432 18.935,-14.121 8.02,0.314 12.54,7.054 10.176,15.037 -2.371,7.924 -10.688,14.181 -18.684,14.007 z m 26.332,-38.869 c -8.761,0.118 -14.241,-6.926 -12.167,-15.797 2.096,-8.915 11.001,-16.164 19.813,-16.158 8.739,0.018 14.009,7.178 11.874,15.958 -2.131,8.724 -10.832,15.863 -19.52,15.997 z m 24.749,-41.008 c -9.469,0.491 -15.8,-6.915 -14.034,-16.629 1.775,-9.778 11.03,-18.027 20.586,-18.376 9.477,-0.335 15.563,7.227 13.724,16.852 -1.85,9.555 -10.886,17.652 -20.276,18.153 z m -62.692,-52.334 c 6.45,-14.901 23.007,-23.913 36.778,-20.14 13.547,3.738 19.138,18.458 12.753,32.893 -6.366,14.333 -22.334,23.287 -35.922,20.036 -13.799,-3.329 -19.991,-17.976 -13.609,-32.789 z m 26.589,-65.725 c 5.472,-12.391 19.06,-19.494 30.225,-15.862 11.001,3.608 15.394,16.298 9.982,28.371 -5.417,12.011 -18.604,19.083 -29.646,15.827 -11.187,-3.32 -15.978,-15.985 -10.561,-28.336 z m 35.998,29.151 c 5.033,-12.849 18.587,-21.009 30.127,-18.196 11.367,2.786 16.386,15.192 11.37,27.702 -5.002,12.431 -18.138,20.502 -29.517,18.078 -11.537,-2.49 -16.969,-14.808 -11.98,-27.584 z m 36.687,25.299 c 4.577,-13.218 18.026,-22.385 29.889,-20.448 11.698,1.945 17.309,13.978 12.72,26.866 -4.578,12.79 -17.592,21.817 -29.264,20.24 -11.832,-1.626 -17.872,-13.521 -13.345,-26.658 z M 133.006,125.638 c 4.611,-9.14 14.888,-13.448 22.916,-9.655 7.936,3.776 10.611,14.054 6.076,23 -4.541,8.925 -14.616,13.256 -22.603,9.691 -8.057,-3.613 -10.949,-13.925 -6.389,-23.036 z m 30.865,34.242 c 4.388,-9.758 14.926,-15.022 23.475,-11.77 8.446,3.238 11.69,13.586 7.343,23.147 -4.346,9.509 -14.645,14.775 -23.122,11.76 -8.565,-3.069 -12.061,-13.414 -7.696,-23.137 z m 32.032,30.6 c 4.123,-10.318 14.846,-16.537 23.87,-13.888 8.912,2.633 12.716,12.958 8.619,23.058 -4.106,10.061 -14.56,16.226 -23.495,13.836 -9.022,-2.448 -13.086,-12.726 -8.994,-23.006 z m 32.994,27.002 c 3.817,-10.814 14.662,-17.978 24.11,-15.996 9.338,1.998 13.698,12.196 9.882,22.783 -3.819,10.522 -14.374,17.607 -23.7,15.866 -9.427,-1.778 -14.079,-11.896 -10.292,-22.653 z m 33.802,23.449 c 3.487,-11.241 14.365,-19.339 24.197,-18.048 9.716,1.289 14.643,11.292 11.126,22.305 -3.506,10.934 -14.084,18.909 -23.763,17.86 -9.795,-1.068 -15.014,-10.935 -11.56,-22.117 z m 34.429,19.981 c 3.128,-11.604 13.996,-20.607 24.157,-20.053 10.061,0.561 15.529,10.281 12.356,21.655 -3.169,11.294 -13.729,20.12 -23.717,19.804 -10.11,-0.339 -15.881,-9.878 -12.796,-21.406 z M 222.699,121.408 c 3.121,-7.64 10.928,-11.998 17.414,-9.734 6.432,2.267 9.079,10.169 5.983,17.684 -3.095,7.488 -10.767,11.826 -17.211,9.705 -6.489,-2.153 -9.274,-10.04 -6.186,-17.655 z m 29.21,28.452 c 2.987,-8.237 11.098,-13.442 18.098,-11.611 6.935,1.822 10.096,9.881 7.119,17.983 -2.963,8.068 -10.927,13.226 -17.865,11.554 -6.983,-1.707 -10.303,-9.72 -7.352,-17.926 z m 30.257,25.146 c 2.795,-8.777 11.152,-14.839 18.62,-13.505 7.402,1.339 11.075,9.417 8.275,18.059 -2.792,8.596 -10.982,14.575 -18.371,13.41 -7.433,-1.202 -11.283,-9.214 -8.524,-17.964 z m 31.147,21.869 c 2.56,-9.265 11.087,-16.171 18.99,-15.398 7.829,0.774 12.011,8.821 9.429,17.931 -2.58,9.067 -10.924,15.868 -18.718,15.258 -7.86,-0.63 -12.236,-8.569 -9.701,-17.791 z m 31.877,18.631 c 2.292,-9.689 10.927,-17.442 19.22,-17.273 8.223,0.179 12.916,8.083 10.581,17.621 -2.336,9.483 -10.771,17.097 -18.939,17.093 -8.238,-0.025 -13.128,-7.807 -10.862,-17.441 z m 63.315,-70.45 c 10.551,4.434 13.585,19.132 6.952,32.854 -6.6,13.653 -20.412,21.435 -31.048,17.453 -10.783,-4.077 -14.27,-18.742 -7.603,-32.813 6.718,-14.139 20.978,-21.971 31.699,-17.494 z m 45.368,17.156 c 7.985,3.488 10.016,15.02 4.625,25.801 -5.37,10.728 -16.162,16.814 -24.216,13.612 -8.147,-3.263 -10.441,-14.794 -5.021,-25.781 5.453,-11.032 16.512,-17.132 24.612,-13.632 z m -31.753,38.032 c 8.968,2.762 11.983,14.312 6.856,25.785 -5.102,11.405 -16.425,18.627 -25.424,16.158 -9.105,-2.516 -12.43,-13.999 -7.317,-25.692 5.164,-11.761 16.807,-19.044 25.885,-16.251 z m -30.574,40.27 c 9.927,1.94 14.002,13.326 9.26,25.407 -4.731,11.999 -16.486,20.357 -26.416,18.73 -10.045,-1.669 -14.48,-12.927 -9.772,-25.229 4.757,-12.38 16.869,-20.855 26.928,-18.908 z m 134.642,-92.025 c 4.943,2.951 5.533,11.227 1.384,18.526 -4.157,7.272 -11.511,10.885 -16.495,8.077 -5.02,-2.855 -5.732,-11.144 -1.553,-18.55 4.2,-7.409 11.673,-11.003 16.664,-8.053 z m -29.783,30.956 c 5.734,2.588 6.983,11.159 2.849,19.175 -4.13,7.984 -12.107,12.485 -17.882,10.051 -5.818,-2.461 -7.21,-11.032 -3.06,-19.164 4.184,-8.153 12.303,-12.663 18.093,-10.062 z m -29.23,33.368 c 6.557,2.108 8.55,10.86 4.516,19.551 -4.019,8.647 -12.549,14.074 -19.13,12.138 -6.646,-1.976 -8.805,-10.685 -4.776,-19.509 4.063,-8.849 12.769,-14.299 19.39,-12.18 z m -28.382,35.544 c 7.385,1.536 10.197,10.332 6.372,19.637 -3.823,9.261 -12.84,15.632 -20.231,14.295 -7.459,-1.371 -10.477,-10.1 -6.662,-19.536 3.843,-9.478 13.063,-15.93 20.521,-14.396 z m -27.239,37.474 c 8.21,0.858 11.913,9.558 8.375,19.407 -3.523,9.786 -12.945,17.143 -21.134,16.484 -8.27,-0.681 -12.211,-9.26 -8.709,-19.24 3.527,-10.04 13.172,-17.503 21.468,-16.651 z m -25.807,39.088 c 9.006,0.097 13.66,8.561 10.507,18.859 -3.145,10.235 -12.869,18.561 -21.828,18.673 -9.057,0.1 -13.965,-8.206 -10.883,-18.63 3.122,-10.502 13.101,-18.983 22.204,-18.902 z m 123.814,-99.22 c 4.422,1.486 5.618,7.598 2.702,13.662 -2.909,6.051 -8.834,9.796 -13.271,8.4 -4.46,-1.419 -5.745,-7.512 -2.821,-13.64 2.933,-6.142 8.935,-9.91 13.39,-8.422 z m -26.16,31.077 c 5.118,1.144 6.918,7.457 4.046,14.132 -2.864,6.649 -9.307,11.191 -14.431,10.161 -5.162,-1.042 -7.053,-7.329 -4.195,-14.079 2.88,-6.758 9.423,-11.333 14.58,-10.214 z m -25.33,32.985 c 5.825,0.686 8.284,7.102 5.547,14.343 -2.738,7.204 -9.625,12.56 -15.451,11.997 -5.869,-0.579 -8.452,-6.947 -5.731,-14.261 2.743,-7.324 9.755,-12.744 15.635,-12.079 z m -24.25,34.65 c 6.538,0.138 9.742,6.539 7.206,14.279 -2.519,7.698 -9.805,13.893 -16.32,13.877 -6.569,-0.028 -9.912,-6.347 -7.411,-14.157 2.507,-7.846 9.933,-14.126 16.525,-13.999 z m -22.907,36.037 c 7.234,-0.483 11.229,5.766 8.984,13.936 -2.233,8.124 -9.816,15.157 -17.009,15.763 -7.257,0.604 -11.405,-5.537 -9.226,-13.772 2.206,-8.282 9.957,-15.429 17.251,-15.927 z m 39.198,40.751 c -5.886,11.46 -17.905,19.056 -26.99,17.012 -9.21,-2.088 -11.959,-13.273 -6.018,-25.032 5.975,-11.813 18.339,-19.474 27.484,-17.1 9.018,2.36 11.43,13.607 5.524,25.12 z m -24.274,49.472 c -4.747,9.094 -14.475,15.256 -21.835,13.782 -7.433,-1.503 -9.657,-10.222 -4.878,-19.507 4.811,-9.324 14.758,-15.519 22.152,-13.842 7.312,1.673 9.309,10.433 4.561,19.567 z m -22.403,-18.432 c -4.62,9.969 -15.059,17.119 -23.439,16.005 -8.463,-1.142 -11.665,-10.275 -7.036,-20.465 4.661,-10.232 15.376,-17.457 23.825,-16.123 8.356,1.344 11.285,10.564 6.65,20.583 z m -25.748,-17.39 c -4.387,10.875 -15.519,19.102 -24.998,18.445 -9.589,-0.682 -13.916,-10.191 -9.544,-21.318 4.407,-11.183 15.854,-19.537 25.455,-18.629 9.484,0.92 13.489,10.56 9.087,21.502 z m 40.807,102.271 c -3.592,6.119 -10.382,10.088 -15.231,8.895 -4.877,-1.226 -5.931,-7.226 -2.326,-13.431 3.629,-6.216 10.521,-10.198 15.375,-8.905 4.808,1.294 5.764,7.31 2.182,13.441 z m -17.313,-17.667 c -3.623,6.839 -11.079,11.565 -16.721,10.572 -5.685,-1.011 -7.382,-7.443 -3.744,-14.396 3.652,-6.962 11.237,-11.713 16.899,-10.607 5.614,1.112 7.187,7.57 3.566,14.431 z m -20.182,-16.842 c -3.571,7.595 -11.689,13.152 -18.198,12.431 -6.564,-0.731 -9.025,-7.561 -5.446,-15.283 3.606,-7.758 11.879,-13.354 18.437,-12.507 6.493,0.855 8.792,7.733 5.207,15.359 z m -23.231,-15.852 c -3.448,8.377 -12.205,14.842 -19.65,14.486 -7.512,-0.388 -10.861,-7.567 -7.436,-16.092 3.462,-8.558 12.41,-15.099 19.923,-14.585 7.448,0.516 10.61,7.778 7.163,16.191 z m -26.499,-14.652 c -3.207,9.18 -12.581,16.638 -21.029,16.712 -8.531,0.064 -12.938,-7.419 -9.76,-16.77 3.204,-9.397 12.798,-16.971 21.354,-16.877 8.482,0.103 12.653,7.697 9.435,16.935 z m -29.953,-13.253 c -2.865,10 -12.812,18.54 -22.318,19.138 -9.623,0.6 -15.233,-7.114 -12.445,-17.301 2.818,-10.255 13.027,-18.958 22.701,-19.374 9.587,-0.407 14.929,7.465 12.062,17.537 z m 56.87,93.326 c -2.564,5.342 -8.373,9.321 -13.035,8.908 -4.69,-0.423 -6.438,-5.129 -3.88,-10.53 2.568,-5.408 8.464,-9.42 13.145,-8.936 4.654,0.479 6.321,5.207 3.77,10.558 z m -20.732,-14.481 c -2.527,6.018 -8.943,10.742 -14.392,10.594 -5.484,-0.172 -7.925,-5.222 -5.403,-11.317 2.522,-6.106 9.045,-10.88 14.536,-10.651 5.446,0.244 7.781,5.336 5.259,11.374 z m -23.689,-13.371 c -2.407,6.716 -9.408,12.269 -15.707,12.444 -6.34,0.161 -9.59,-5.187 -7.204,-11.996 2.394,-6.831 9.53,-12.455 15.89,-12.541 6.298,-0.064 9.424,5.345 7.021,12.093 z m -26.827,-12.069 c -2.186,7.429 -9.74,13.878 -16.946,14.466 -7.262,0.577 -11.447,-5.027 -9.31,-12.554 2.161,-7.564 9.872,-14.113 17.167,-14.6 7.236,-0.469 11.274,5.219 9.089,12.688 z m -41.61,-23.703 c -8.298,0.978 -16.537,8.532 -18.342,16.848 -1.781,8.262 3.501,14.031 11.738,12.959 8.169,-1.068 16.224,-8.506 18.077,-16.65 1.854,-8.2 -3.243,-14.11 -11.473,-13.157 z"
           style="fill:none;stroke:#ffffff;stroke-width:0.15800001;stroke-linecap:butt;stroke-linejoin:miter;stroke-miterlimit:4;stroke-dasharray:none;stroke-opacity:1"
           id="path8495"
           inkscape:connector-curvature="0" /></g></g></g></svg>