<?xml version="1.0" encoding="UTF-8" standalone="no"?>
<!-- Created with Inkscape (http://www.inkscape.org/) -->

<svg
   xmlns:dc="http://purl.org/dc/elements/1.1/"
   xmlns:cc="http://creativecommons.org/ns#"
   xmlns:rdf="http://www.w3.org/1999/02/22-rdf-syntax-ns#"
   xmlns:svg="http://www.w3.org/2000/svg"
   xmlns="http://www.w3.org/2000/svg"
   xmlns:sodipodi="http://sodipodi.sourceforge.net/DTD/sodipodi-0.dtd"
   xmlns:inkscape="http://www.inkscape.org/namespaces/inkscape"
   version="1.1"
   id="svg6091"
   xml:space="preserve"
   width="800"
   height="800"
   viewBox="0 0 800 800"
   sodipodi:docname="logo-design-element-#9.svg"
   inkscape:version="0.92.4 (5da689c313, 2019-01-14)"><metadata
     id="metadata6097"><rdf:RDF><cc:Work
         rdf:about=""><dc:format>image/svg+xml</dc:format><dc:type
           rdf:resource="http://purl.org/dc/dcmitype/StillImage" /><dc:title></dc:title></cc:Work></rdf:RDF></metadata><defs
     id="defs6095"><clipPath
       clipPathUnits="userSpaceOnUse"
       id="clipPath6107"><path
         d="M 0,600 H 600 V 0 H 0 Z"
         id="path6105"
         inkscape:connector-curvature="0" /></clipPath><linearGradient
       x1="0"
       y1="0"
       x2="1"
       y2="0"
       gradientUnits="userSpaceOnUse"
       gradientTransform="matrix(422.84424,0,0,-422.84424,88.483887,365.34863)"
       spreadMethod="pad"
       id="linearGradient6133"><stop
         style="stop-opacity:1;stop-color:#1aaeec"
         offset="0"
         id="stop6121" /><stop
         style="stop-opacity:1;stop-color:#4253a7"
         offset="0.2"
         id="stop6123" /><stop
         style="stop-opacity:1;stop-color:#e70c8d"
         offset="0.4"
         id="stop6125" /><stop
         style="stop-opacity:1;stop-color:#e33c47"
         offset="0.6"
         id="stop6127" /><stop
         style="stop-opacity:1;stop-color:#f6e12c"
         offset="0.8"
         id="stop6129" /><stop
         style="stop-opacity:1;stop-color:#14ab69"
         offset="1"
         id="stop6131" /></linearGradient></defs><sodipodi:namedview
     pagecolor="#ffffff"
     bordercolor="#666666"
     borderopacity="1"
     objecttolerance="10"
     gridtolerance="10"
     guidetolerance="10"
     inkscape:pageopacity="0"
     inkscape:pageshadow="2"
     inkscape:window-width="1920"
     inkscape:window-height="1018"
     id="namedview6093"
     showgrid="false"
     inkscape:zoom="0.79257911"
     inkscape:cx="564.40678"
     inkscape:cy="379.66102"
     inkscape:window-x="-8"
     inkscape:window-y="-8"
     inkscape:window-maximized="1"
     inkscape:current-layer="g6099" /><g
     id="g6099"
     inkscape:groupmode="layer"
     inkscape:label="logotype-element-9-publicdomainvectors.org"
     transform="matrix(1.3333333,0,0,-1.3333333,0,800)"><g
       id="g6101"><g
         id="g6103"
         clip-path="url(#clipPath6107)"><g
           id="g6109"><g
             id="g6111"><g
               id="g6117"><g
                 id="g6119"><path
                   d="m 445.904,245.478 c 3.184,1.597 4.464,5.472 2.867,8.651 -1.595,3.177 -5.471,4.461 -8.646,2.863 -3.18,-1.597 -4.461,-5.471 -2.865,-8.649 1.594,-3.181 5.467,-4.46 8.644,-2.865 m -21.591,18.254 c 3.717,1.608 5.425,5.922 3.824,9.635 -1.607,3.715 -5.916,5.426 -9.635,3.822 -3.709,-1.602 -5.426,-5.913 -3.819,-9.628 1.602,-3.718 5.916,-5.43 9.63,-3.829 m -20.79,20.082 c 4.256,1.556 6.456,6.268 4.905,10.53 -1.555,4.26 -6.265,6.457 -10.528,4.904 -4.265,-1.551 -6.461,-6.265 -4.908,-10.526 1.554,-4.258 6.266,-6.458 10.531,-4.908 m -19.85,21.875 c 4.815,1.444 7.547,6.512 6.107,11.327 -1.445,4.811 -6.515,7.546 -11.328,6.104 -4.812,-1.442 -7.546,-6.515 -6.106,-11.328 1.444,-4.813 6.515,-7.547 11.327,-6.103 m -18.762,23.62 c 5.362,1.272 8.682,6.652 7.408,12.016 -1.274,5.368 -6.652,8.686 -12.018,7.41 -5.367,-1.273 -8.681,-6.653 -7.409,-12.018 1.272,-5.364 6.651,-8.685 12.019,-7.408 m -17.545,25.311 c 5.909,1.043 9.861,6.682 8.816,12.594 -1.043,5.911 -6.683,9.855 -12.593,8.812 -5.912,-1.041 -9.861,-6.684 -8.818,-12.592 1.044,-5.912 6.683,-9.86 12.595,-8.814 m -16.19,26.942 c 6.453,0.753 11.064,6.593 10.309,13.042 -0.756,6.448 -6.593,11.062 -13.043,10.307 -6.451,-0.755 -11.061,-6.598 -10.309,-13.046 0.756,-6.445 6.595,-11.057 13.043,-10.303 m 136.523,-98.999 c 1.911,0.845 2.777,3.081 1.938,4.991 -0.851,1.915 -3.081,2.781 -4.995,1.935 -1.914,-0.846 -2.781,-3.079 -1.933,-4.99 0.845,-1.914 3.082,-2.778 4.99,-1.936 m -19.786,17.419 c 2.413,0.901 3.641,3.593 2.738,6.008 -0.902,2.416 -3.595,3.646 -6.009,2.74 -2.416,-0.9 -3.641,-3.59 -2.741,-6.005 0.905,-2.419 3.595,-3.645 6.012,-2.743 m -19.008,19.156 c 2.933,0.904 4.575,4.018 3.667,6.947 -0.902,2.933 -4.012,4.575 -6.942,3.67 -2.933,-0.906 -4.576,-4.014 -3.671,-6.949 0.903,-2.931 4.013,-4.571 6.946,-3.668 m -18.089,20.86 c 3.455,0.853 5.564,4.338 4.714,7.796 -0.849,3.453 -4.336,5.566 -7.793,4.713 -3.453,-0.849 -5.563,-4.337 -4.716,-7.794 0.853,-3.454 4.341,-5.564 7.795,-4.715 m -17.038,22.523 c 3.98,0.738 6.611,4.557 5.871,8.537 -0.739,3.977 -4.555,6.609 -8.541,5.874 -3.975,-0.741 -6.603,-4.565 -5.869,-8.538 0.739,-3.983 4.563,-6.61 8.539,-5.873 m -15.847,24.128 c 4.497,0.565 7.687,4.669 7.125,9.17 -0.571,4.501 -4.675,7.692 -9.174,7.127 -4.501,-0.567 -7.692,-4.674 -7.13,-9.173 0.57,-4.501 4.673,-7.692 9.179,-7.124 m -14.542,25.67 c 5.013,0.334 8.806,4.67 8.47,9.685 -0.334,5.013 -4.671,8.803 -9.684,8.468 -5.012,-0.331 -8.806,-4.672 -8.468,-9.682 0.334,-5.015 4.666,-8.808 9.682,-8.471 M 511.183,302.303 c 0.124,0.051 0.179,0.196 0.124,0.316 -0.059,0.123 -0.199,0.173 -0.321,0.121 -0.123,-0.054 -0.175,-0.198 -0.122,-0.318 0.054,-0.12 0.199,-0.179 0.319,-0.119 m -18.73,14.743 c 0.583,0.225 0.872,0.876 0.646,1.454 -0.22,0.585 -0.868,0.876 -1.451,0.65 -0.585,-0.225 -0.875,-0.873 -0.648,-1.456 0.221,-0.578 0.873,-0.87 1.453,-0.648 m -18.111,16.431 c 1.06,0.336 1.642,1.466 1.308,2.525 -0.335,1.061 -1.469,1.646 -2.53,1.311 -1.057,-0.337 -1.643,-1.47 -1.308,-2.526 0.335,-1.062 1.469,-1.647 2.53,-1.31 m -17.363,18.086 c 1.549,0.397 2.487,1.975 2.093,3.527 -0.397,1.548 -1.971,2.488 -3.528,2.094 -1.549,-0.395 -2.486,-1.975 -2.088,-3.526 0.393,-1.553 1.968,-2.491 3.523,-2.095 M 440.5,371.277 c 2.054,0.397 3.392,2.384 2.996,4.438 -0.397,2.05 -2.385,3.392 -4.433,2.995 -2.049,-0.399 -3.394,-2.388 -2.996,-4.437 0.394,-2.05 2.382,-3.394 4.433,-2.996 m -15.463,21.298 c 2.554,0.338 4.353,2.689 4.009,5.244 -0.345,2.558 -2.693,4.354 -5.248,4.01 -2.556,-0.343 -4.353,-2.693 -4.011,-5.249 0.343,-2.558 2.692,-4.351 5.25,-4.005 m -14.319,22.819 c 3.059,0.23 5.352,2.898 5.12,5.957 -0.229,3.058 -2.898,5.352 -5.954,5.123 -3.065,-0.23 -5.355,-2.897 -5.122,-5.959 0.228,-3.057 2.893,-5.35 5.956,-5.121 m -13.053,24.287 c 3.556,0.057 6.39,2.991 6.33,6.548 -0.057,3.559 -2.993,6.392 -6.549,6.334 -3.553,-0.063 -6.392,-2.992 -6.331,-6.553 0.06,-3.555 2.991,-6.389 6.55,-6.329 m 89.875,-58.776 c 0.131,0.029 0.215,0.152 0.188,0.285 -0.026,0.129 -0.153,0.216 -0.287,0.188 -0.13,-0.027 -0.214,-0.154 -0.184,-0.284 0.024,-0.129 0.152,-0.215 0.283,-0.189 m -15.026,18.441 c 0.618,0.089 1.043,0.655 0.956,1.272 -0.088,0.62 -0.654,1.049 -1.275,0.959 -0.616,-0.086 -1.043,-0.658 -0.957,-1.274 0.09,-0.617 0.663,-1.046 1.276,-0.957 m -14.053,19.95 c 1.105,0.091 1.928,1.062 1.838,2.17 -0.096,1.108 -1.068,1.934 -2.177,1.841 -1.104,-0.093 -1.927,-1.063 -1.837,-2.177 0.096,-1.106 1.067,-1.927 2.176,-1.834 M 445.503,440.7 c 1.601,0.042 2.865,1.371 2.822,2.971 -0.04,1.601 -1.367,2.864 -2.97,2.823 -1.599,-0.038 -2.868,-1.369 -2.827,-2.97 0.044,-1.6 1.374,-2.864 2.975,-2.824 m -11.745,22.8 c 2.092,-0.071 3.842,1.568 3.91,3.658 0.067,2.089 -1.57,3.838 -3.659,3.908 -2.09,0.069 -3.834,-1.568 -3.905,-3.656 -0.069,-2.093 1.571,-3.839 3.654,-3.91 m 48.253,-1.075 c 0.131,-0.004 0.243,0.101 0.248,0.236 0.003,0.13 -0.101,0.243 -0.235,0.247 -0.135,0.006 -0.245,-0.102 -0.248,-0.236 -0.004,-0.135 0.101,-0.242 0.235,-0.247 m -10.613,21.228 c 0.622,-0.054 1.167,0.408 1.218,1.027 0.049,0.624 -0.409,1.166 -1.03,1.222 -0.622,0.051 -1.164,-0.412 -1.219,-1.034 -0.054,-0.617 0.409,-1.163 1.031,-1.215 m -51.622,27.695 c -1.597,3.183 -5.472,4.463 -8.652,2.867 -3.176,-1.596 -4.46,-5.472 -2.862,-8.647 1.597,-3.18 5.471,-4.462 8.649,-2.865 3.18,1.594 4.462,5.466 2.865,8.645 m -18.255,-21.592 c -1.607,3.717 -5.92,5.425 -9.634,3.824 -3.715,-1.606 -5.426,-5.917 -3.822,-9.636 1.602,-3.709 5.914,-5.425 9.628,-3.819 3.718,1.603 5.43,5.916 3.828,9.631 m -20.081,-20.79 c -1.556,4.256 -6.267,6.457 -10.53,4.905 -4.26,-1.555 -6.457,-6.265 -4.904,-10.528 1.551,-4.264 6.265,-6.461 10.527,-4.909 4.259,1.555 6.457,6.267 4.907,10.532 m -21.876,-19.85 c -1.442,4.814 -6.511,7.547 -11.325,6.107 -4.812,-1.446 -7.548,-6.515 -6.103,-11.328 1.441,-4.813 6.512,-7.547 11.327,-6.106 4.812,1.444 7.545,6.515 6.101,11.327 m -23.618,-18.763 c -1.272,5.364 -6.653,8.682 -12.017,7.41 -5.367,-1.274 -8.686,-6.653 -7.409,-12.019 1.272,-5.367 6.651,-8.681 12.018,-7.409 5.364,1.272 8.685,6.651 7.408,12.018 m -25.311,-17.544 c -1.043,5.909 -6.682,9.86 -12.595,8.815 -5.91,-1.042 -9.855,-6.681 -8.811,-12.593 1.04,-5.912 6.684,-9.86 12.593,-8.816 5.91,1.044 9.858,6.681 8.813,12.594 m -26.942,-16.191 c -0.754,6.453 -6.593,11.065 -13.043,10.31 -6.448,-0.757 -11.062,-6.594 -10.306,-13.042 0.754,-6.452 6.597,-11.062 13.045,-10.311 6.445,0.757 11.058,6.597 10.304,13.043 m 98.997,136.524 c -0.843,1.911 -3.079,2.776 -4.99,1.937 -1.914,-0.85 -2.781,-3.081 -1.935,-4.995 0.847,-1.913 3.08,-2.779 4.991,-1.932 1.913,0.845 2.778,3.082 1.934,4.99 m -17.419,-19.786 c -0.9,2.413 -3.59,3.641 -6.006,2.738 -2.417,-0.902 -3.647,-3.595 -2.741,-6.01 0.901,-2.415 3.591,-3.641 6.007,-2.739 2.417,0.903 3.642,3.594 2.74,6.011 m -19.155,-19.008 c -0.902,2.932 -4.018,4.575 -6.947,3.668 -2.934,-0.904 -4.574,-4.014 -3.669,-6.943 0.904,-2.933 4.013,-4.576 6.947,-3.672 2.933,0.905 4.572,4.015 3.669,6.947 m -20.859,-18.089 c -0.854,3.454 -4.339,5.563 -7.797,4.715 -3.452,-0.85 -5.566,-4.337 -4.713,-7.794 0.85,-3.453 4.336,-5.563 7.795,-4.715 3.453,0.852 5.562,4.341 4.715,7.794 m -22.525,-17.038 c -0.736,3.979 -4.555,6.61 -8.536,5.871 -3.977,-0.738 -6.608,-4.555 -5.872,-8.541 0.739,-3.976 4.564,-6.604 8.537,-5.868 3.982,0.736 6.61,4.561 5.871,8.538 m -24.126,-15.847 c -0.566,4.496 -4.67,7.688 -9.17,7.124 -4.501,-0.569 -7.692,-4.674 -7.126,-9.173 0.565,-4.502 4.672,-7.692 9.17,-7.129 4.502,0.568 7.693,4.671 7.126,9.178 m -25.669,-14.543 c -0.336,5.014 -4.671,8.807 -9.687,8.471 -5.013,-0.333 -8.803,-4.671 -8.468,-9.684 0.333,-5.013 4.673,-8.806 9.684,-8.468 5.013,0.334 8.805,4.667 8.471,9.681 m 110.014,147.794 c -0.05,0.125 -0.196,0.18 -0.316,0.125 -0.123,-0.059 -0.172,-0.198 -0.12,-0.322 0.052,-0.121 0.199,-0.175 0.317,-0.12 0.121,0.053 0.179,0.197 0.119,0.317 m -14.743,-18.73 c -0.225,0.584 -0.876,0.873 -1.454,0.646 -0.585,-0.219 -0.875,-0.866 -0.65,-1.451 0.224,-0.584 0.874,-0.873 1.457,-0.649 0.578,0.222 0.87,0.875 0.647,1.454 m -16.43,-18.109 c -0.338,1.059 -1.466,1.641 -2.526,1.307 -1.062,-0.336 -1.647,-1.469 -1.31,-2.53 0.337,-1.058 1.47,-1.644 2.525,-1.308 1.063,0.335 1.648,1.469 1.311,2.531 m -18.086,-17.365 c -0.398,1.55 -1.976,2.488 -3.528,2.095 -1.549,-0.398 -2.487,-1.973 -2.094,-3.528 0.396,-1.55 1.976,-2.488 3.526,-2.089 1.553,0.392 2.491,1.967 2.096,3.522 m -19.714,-16.477 c -0.398,2.052 -2.385,3.391 -4.438,2.995 -2.051,-0.397 -3.392,-2.384 -2.995,-4.433 0.399,-2.05 2.387,-3.393 4.437,-2.996 2.05,0.394 3.394,2.381 2.996,4.434 m -21.299,-15.465 c -0.337,2.555 -2.688,4.353 -5.244,4.01 -2.558,-0.346 -4.354,-2.694 -4.011,-5.249 0.344,-2.555 2.694,-4.352 5.25,-4.011 2.558,0.343 4.351,2.693 4.005,5.25 m -22.818,-14.318 c -0.23,3.058 -2.898,5.352 -5.957,5.121 -3.059,-0.23 -5.352,-2.899 -5.123,-5.956 0.229,-3.063 2.896,-5.354 5.957,-5.122 3.058,0.23 5.352,2.894 5.123,5.957 m -24.289,-13.054 c -0.055,3.557 -2.989,6.391 -6.546,6.332 -3.559,-0.06 -6.393,-2.994 -6.334,-6.55 0.062,-3.554 2.992,-6.392 6.553,-6.331 3.555,0.06 6.387,2.991 6.327,6.549 m 58.777,89.876 c -0.028,0.131 -0.152,0.214 -0.285,0.188 -0.129,-0.026 -0.217,-0.153 -0.187,-0.286 0.027,-0.131 0.154,-0.216 0.284,-0.186 0.128,0.026 0.215,0.152 0.188,0.284 m -18.441,-15.026 c -0.087,0.617 -0.656,1.043 -1.272,0.956 -0.62,-0.088 -1.048,-0.654 -0.958,-1.275 0.086,-0.617 0.657,-1.044 1.273,-0.957 0.618,0.09 1.047,0.663 0.957,1.276 m -19.95,-14.053 c -0.091,1.106 -1.062,1.928 -2.17,1.837 -1.108,-0.095 -1.934,-1.067 -1.841,-2.177 0.094,-1.104 1.063,-1.926 2.178,-1.835 1.105,0.094 1.927,1.066 1.833,2.175 m -21.402,-12.957 c -0.044,1.599 -1.372,2.865 -2.973,2.822 -1.601,-0.041 -2.863,-1.369 -2.823,-2.97 0.038,-1.601 1.369,-2.868 2.97,-2.827 1.601,0.043 2.864,1.374 2.826,2.975 m -22.802,-11.745 c 0.072,2.091 -1.567,3.84 -3.657,3.909 -2.089,0.068 -3.839,-1.571 -3.909,-3.66 -0.068,-2.089 1.569,-3.834 3.656,-3.905 2.093,-0.067 3.839,1.572 3.91,3.656 m 1.076,48.251 c 0.003,0.132 -0.102,0.243 -0.237,0.248 -0.129,0.003 -0.242,-0.1 -0.246,-0.233 -0.006,-0.136 0.102,-0.246 0.236,-0.249 0.134,-0.004 0.242,0.101 0.247,0.234 m -21.228,-10.611 c 0.052,0.621 -0.408,1.167 -1.028,1.217 -0.623,0.05 -1.166,-0.408 -1.222,-1.031 -0.051,-0.621 0.412,-1.164 1.035,-1.217 0.616,-0.054 1.163,0.409 1.215,1.031 m -27.694,-51.623 c -3.184,-1.597 -4.465,-5.473 -2.868,-8.651 1.597,-3.176 5.472,-4.46 8.646,-2.862 3.182,1.597 4.463,5.47 2.865,8.648 -1.593,3.181 -5.465,4.461 -8.643,2.865 m 21.591,-18.255 c -3.716,-1.607 -5.425,-5.921 -3.824,-9.635 1.606,-3.714 5.917,-5.425 9.636,-3.821 3.708,1.602 5.425,5.913 3.819,9.628 -1.603,3.718 -5.916,5.43 -9.631,3.828 m 20.791,-20.081 c -4.256,-1.556 -6.458,-6.267 -4.906,-10.53 1.555,-4.26 6.264,-6.457 10.527,-4.905 4.265,1.552 6.461,6.265 4.91,10.528 -1.555,4.258 -6.268,6.457 -10.531,4.907 m 19.85,-21.875 c -4.815,-1.444 -7.548,-6.512 -6.108,-11.326 1.445,-4.812 6.516,-7.547 11.328,-6.104 4.812,1.443 7.547,6.514 6.106,11.327 -1.444,4.814 -6.515,7.546 -11.326,6.103 m 18.762,-23.618 c -5.364,-1.274 -8.683,-6.655 -7.41,-12.018 1.275,-5.368 6.652,-8.685 12.019,-7.41 5.366,1.273 8.681,6.653 7.408,12.018 -1.272,5.365 -6.649,8.686 -12.017,7.41 m 17.544,-25.313 c -5.91,-1.043 -9.86,-6.681 -8.815,-12.594 1.042,-5.911 6.682,-9.855 12.593,-8.812 5.912,1.041 9.861,6.684 8.817,12.593 -1.044,5.911 -6.682,9.86 -12.595,8.813 m 16.191,-26.941 c -6.453,-0.754 -11.066,-6.594 -10.311,-13.042 0.758,-6.448 6.595,-11.063 13.043,-10.308 6.452,0.755 11.062,6.598 10.311,13.046 -0.757,6.445 -6.597,11.058 -13.043,10.304 m -136.524,98.997 c -1.911,-0.844 -2.776,-3.079 -1.936,-4.989 0.849,-1.915 3.08,-2.781 4.994,-1.936 1.912,0.847 2.78,3.08 1.933,4.991 -0.846,1.913 -3.083,2.778 -4.991,1.934 m 19.785,-17.419 c -2.412,-0.899 -3.64,-3.591 -2.737,-6.007 0.902,-2.417 3.595,-3.645 6.01,-2.74 2.414,0.9 3.641,3.591 2.74,6.006 -0.904,2.418 -3.596,3.644 -6.013,2.741 m 19.009,-19.154 c -2.932,-0.904 -4.575,-4.019 -3.668,-6.947 0.904,-2.934 4.014,-4.575 6.944,-3.671 2.932,0.906 4.575,4.015 3.671,6.949 -0.905,2.932 -4.014,4.571 -6.947,3.669 m 18.089,-20.861 c -3.454,-0.852 -5.563,-4.338 -4.715,-7.796 0.85,-3.453 4.337,-5.566 7.793,-4.713 3.454,0.849 5.564,4.337 4.716,7.794 -0.852,3.454 -4.341,5.564 -7.794,4.715 m 17.038,-22.523 c -3.979,-0.738 -6.609,-4.557 -5.87,-8.536 0.737,-3.978 4.554,-6.61 8.54,-5.874 3.975,0.74 6.604,4.564 5.868,8.538 -0.737,3.982 -4.561,6.609 -8.538,5.872 m 15.848,-24.128 c -4.497,-0.565 -7.689,-4.669 -7.125,-9.17 0.569,-4.501 4.674,-7.69 9.174,-7.126 4.502,0.566 7.691,4.673 7.128,9.172 -0.568,4.501 -4.671,7.691 -9.177,7.124 m 14.541,-25.669 c -5.013,-0.334 -8.806,-4.671 -8.47,-9.687 0.334,-5.011 4.671,-8.801 9.683,-8.466 5.014,0.331 8.806,4.671 8.468,9.682 -0.333,5.014 -4.666,8.807 -9.681,8.471 M 88.63,428.395 c -0.125,-0.051 -0.179,-0.197 -0.125,-0.317 0.058,-0.122 0.199,-0.172 0.322,-0.121 0.121,0.054 0.174,0.199 0.12,0.318 -0.053,0.121 -0.197,0.179 -0.317,0.12 m 18.73,-14.744 c -0.583,-0.224 -0.872,-0.876 -0.646,-1.454 0.219,-0.585 0.866,-0.876 1.451,-0.651 0.584,0.226 0.873,0.873 0.648,1.456 -0.222,0.58 -0.874,0.871 -1.453,0.649 m 18.11,-16.43 c -1.061,-0.337 -1.642,-1.467 -1.308,-2.526 0.336,-1.061 1.469,-1.646 2.53,-1.31 1.058,0.337 1.644,1.469 1.308,2.525 -0.336,1.063 -1.469,1.648 -2.53,1.311 m 17.364,-18.087 c -1.55,-0.397 -2.488,-1.975 -2.094,-3.527 0.397,-1.548 1.972,-2.488 3.528,-2.093 1.548,0.394 2.487,1.974 2.088,3.525 -0.393,1.554 -1.967,2.491 -3.522,2.095 m 16.477,-19.714 c -2.052,-0.397 -3.391,-2.384 -2.995,-4.438 0.397,-2.049 2.385,-3.391 4.433,-2.995 2.05,0.4 3.393,2.388 2.995,4.437 -0.393,2.05 -2.381,3.394 -4.433,2.996 m 15.465,-21.298 c -2.554,-0.338 -4.353,-2.688 -4.009,-5.244 0.345,-2.558 2.693,-4.355 5.248,-4.01 2.555,0.344 4.352,2.694 4.01,5.248 -0.343,2.559 -2.692,4.352 -5.249,4.006 m 14.317,-22.818 c -3.057,-0.231 -5.351,-2.899 -5.12,-5.957 0.23,-3.06 2.898,-5.352 5.956,-5.123 3.063,0.229 5.354,2.896 5.122,5.958 -0.23,3.057 -2.895,5.35 -5.958,5.122 m 13.054,-24.288 c -3.556,-0.056 -6.391,-2.991 -6.331,-6.547 0.059,-3.559 2.994,-6.393 6.55,-6.333 3.554,0.061 6.392,2.991 6.331,6.552 -0.06,3.554 -2.992,6.388 -6.55,6.328 m -89.875,58.776 c -0.13,-0.028 -0.214,-0.151 -0.188,-0.285 0.026,-0.129 0.153,-0.216 0.286,-0.188 0.131,0.028 0.215,0.155 0.186,0.284 -0.025,0.129 -0.152,0.215 -0.284,0.189 m 15.026,-18.441 c -0.618,-0.088 -1.043,-0.656 -0.956,-1.272 0.087,-0.619 0.654,-1.049 1.275,-0.959 0.616,0.087 1.044,0.658 0.957,1.275 -0.09,0.617 -0.663,1.045 -1.276,0.956 m 14.053,-19.949 c -1.105,-0.092 -1.928,-1.063 -1.837,-2.171 0.095,-1.107 1.067,-1.935 2.176,-1.84 1.105,0.093 1.927,1.062 1.836,2.176 -0.095,1.107 -1.066,1.928 -2.175,1.835 m 12.958,-21.404 c -1.6,-0.044 -2.866,-1.371 -2.822,-2.972 0.039,-1.6 1.367,-2.863 2.969,-2.823 1.6,0.038 2.868,1.368 2.827,2.971 -0.043,1.599 -1.374,2.863 -2.974,2.824 m 11.744,-22.802 c -2.091,0.073 -3.841,-1.567 -3.909,-3.657 -0.068,-2.088 1.571,-3.839 3.66,-3.908 2.088,-0.068 3.834,1.569 3.904,3.656 0.069,2.092 -1.57,3.84 -3.655,3.909 m -48.251,1.075 c -0.133,0.003 -0.244,-0.1 -0.248,-0.235 -0.003,-0.13 0.1,-0.242 0.233,-0.247 0.136,-0.005 0.247,0.103 0.249,0.236 0.004,0.135 -0.101,0.243 -0.234,0.246 m 10.611,-21.226 c -0.621,0.053 -1.166,-0.409 -1.216,-1.027 -0.051,-0.625 0.407,-1.167 1.03,-1.222 0.621,-0.052 1.164,0.411 1.217,1.033 0.055,0.617 -0.408,1.163 -1.031,1.216 m 51.622,-27.695 c 1.598,-3.183 5.473,-4.464 8.652,-2.869 3.175,1.597 4.459,5.474 2.862,8.647 -1.598,3.182 -5.471,4.463 -8.649,2.865 -3.18,-1.593 -4.461,-5.466 -2.865,-8.643 m 18.256,21.59 c 1.606,-3.715 5.919,-5.424 9.634,-3.823 3.714,1.608 5.426,5.917 3.821,9.636 -1.601,3.708 -5.913,5.426 -9.628,3.82 -3.718,-1.603 -5.43,-5.916 -3.827,-9.633 m 20.081,20.791 c 1.555,-4.255 6.267,-6.457 10.529,-4.904 4.262,1.554 6.456,6.264 4.905,10.527 -1.551,4.264 -6.265,6.46 -10.527,4.91 -4.259,-1.555 -6.458,-6.269 -4.907,-10.533 m 21.874,19.851 c 1.443,-4.814 6.513,-7.547 11.326,-6.107 4.813,1.445 7.548,6.515 6.105,11.328 -1.443,4.811 -6.515,7.546 -11.327,6.106 -4.815,-1.444 -7.547,-6.515 -6.104,-11.327 m 23.619,18.762 c 1.274,-5.364 6.653,-8.682 12.017,-7.41 5.368,1.275 8.686,6.652 7.41,12.019 -1.273,5.366 -6.653,8.682 -12.019,7.408 -5.363,-1.271 -8.684,-6.649 -7.408,-12.017 m 25.312,17.544 c 1.044,-5.908 6.682,-9.86 12.594,-8.814 5.911,1.041 9.854,6.681 8.813,12.593 -1.041,5.911 -6.686,9.86 -12.593,8.815 -5.912,-1.043 -9.861,-6.681 -8.814,-12.594 m 26.941,16.191 c 0.754,-6.453 6.595,-11.065 13.043,-10.31 6.447,0.757 11.062,6.593 10.308,13.043 -0.755,6.452 -6.598,11.061 -13.046,10.31 -6.447,-0.757 -11.059,-6.597 -10.305,-13.043 M 217.121,197.555 c 0.844,-1.911 3.079,-2.776 4.99,-1.936 1.914,0.849 2.78,3.08 1.935,4.994 -0.846,1.912 -3.08,2.78 -4.991,1.933 -1.912,-0.845 -2.778,-3.083 -1.934,-4.991 m 17.418,19.787 c 0.9,-2.413 3.592,-3.643 6.009,-2.738 2.415,0.901 3.645,3.594 2.74,6.009 -0.9,2.416 -3.591,3.64 -6.006,2.741 -2.418,-0.905 -3.645,-3.596 -2.743,-6.012 m 19.155,19.008 c 0.906,-2.934 4.019,-4.575 6.947,-3.668 2.933,0.903 4.576,4.014 3.671,6.942 -0.907,2.934 -4.015,4.577 -6.948,3.672 -2.932,-0.904 -4.572,-4.014 -3.67,-6.946 m 20.862,18.088 c 0.852,-3.454 4.338,-5.564 7.795,-4.714 3.454,0.849 5.566,4.336 4.713,7.793 -0.849,3.454 -4.337,5.564 -7.794,4.716 -3.455,-0.853 -5.563,-4.341 -4.714,-7.795 m 22.522,17.038 c 0.739,-3.978 4.557,-6.609 8.536,-5.871 3.978,0.738 6.612,4.556 5.875,8.542 -0.742,3.975 -4.564,6.603 -8.539,5.867 -3.983,-0.736 -6.608,-4.561 -5.872,-8.538 m 24.128,15.847 c 0.564,-4.495 4.67,-7.688 9.171,-7.124 4.5,0.571 7.69,4.673 7.127,9.174 -0.567,4.502 -4.673,7.691 -9.173,7.128 -4.501,-0.568 -7.692,-4.671 -7.125,-9.178 m 25.67,14.542 c 0.333,-5.013 4.671,-8.805 9.686,-8.47 5.012,0.334 8.801,4.671 8.467,9.683 -0.331,5.014 -4.671,8.807 -9.682,8.469 -5.015,-0.333 -8.809,-4.666 -8.471,-9.682 M 236.859,154.072 c 0.051,-0.125 0.197,-0.179 0.317,-0.125 0.122,0.059 0.173,0.199 0.121,0.322 -0.053,0.122 -0.198,0.174 -0.318,0.12 -0.121,-0.053 -0.178,-0.197 -0.12,-0.317 m 14.744,18.731 c 0.224,-0.584 0.876,-0.873 1.453,-0.647 0.587,0.218 0.878,0.867 0.652,1.45 -0.227,0.585 -0.873,0.874 -1.456,0.65 -0.579,-0.221 -0.87,-0.875 -0.649,-1.453 m 16.432,18.109 c 0.335,-1.059 1.465,-1.642 2.524,-1.308 1.061,0.335 1.647,1.47 1.31,2.531 -0.337,1.057 -1.469,1.643 -2.524,1.308 -1.064,-0.336 -1.648,-1.469 -1.31,-2.531 m 18.086,17.365 c 0.395,-1.551 1.974,-2.489 3.525,-2.095 1.55,0.396 2.489,1.972 2.095,3.528 -0.395,1.55 -1.975,2.487 -3.526,2.088 -1.553,-0.391 -2.491,-1.967 -2.094,-3.521 m 19.714,16.476 c 0.395,-2.051 2.383,-3.39 4.436,-2.994 2.051,0.397 3.394,2.384 2.996,4.432 -0.4,2.051 -2.387,3.393 -4.436,2.997 -2.05,-0.396 -3.394,-2.381 -2.996,-4.435 m 21.298,15.466 c 0.337,-2.555 2.687,-4.355 5.244,-4.011 2.557,0.346 4.353,2.693 4.009,5.249 -0.344,2.557 -2.694,4.353 -5.248,4.011 -2.558,-0.342 -4.352,-2.693 -4.005,-5.249 m 22.817,14.318 c 0.231,-3.059 2.899,-5.351 5.959,-5.122 3.057,0.231 5.352,2.899 5.122,5.956 -0.23,3.064 -2.897,5.355 -5.96,5.123 -3.055,-0.23 -5.348,-2.895 -5.121,-5.957 m 24.287,13.054 c 0.058,-3.559 2.992,-6.391 6.549,-6.332 3.558,0.058 6.392,2.993 6.333,6.55 -0.062,3.553 -2.99,6.391 -6.553,6.33 -3.554,-0.06 -6.387,-2.991 -6.329,-6.548 m -58.776,-89.876 c 0.029,-0.131 0.153,-0.215 0.287,-0.188 0.128,0.025 0.215,0.153 0.188,0.286 -0.028,0.131 -0.156,0.215 -0.286,0.186 -0.129,-0.026 -0.213,-0.153 -0.189,-0.284 m 18.441,15.025 c 0.09,-0.616 0.657,-1.043 1.273,-0.955 0.619,0.088 1.049,0.653 0.96,1.274 -0.087,0.616 -0.659,1.044 -1.276,0.957 -0.616,-0.09 -1.045,-0.662 -0.957,-1.276 m 19.952,14.054 c 0.09,-1.106 1.062,-1.928 2.169,-1.838 1.107,0.096 1.935,1.066 1.84,2.176 -0.092,1.105 -1.063,1.928 -2.175,1.836 -1.107,-0.094 -1.927,-1.066 -1.834,-2.174 m 21.403,12.957 c 0.043,-1.6 1.372,-2.865 2.972,-2.822 1.6,0.04 2.863,1.369 2.822,2.97 -0.038,1.601 -1.369,2.869 -2.969,2.826 -1.601,-0.042 -2.865,-1.374 -2.825,-2.974 m 22.801,11.744 c -0.072,-2.091 1.567,-3.84 3.657,-3.909 2.09,-0.066 3.839,1.572 3.908,3.66 0.067,2.088 -1.568,3.833 -3.656,3.904 -2.093,0.069 -3.839,-1.57 -3.909,-3.655 m -1.077,-48.251 c -0.002,-0.132 0.103,-0.242 0.237,-0.248 0.131,-0.003 0.242,0.101 0.248,0.233 0.005,0.136 -0.104,0.247 -0.237,0.25 -0.134,0.002 -0.243,-0.101 -0.248,-0.235 m 22.444,11.643 c 0.623,-0.053 1.086,-0.596 1.034,-1.217 -0.056,-0.623 -0.598,-1.081 -1.221,-1.031 -0.62,0.049 -1.081,0.595 -1.028,1.215 0.052,0.624 0.598,1.086 1.215,1.033"
                   style="fill:url(#linearGradient6133);stroke:none"
                   id="path6135"
                   inkscape:connector-curvature="0" /></g></g></g></g><path
           d="m 445.904,245.478 c 3.184,1.597 4.464,5.472 2.867,8.651 -1.595,3.177 -5.471,4.461 -8.646,2.863 -3.18,-1.597 -4.461,-5.471 -2.865,-8.649 1.594,-3.181 5.467,-4.46 8.644,-2.865 z m -21.591,18.254 c 3.717,1.608 5.425,5.922 3.824,9.635 -1.607,3.715 -5.916,5.426 -9.635,3.822 -3.709,-1.602 -5.426,-5.913 -3.819,-9.628 1.602,-3.718 5.916,-5.43 9.63,-3.829 z m -20.79,20.082 c 4.256,1.556 6.456,6.268 4.905,10.53 -1.555,4.26 -6.265,6.457 -10.528,4.904 -4.265,-1.551 -6.461,-6.265 -4.908,-10.526 1.554,-4.258 6.266,-6.458 10.531,-4.908 z m -19.85,21.875 c 4.815,1.444 7.547,6.512 6.107,11.327 -1.445,4.811 -6.515,7.546 -11.328,6.104 -4.812,-1.442 -7.546,-6.515 -6.106,-11.328 1.444,-4.813 6.515,-7.547 11.327,-6.103 z m -18.762,23.62 c 5.362,1.272 8.682,6.652 7.408,12.016 -1.274,5.368 -6.652,8.686 -12.018,7.41 -5.367,-1.273 -8.681,-6.653 -7.409,-12.018 1.272,-5.364 6.651,-8.685 12.019,-7.408 z m -17.545,25.311 c 5.909,1.043 9.861,6.682 8.816,12.594 -1.043,5.911 -6.683,9.855 -12.593,8.812 -5.912,-1.041 -9.861,-6.684 -8.818,-12.592 1.044,-5.912 6.683,-9.86 12.595,-8.814 z m -16.19,26.942 c 6.453,0.753 11.064,6.593 10.309,13.042 -0.756,6.448 -6.593,11.062 -13.043,10.307 -6.451,-0.755 -11.061,-6.598 -10.309,-13.046 0.756,-6.445 6.595,-11.057 13.043,-10.303 z m 136.523,-98.999 c 1.911,0.845 2.777,3.081 1.938,4.991 -0.851,1.915 -3.081,2.781 -4.995,1.935 -1.914,-0.846 -2.781,-3.079 -1.933,-4.99 0.845,-1.914 3.082,-2.778 4.99,-1.936 z m -19.786,17.419 c 2.413,0.901 3.641,3.593 2.738,6.008 -0.902,2.416 -3.595,3.646 -6.009,2.74 -2.416,-0.9 -3.641,-3.59 -2.741,-6.005 0.905,-2.419 3.595,-3.645 6.012,-2.743 z m -19.008,19.156 c 2.933,0.904 4.575,4.018 3.667,6.947 -0.902,2.933 -4.012,4.575 -6.942,3.67 -2.933,-0.906 -4.576,-4.014 -3.671,-6.949 0.903,-2.931 4.013,-4.571 6.946,-3.668 z m -18.089,20.86 c 3.455,0.853 5.564,4.338 4.714,7.796 -0.849,3.453 -4.336,5.566 -7.793,4.713 -3.453,-0.849 -5.563,-4.337 -4.716,-7.794 0.853,-3.454 4.341,-5.564 7.795,-4.715 z m -17.038,22.523 c 3.98,0.738 6.611,4.557 5.871,8.537 -0.739,3.977 -4.555,6.609 -8.541,5.874 -3.975,-0.741 -6.603,-4.565 -5.869,-8.538 0.739,-3.983 4.563,-6.61 8.539,-5.873 z m -15.847,24.128 c 4.497,0.565 7.687,4.669 7.125,9.17 -0.571,4.501 -4.675,7.692 -9.174,7.127 -4.501,-0.567 -7.692,-4.674 -7.13,-9.173 0.57,-4.501 4.673,-7.692 9.179,-7.124 z m -14.542,25.67 c 5.013,0.334 8.806,4.67 8.47,9.685 -0.334,5.013 -4.671,8.803 -9.684,8.468 -5.012,-0.331 -8.806,-4.672 -8.468,-9.682 0.334,-5.015 4.666,-8.808 9.682,-8.471 z M 511.183,302.303 c 0.124,0.051 0.179,0.196 0.124,0.316 -0.059,0.123 -0.199,0.173 -0.321,0.121 -0.123,-0.054 -0.175,-0.198 -0.122,-0.318 0.054,-0.12 0.199,-0.179 0.319,-0.119 z m -18.73,14.743 c 0.583,0.225 0.872,0.876 0.646,1.454 -0.22,0.585 -0.868,0.876 -1.451,0.65 -0.585,-0.225 -0.875,-0.873 -0.648,-1.456 0.221,-0.578 0.873,-0.87 1.453,-0.648 z m -18.111,16.431 c 1.06,0.336 1.642,1.466 1.308,2.525 -0.335,1.061 -1.469,1.646 -2.53,1.311 -1.057,-0.337 -1.643,-1.47 -1.308,-2.526 0.335,-1.062 1.469,-1.647 2.53,-1.31 z m -17.363,18.086 c 1.549,0.397 2.487,1.975 2.093,3.527 -0.397,1.548 -1.971,2.488 -3.528,2.094 -1.549,-0.395 -2.486,-1.975 -2.088,-3.526 0.393,-1.553 1.968,-2.491 3.523,-2.095 z M 440.5,371.277 c 2.054,0.397 3.392,2.384 2.996,4.438 -0.397,2.05 -2.385,3.392 -4.433,2.995 -2.049,-0.399 -3.394,-2.388 -2.996,-4.437 0.394,-2.05 2.382,-3.394 4.433,-2.996 z m -15.463,21.298 c 2.554,0.338 4.353,2.689 4.009,5.244 -0.345,2.558 -2.693,4.354 -5.248,4.01 -2.556,-0.343 -4.353,-2.693 -4.011,-5.249 0.343,-2.558 2.692,-4.351 5.25,-4.005 z m -14.319,22.819 c 3.059,0.23 5.352,2.898 5.12,5.957 -0.229,3.058 -2.898,5.352 -5.954,5.123 -3.065,-0.23 -5.355,-2.897 -5.122,-5.959 0.228,-3.057 2.893,-5.35 5.956,-5.121 z m -13.053,24.287 c 3.556,0.057 6.39,2.991 6.33,6.548 -0.057,3.559 -2.993,6.392 -6.549,6.334 -3.553,-0.063 -6.392,-2.992 -6.331,-6.553 0.06,-3.555 2.991,-6.389 6.55,-6.329 z m 89.875,-58.776 c 0.131,0.029 0.215,0.152 0.188,0.285 -0.026,0.129 -0.153,0.216 -0.287,0.188 -0.13,-0.027 -0.214,-0.154 -0.184,-0.284 0.024,-0.129 0.152,-0.215 0.283,-0.189 z m -15.026,18.441 c 0.618,0.089 1.043,0.655 0.956,1.272 -0.088,0.62 -0.654,1.049 -1.275,0.959 -0.616,-0.086 -1.043,-0.658 -0.957,-1.274 0.09,-0.617 0.663,-1.046 1.276,-0.957 z m -14.053,19.95 c 1.105,0.091 1.928,1.062 1.838,2.17 -0.096,1.108 -1.068,1.934 -2.177,1.841 -1.104,-0.093 -1.927,-1.063 -1.837,-2.177 0.096,-1.106 1.067,-1.927 2.176,-1.834 z M 445.503,440.7 c 1.601,0.042 2.865,1.371 2.822,2.971 -0.04,1.601 -1.367,2.864 -2.97,2.823 -1.599,-0.038 -2.868,-1.369 -2.827,-2.97 0.044,-1.6 1.374,-2.864 2.975,-2.824 z m -11.745,22.8 c 2.092,-0.071 3.842,1.568 3.91,3.658 0.067,2.089 -1.57,3.838 -3.659,3.908 -2.09,0.069 -3.834,-1.568 -3.905,-3.656 -0.069,-2.093 1.571,-3.839 3.654,-3.91 z m 48.253,-1.075 c 0.131,-0.004 0.243,0.101 0.248,0.236 0.003,0.13 -0.101,0.243 -0.235,0.247 -0.135,0.006 -0.245,-0.102 -0.248,-0.236 -0.004,-0.135 0.101,-0.242 0.235,-0.247 z m -10.613,21.228 c 0.622,-0.054 1.167,0.408 1.218,1.027 0.049,0.624 -0.409,1.166 -1.03,1.222 -0.622,0.051 -1.164,-0.412 -1.219,-1.034 -0.054,-0.617 0.409,-1.163 1.031,-1.215 z m -51.622,27.695 c -1.597,3.183 -5.472,4.463 -8.652,2.867 -3.176,-1.596 -4.46,-5.472 -2.862,-8.647 1.597,-3.18 5.471,-4.462 8.649,-2.865 3.18,1.594 4.462,5.466 2.865,8.645 z m -18.255,-21.592 c -1.607,3.717 -5.92,5.425 -9.634,3.824 -3.715,-1.606 -5.426,-5.917 -3.822,-9.636 1.602,-3.709 5.914,-5.425 9.628,-3.819 3.718,1.603 5.43,5.916 3.828,9.631 z m -20.081,-20.79 c -1.556,4.256 -6.267,6.457 -10.53,4.905 -4.26,-1.555 -6.457,-6.265 -4.904,-10.528 1.551,-4.264 6.265,-6.461 10.527,-4.909 4.259,1.555 6.457,6.267 4.907,10.532 z m -21.876,-19.85 c -1.442,4.814 -6.511,7.547 -11.325,6.107 -4.812,-1.446 -7.548,-6.515 -6.103,-11.328 1.441,-4.813 6.512,-7.547 11.327,-6.106 4.812,1.444 7.545,6.515 6.101,11.327 z m -23.618,-18.763 c -1.272,5.364 -6.653,8.682 -12.017,7.41 -5.367,-1.274 -8.686,-6.653 -7.409,-12.019 1.272,-5.367 6.651,-8.681 12.018,-7.409 5.364,1.272 8.685,6.651 7.408,12.018 z m -25.311,-17.544 c -1.043,5.909 -6.682,9.86 -12.595,8.815 -5.91,-1.042 -9.855,-6.681 -8.811,-12.593 1.04,-5.912 6.684,-9.86 12.593,-8.816 5.91,1.044 9.858,6.681 8.813,12.594 z m -26.942,-16.191 c -0.754,6.453 -6.593,11.065 -13.043,10.31 -6.448,-0.757 -11.062,-6.594 -10.306,-13.042 0.754,-6.452 6.597,-11.062 13.045,-10.311 6.445,0.757 11.058,6.597 10.304,13.043 z m 98.997,136.524 c -0.843,1.911 -3.079,2.776 -4.99,1.937 -1.914,-0.85 -2.781,-3.081 -1.935,-4.995 0.847,-1.913 3.08,-2.779 4.991,-1.932 1.913,0.845 2.778,3.082 1.934,4.99 z m -17.419,-19.786 c -0.9,2.413 -3.59,3.641 -6.006,2.738 -2.417,-0.902 -3.647,-3.595 -2.741,-6.01 0.901,-2.415 3.591,-3.641 6.007,-2.739 2.417,0.903 3.642,3.594 2.74,6.011 z m -19.155,-19.008 c -0.902,2.932 -4.018,4.575 -6.947,3.668 -2.934,-0.904 -4.574,-4.014 -3.669,-6.943 0.904,-2.933 4.013,-4.576 6.947,-3.672 2.933,0.905 4.572,4.015 3.669,6.947 z m -20.859,-18.089 c -0.854,3.454 -4.339,5.563 -7.797,4.715 -3.452,-0.85 -5.566,-4.337 -4.713,-7.794 0.85,-3.453 4.336,-5.563 7.795,-4.715 3.453,0.852 5.562,4.341 4.715,7.794 z m -22.525,-17.038 c -0.736,3.979 -4.555,6.61 -8.536,5.871 -3.977,-0.738 -6.608,-4.555 -5.872,-8.541 0.739,-3.976 4.564,-6.604 8.537,-5.868 3.982,0.736 6.61,4.561 5.871,8.538 z m -24.126,-15.847 c -0.566,4.496 -4.67,7.688 -9.17,7.124 -4.501,-0.569 -7.692,-4.674 -7.126,-9.173 0.565,-4.502 4.672,-7.692 9.17,-7.129 4.502,0.568 7.693,4.671 7.126,9.178 z m -25.669,-14.543 c -0.336,5.014 -4.671,8.807 -9.687,8.471 -5.013,-0.333 -8.803,-4.671 -8.468,-9.684 0.333,-5.013 4.673,-8.806 9.684,-8.468 5.013,0.334 8.805,4.667 8.471,9.681 z m 110.014,147.794 c -0.05,0.125 -0.196,0.18 -0.316,0.125 -0.123,-0.059 -0.172,-0.198 -0.12,-0.322 0.052,-0.121 0.199,-0.175 0.317,-0.12 0.121,0.053 0.179,0.197 0.119,0.317 z m -14.743,-18.73 c -0.225,0.584 -0.876,0.873 -1.454,0.646 -0.585,-0.219 -0.875,-0.866 -0.65,-1.451 0.224,-0.584 0.874,-0.873 1.457,-0.649 0.578,0.222 0.87,0.875 0.647,1.454 z m -16.43,-18.109 c -0.338,1.059 -1.466,1.641 -2.526,1.307 -1.062,-0.336 -1.647,-1.469 -1.31,-2.53 0.337,-1.058 1.47,-1.644 2.525,-1.308 1.063,0.335 1.648,1.469 1.311,2.531 z m -18.086,-17.365 c -0.398,1.55 -1.976,2.488 -3.528,2.095 -1.549,-0.398 -2.487,-1.973 -2.094,-3.528 0.396,-1.55 1.976,-2.488 3.526,-2.089 1.553,0.392 2.491,1.967 2.096,3.522 z m -19.714,-16.477 c -0.398,2.052 -2.385,3.391 -4.438,2.995 -2.051,-0.397 -3.392,-2.384 -2.995,-4.433 0.399,-2.05 2.387,-3.393 4.437,-2.996 2.05,0.394 3.394,2.381 2.996,4.434 z m -21.299,-15.465 c -0.337,2.555 -2.688,4.353 -5.244,4.01 -2.558,-0.346 -4.354,-2.694 -4.011,-5.249 0.344,-2.555 2.694,-4.352 5.25,-4.011 2.558,0.343 4.351,2.693 4.005,5.25 z m -22.818,-14.318 c -0.23,3.058 -2.898,5.352 -5.957,5.121 -3.059,-0.23 -5.352,-2.899 -5.123,-5.956 0.229,-3.063 2.896,-5.354 5.957,-5.122 3.058,0.23 5.352,2.894 5.123,5.957 z m -24.289,-13.054 c -0.055,3.557 -2.989,6.391 -6.546,6.332 -3.559,-0.06 -6.393,-2.994 -6.334,-6.55 0.062,-3.554 2.992,-6.392 6.553,-6.331 3.555,0.06 6.387,2.991 6.327,6.549 z m 58.777,89.876 c -0.028,0.131 -0.152,0.214 -0.285,0.188 -0.129,-0.026 -0.217,-0.153 -0.187,-0.286 0.027,-0.131 0.154,-0.216 0.284,-0.186 0.128,0.026 0.215,0.152 0.188,0.284 z m -18.441,-15.026 c -0.087,0.617 -0.656,1.043 -1.272,0.956 -0.62,-0.088 -1.048,-0.654 -0.958,-1.275 0.086,-0.617 0.657,-1.044 1.273,-0.957 0.618,0.09 1.047,0.663 0.957,1.276 z m -19.95,-14.053 c -0.091,1.106 -1.062,1.928 -2.17,1.837 -1.108,-0.095 -1.934,-1.067 -1.841,-2.177 0.094,-1.104 1.063,-1.926 2.178,-1.835 1.105,0.094 1.927,1.066 1.833,2.175 z m -21.402,-12.957 c -0.044,1.599 -1.372,2.865 -2.973,2.822 -1.601,-0.041 -2.863,-1.369 -2.823,-2.97 0.038,-1.601 1.369,-2.868 2.97,-2.827 1.601,0.043 2.864,1.374 2.826,2.975 z m -22.802,-11.745 c 0.072,2.091 -1.567,3.84 -3.657,3.909 -2.089,0.068 -3.839,-1.571 -3.909,-3.66 -0.068,-2.089 1.569,-3.834 3.656,-3.905 2.093,-0.067 3.839,1.572 3.91,3.656 z m 1.076,48.251 c 0.003,0.132 -0.102,0.243 -0.237,0.248 -0.129,0.003 -0.242,-0.1 -0.246,-0.233 -0.006,-0.136 0.102,-0.246 0.236,-0.249 0.134,-0.004 0.242,0.101 0.247,0.234 z m -21.228,-10.611 c 0.052,0.621 -0.408,1.167 -1.028,1.217 -0.623,0.05 -1.166,-0.408 -1.222,-1.031 -0.051,-0.621 0.412,-1.164 1.035,-1.217 0.616,-0.054 1.163,0.409 1.215,1.031 z m -27.694,-51.623 c -3.184,-1.597 -4.465,-5.473 -2.868,-8.651 1.597,-3.176 5.472,-4.46 8.646,-2.862 3.182,1.597 4.463,5.47 2.865,8.648 -1.593,3.181 -5.465,4.461 -8.643,2.865 z m 21.591,-18.255 c -3.716,-1.607 -5.425,-5.921 -3.824,-9.635 1.606,-3.714 5.917,-5.425 9.636,-3.821 3.708,1.602 5.425,5.913 3.819,9.628 -1.603,3.718 -5.916,5.43 -9.631,3.828 z m 20.791,-20.081 c -4.256,-1.556 -6.458,-6.267 -4.906,-10.53 1.555,-4.26 6.264,-6.457 10.527,-4.905 4.265,1.552 6.461,6.265 4.91,10.528 -1.555,4.258 -6.268,6.457 -10.531,4.907 z m 19.85,-21.875 c -4.815,-1.444 -7.548,-6.512 -6.108,-11.326 1.445,-4.812 6.516,-7.547 11.328,-6.104 4.812,1.443 7.547,6.514 6.106,11.327 -1.444,4.814 -6.515,7.546 -11.326,6.103 z m 18.762,-23.618 c -5.364,-1.274 -8.683,-6.655 -7.41,-12.018 1.275,-5.368 6.652,-8.685 12.019,-7.41 5.366,1.273 8.681,6.653 7.408,12.018 -1.272,5.365 -6.649,8.686 -12.017,7.41 z m 17.544,-25.313 c -5.91,-1.043 -9.86,-6.681 -8.815,-12.594 1.042,-5.911 6.682,-9.855 12.593,-8.812 5.912,1.041 9.861,6.684 8.817,12.593 -1.044,5.911 -6.682,9.86 -12.595,8.813 z m 16.191,-26.941 c -6.453,-0.754 -11.066,-6.594 -10.311,-13.042 0.758,-6.448 6.595,-11.063 13.043,-10.308 6.452,0.755 11.062,6.598 10.311,13.046 -0.757,6.445 -6.597,11.058 -13.043,10.304 z m -136.524,98.997 c -1.911,-0.844 -2.776,-3.079 -1.936,-4.989 0.849,-1.915 3.08,-2.781 4.994,-1.936 1.912,0.847 2.78,3.08 1.933,4.991 -0.846,1.913 -3.083,2.778 -4.991,1.934 z m 19.785,-17.419 c -2.412,-0.899 -3.64,-3.591 -2.737,-6.007 0.902,-2.417 3.595,-3.645 6.01,-2.74 2.414,0.9 3.641,3.591 2.74,6.006 -0.904,2.418 -3.596,3.644 -6.013,2.741 z m 19.009,-19.154 c -2.932,-0.904 -4.575,-4.019 -3.668,-6.947 0.904,-2.934 4.014,-4.575 6.944,-3.671 2.932,0.906 4.575,4.015 3.671,6.949 -0.905,2.932 -4.014,4.571 -6.947,3.669 z m 18.089,-20.861 c -3.454,-0.852 -5.563,-4.338 -4.715,-7.796 0.85,-3.453 4.337,-5.566 7.793,-4.713 3.454,0.849 5.564,4.337 4.716,7.794 -0.852,3.454 -4.341,5.564 -7.794,4.715 z m 17.038,-22.523 c -3.979,-0.738 -6.609,-4.557 -5.87,-8.536 0.737,-3.978 4.554,-6.61 8.54,-5.874 3.975,0.74 6.604,4.564 5.868,8.538 -0.737,3.982 -4.561,6.609 -8.538,5.872 z m 15.848,-24.128 c -4.497,-0.565 -7.689,-4.669 -7.125,-9.17 0.569,-4.501 4.674,-7.69 9.174,-7.126 4.502,0.566 7.691,4.673 7.128,9.172 -0.568,4.501 -4.671,7.691 -9.177,7.124 z m 14.541,-25.669 c -5.013,-0.334 -8.806,-4.671 -8.47,-9.687 0.334,-5.011 4.671,-8.801 9.683,-8.466 5.014,0.331 8.806,4.671 8.468,9.682 -0.333,5.014 -4.666,8.807 -9.681,8.471 z M 88.63,428.395 c -0.125,-0.051 -0.179,-0.197 -0.125,-0.317 0.058,-0.122 0.199,-0.172 0.322,-0.121 0.121,0.054 0.174,0.199 0.12,0.318 -0.053,0.121 -0.197,0.179 -0.317,0.12 z m 18.73,-14.744 c -0.583,-0.224 -0.872,-0.876 -0.646,-1.454 0.219,-0.585 0.866,-0.876 1.451,-0.651 0.584,0.226 0.873,0.873 0.648,1.456 -0.222,0.58 -0.874,0.871 -1.453,0.649 z m 18.11,-16.43 c -1.061,-0.337 -1.642,-1.467 -1.308,-2.526 0.336,-1.061 1.469,-1.646 2.53,-1.31 1.058,0.337 1.644,1.469 1.308,2.525 -0.336,1.063 -1.469,1.648 -2.53,1.311 z m 17.364,-18.087 c -1.55,-0.397 -2.488,-1.975 -2.094,-3.527 0.397,-1.548 1.972,-2.488 3.528,-2.093 1.548,0.394 2.487,1.974 2.088,3.525 -0.393,1.554 -1.967,2.491 -3.522,2.095 z m 16.477,-19.714 c -2.052,-0.397 -3.391,-2.384 -2.995,-4.438 0.397,-2.049 2.385,-3.391 4.433,-2.995 2.05,0.4 3.393,2.388 2.995,4.437 -0.393,2.05 -2.381,3.394 -4.433,2.996 z m 15.465,-21.298 c -2.554,-0.338 -4.353,-2.688 -4.009,-5.244 0.345,-2.558 2.693,-4.355 5.248,-4.01 2.555,0.344 4.352,2.694 4.01,5.248 -0.343,2.559 -2.692,4.352 -5.249,4.006 z m 14.317,-22.818 c -3.057,-0.231 -5.351,-2.899 -5.12,-5.957 0.23,-3.06 2.898,-5.352 5.956,-5.123 3.063,0.229 5.354,2.896 5.122,5.958 -0.23,3.057 -2.895,5.35 -5.958,5.122 z m 13.054,-24.288 c -3.556,-0.056 -6.391,-2.991 -6.331,-6.547 0.059,-3.559 2.994,-6.393 6.55,-6.333 3.554,0.061 6.392,2.991 6.331,6.552 -0.06,3.554 -2.992,6.388 -6.55,6.328 z m -89.875,58.776 c -0.13,-0.028 -0.214,-0.151 -0.188,-0.285 0.026,-0.129 0.153,-0.216 0.286,-0.188 0.131,0.028 0.215,0.155 0.186,0.284 -0.025,0.129 -0.152,0.215 -0.284,0.189 z m 15.026,-18.441 c -0.618,-0.088 -1.043,-0.656 -0.956,-1.272 0.087,-0.619 0.654,-1.049 1.275,-0.959 0.616,0.087 1.044,0.658 0.957,1.275 -0.09,0.617 -0.663,1.045 -1.276,0.956 z m 14.053,-19.949 c -1.105,-0.092 -1.928,-1.063 -1.837,-2.171 0.095,-1.107 1.067,-1.935 2.176,-1.84 1.105,0.093 1.927,1.062 1.836,2.176 -0.095,1.107 -1.066,1.928 -2.175,1.835 z m 12.958,-21.404 c -1.6,-0.044 -2.866,-1.371 -2.822,-2.972 0.039,-1.6 1.367,-2.863 2.969,-2.823 1.6,0.038 2.868,1.368 2.827,2.971 -0.043,1.599 -1.374,2.863 -2.974,2.824 z m 11.744,-22.802 c -2.091,0.073 -3.841,-1.567 -3.909,-3.657 -0.068,-2.088 1.571,-3.839 3.66,-3.908 2.088,-0.068 3.834,1.569 3.904,3.656 0.069,2.092 -1.57,3.84 -3.655,3.909 z m -48.251,1.075 c -0.133,0.003 -0.244,-0.1 -0.248,-0.235 -0.003,-0.13 0.1,-0.242 0.233,-0.247 0.136,-0.005 0.247,0.103 0.249,0.236 0.004,0.135 -0.101,0.243 -0.234,0.246 z m 10.611,-21.226 c -0.621,0.053 -1.166,-0.409 -1.216,-1.027 -0.051,-0.625 0.407,-1.167 1.03,-1.222 0.621,-0.052 1.164,0.411 1.217,1.033 0.055,0.617 -0.408,1.163 -1.031,1.216 z m 51.622,-27.695 c 1.598,-3.183 5.473,-4.464 8.652,-2.869 3.175,1.597 4.459,5.474 2.862,8.647 -1.598,3.182 -5.471,4.463 -8.649,2.865 -3.18,-1.593 -4.461,-5.466 -2.865,-8.643 z m 18.256,21.59 c 1.606,-3.715 5.919,-5.424 9.634,-3.823 3.714,1.608 5.426,5.917 3.821,9.636 -1.601,3.708 -5.913,5.426 -9.628,3.82 -3.718,-1.603 -5.43,-5.916 -3.827,-9.633 z m 20.081,20.791 c 1.555,-4.255 6.267,-6.457 10.529,-4.904 4.262,1.554 6.456,6.264 4.905,10.527 -1.551,4.264 -6.265,6.46 -10.527,4.91 -4.259,-1.555 -6.458,-6.269 -4.907,-10.533 z m 21.874,19.851 c 1.443,-4.814 6.513,-7.547 11.326,-6.107 4.813,1.445 7.548,6.515 6.105,11.328 -1.443,4.811 -6.515,7.546 -11.327,6.106 -4.815,-1.444 -7.547,-6.515 -6.104,-11.327 z m 23.619,18.762 c 1.274,-5.364 6.653,-8.682 12.017,-7.41 5.368,1.275 8.686,6.652 7.41,12.019 -1.273,5.366 -6.653,8.682 -12.019,7.408 -5.363,-1.271 -8.684,-6.649 -7.408,-12.017 z m 25.312,17.544 c 1.044,-5.908 6.682,-9.86 12.594,-8.814 5.911,1.041 9.854,6.681 8.813,12.593 -1.041,5.911 -6.686,9.86 -12.593,8.815 -5.912,-1.043 -9.861,-6.681 -8.814,-12.594 z m 26.941,16.191 c 0.754,-6.453 6.595,-11.065 13.043,-10.31 6.447,0.757 11.062,6.593 10.308,13.043 -0.755,6.452 -6.598,11.061 -13.046,10.31 -6.447,-0.757 -11.059,-6.597 -10.305,-13.043 z M 217.121,197.555 c 0.844,-1.911 3.079,-2.776 4.99,-1.936 1.914,0.849 2.78,3.08 1.935,4.994 -0.846,1.912 -3.08,2.78 -4.991,1.933 -1.912,-0.845 -2.778,-3.083 -1.934,-4.991 z m 17.418,19.787 c 0.9,-2.413 3.592,-3.643 6.009,-2.738 2.415,0.901 3.645,3.594 2.74,6.009 -0.9,2.416 -3.591,3.64 -6.006,2.741 -2.418,-0.905 -3.645,-3.596 -2.743,-6.012 z m 19.155,19.008 c 0.906,-2.934 4.019,-4.575 6.947,-3.668 2.933,0.903 4.576,4.014 3.671,6.942 -0.907,2.934 -4.015,4.577 -6.948,3.672 -2.932,-0.904 -4.572,-4.014 -3.67,-6.946 z m 20.862,18.088 c 0.852,-3.454 4.338,-5.564 7.795,-4.714 3.454,0.849 5.566,4.336 4.713,7.793 -0.849,3.454 -4.337,5.564 -7.794,4.716 -3.455,-0.853 -5.563,-4.341 -4.714,-7.795 z m 22.522,17.038 c 0.739,-3.978 4.557,-6.609 8.536,-5.871 3.978,0.738 6.612,4.556 5.875,8.542 -0.742,3.975 -4.564,6.603 -8.539,5.867 -3.983,-0.736 -6.608,-4.561 -5.872,-8.538 z m 24.128,15.847 c 0.564,-4.495 4.67,-7.688 9.171,-7.124 4.5,0.571 7.69,4.673 7.127,9.174 -0.567,4.502 -4.673,7.691 -9.173,7.128 -4.501,-0.568 -7.692,-4.671 -7.125,-9.178 z m 25.67,14.542 c 0.333,-5.013 4.671,-8.805 9.686,-8.47 5.012,0.334 8.801,4.671 8.467,9.683 -0.331,5.014 -4.671,8.807 -9.682,8.469 -5.015,-0.333 -8.809,-4.666 -8.471,-9.682 z M 236.859,154.072 c 0.051,-0.125 0.197,-0.179 0.317,-0.125 0.122,0.059 0.173,0.199 0.121,0.322 -0.053,0.122 -0.198,0.174 -0.318,0.12 -0.121,-0.053 -0.178,-0.197 -0.12,-0.317 z m 14.744,18.731 c 0.224,-0.584 0.876,-0.873 1.453,-0.647 0.587,0.218 0.878,0.867 0.652,1.45 -0.227,0.585 -0.873,0.874 -1.456,0.65 -0.579,-0.221 -0.87,-0.875 -0.649,-1.453 z m 16.432,18.109 c 0.335,-1.059 1.465,-1.642 2.524,-1.308 1.061,0.335 1.647,1.47 1.31,2.531 -0.337,1.057 -1.469,1.643 -2.524,1.308 -1.064,-0.336 -1.648,-1.469 -1.31,-2.531 z m 18.086,17.365 c 0.395,-1.551 1.974,-2.489 3.525,-2.095 1.55,0.396 2.489,1.972 2.095,3.528 -0.395,1.55 -1.975,2.487 -3.526,2.088 -1.553,-0.391 -2.491,-1.967 -2.094,-3.521 z m 19.714,16.476 c 0.395,-2.051 2.383,-3.39 4.436,-2.994 2.051,0.397 3.394,2.384 2.996,4.432 -0.4,2.051 -2.387,3.393 -4.436,2.997 -2.05,-0.396 -3.394,-2.381 -2.996,-4.435 z m 21.298,15.466 c 0.337,-2.555 2.687,-4.355 5.244,-4.011 2.557,0.346 4.353,2.693 4.009,5.249 -0.344,2.557 -2.694,4.353 -5.248,4.011 -2.558,-0.342 -4.352,-2.693 -4.005,-5.249 z m 22.817,14.318 c 0.231,-3.059 2.899,-5.351 5.959,-5.122 3.057,0.231 5.352,2.899 5.122,5.956 -0.23,3.064 -2.897,5.355 -5.96,5.123 -3.055,-0.23 -5.348,-2.895 -5.121,-5.957 z m 24.287,13.054 c 0.058,-3.559 2.992,-6.391 6.549,-6.332 3.558,0.058 6.392,2.993 6.333,6.55 -0.062,3.553 -2.99,6.391 -6.553,6.33 -3.554,-0.06 -6.387,-2.991 -6.329,-6.548 z m -58.776,-89.876 c 0.029,-0.131 0.153,-0.215 0.287,-0.188 0.128,0.025 0.215,0.153 0.188,0.286 -0.028,0.131 -0.156,0.215 -0.286,0.186 -0.129,-0.026 -0.213,-0.153 -0.189,-0.284 z m 18.441,15.025 c 0.09,-0.616 0.657,-1.043 1.273,-0.955 0.619,0.088 1.049,0.653 0.96,1.274 -0.087,0.616 -0.659,1.044 -1.276,0.957 -0.616,-0.09 -1.045,-0.662 -0.957,-1.276 z m 19.952,14.054 c 0.09,-1.106 1.062,-1.928 2.169,-1.838 1.107,0.096 1.935,1.066 1.84,2.176 -0.092,1.105 -1.063,1.928 -2.175,1.836 -1.107,-0.094 -1.927,-1.066 -1.834,-2.174 z m 21.403,12.957 c 0.043,-1.6 1.372,-2.865 2.972,-2.822 1.6,0.04 2.863,1.369 2.822,2.97 -0.038,1.601 -1.369,2.869 -2.969,2.826 -1.601,-0.042 -2.865,-1.374 -2.825,-2.974 z m 22.801,11.744 c -0.072,-2.091 1.567,-3.84 3.657,-3.909 2.09,-0.066 3.839,1.572 3.908,3.66 0.067,2.088 -1.568,3.833 -3.656,3.904 -2.093,0.069 -3.839,-1.57 -3.909,-3.655 z m -1.077,-48.251 c -0.002,-0.132 0.103,-0.242 0.237,-0.248 0.131,-0.003 0.242,0.101 0.248,0.233 0.005,0.136 -0.104,0.247 -0.237,0.25 -0.134,0.002 -0.243,-0.101 -0.248,-0.235 z m 22.444,11.643 c 0.623,-0.053 1.086,-0.596 1.034,-1.217 -0.056,-0.623 -0.598,-1.081 -1.221,-1.031 -0.62,0.049 -1.081,0.595 -1.028,1.215 0.052,0.624 0.598,1.086 1.215,1.033 z"
           style="fill:none;stroke:#ffffff;stroke-width:0.111;stroke-linecap:butt;stroke-linejoin:miter;stroke-miterlimit:4;stroke-dasharray:none;stroke-opacity:1"
           id="path6137"
           inkscape:connector-curvature="0" /></g></g></g></svg>