<?xml version="1.0" encoding="UTF-8" standalone="no"?>
<!-- Created with Inkscape (http://www.inkscape.org/) -->

<svg
   xmlns:dc="http://purl.org/dc/elements/1.1/"
   xmlns:cc="http://creativecommons.org/ns#"
   xmlns:rdf="http://www.w3.org/1999/02/22-rdf-syntax-ns#"
   xmlns:svg="http://www.w3.org/2000/svg"
   xmlns="http://www.w3.org/2000/svg"
   xmlns:sodipodi="http://sodipodi.sourceforge.net/DTD/sodipodi-0.dtd"
   xmlns:inkscape="http://www.inkscape.org/namespaces/inkscape"
   version="1.1"
   id="svg4857"
   xml:space="preserve"
   width="800"
   height="800"
   viewBox="0 0 800 800"
   sodipodi:docname="logo-design-element-#7.svg"
   inkscape:version="0.92.4 (5da689c313, 2019-01-14)"><metadata
     id="metadata4863"><rdf:RDF><cc:Work
         rdf:about=""><dc:format>image/svg+xml</dc:format><dc:type
           rdf:resource="http://purl.org/dc/dcmitype/StillImage" /><dc:title></dc:title></cc:Work></rdf:RDF></metadata><defs
     id="defs4861"><clipPath
       clipPathUnits="userSpaceOnUse"
       id="clipPath4873"><path
         d="M 0,600 H 600 V 0 H 0 Z"
         id="path4871"
         inkscape:connector-curvature="0" /></clipPath><linearGradient
       x1="0"
       y1="0"
       x2="1"
       y2="0"
       gradientUnits="userSpaceOnUse"
       gradientTransform="matrix(399.38672,0,0,-399.38672,85.931641,341.38916)"
       spreadMethod="pad"
       id="linearGradient4897"><stop
         style="stop-opacity:1;stop-color:#1aaeec"
         offset="0"
         id="stop4887" /><stop
         style="stop-opacity:1;stop-color:#4253a7"
         offset="0.297753"
         id="stop4889" /><stop
         style="stop-opacity:1;stop-color:#e70c8d"
         offset="0.646067"
         id="stop4891" /><stop
         style="stop-opacity:1;stop-color:#e33c47"
         offset="0.955056"
         id="stop4893" /><stop
         style="stop-opacity:1;stop-color:#e33c47"
         offset="1"
         id="stop4895" /></linearGradient></defs><sodipodi:namedview
     pagecolor="#ffffff"
     bordercolor="#666666"
     borderopacity="1"
     objecttolerance="10"
     gridtolerance="10"
     guidetolerance="10"
     inkscape:pageopacity="0"
     inkscape:pageshadow="2"
     inkscape:window-width="1920"
     inkscape:window-height="1018"
     id="namedview4859"
     showgrid="false"
     inkscape:zoom="0.85188776"
     inkscape:cx="438.98305"
     inkscape:cy="400"
     inkscape:window-x="-8"
     inkscape:window-y="-8"
     inkscape:window-maximized="1"
     inkscape:current-layer="g4865" /><g
     id="g4865"
     inkscape:groupmode="layer"
     inkscape:label="logotype-element-7-publicdomainvectors.org"
     transform="matrix(1.3333333,0,0,-1.3333333,0,800)"><g
       id="g4867"><g
         id="g4869"
         clip-path="url(#clipPath4873)"><g
           id="g4875"><g
             id="g4877"><g
               id="g4883"><g
                 id="g4885"><path
                   d="m 312.385,321.738 c 1.256,-2.22 4.071,-3.001 6.291,-1.748 2.216,1.255 2.998,4.071 1.744,6.29 -1.255,2.217 -4.069,2.999 -6.288,1.745 -2.219,-1.254 -3,-4.069 -1.747,-6.287 m 12.306,16.09 c 1.279,-2.602 4.424,-3.674 7.026,-2.398 2.601,1.279 3.676,4.424 2.397,7.028 -1.278,2.6 -4.421,3.676 -7.023,2.396 -2.604,-1.277 -3.678,-4.424 -2.4,-7.026 m 13.639,15.582 c 1.263,-2.994 4.71,-4.402 7.707,-3.143 2.994,1.262 4.401,4.711 3.141,7.707 -1.261,2.994 -4.711,4.401 -7.706,3.142 -2.993,-1.262 -4.401,-4.711 -3.142,-7.706 m 14.955,14.969 c 1.202,-3.394 4.926,-5.172 8.319,-3.972 3.394,1.202 5.171,4.926 3.972,8.319 -1.202,3.394 -4.928,5.172 -8.319,3.972 -3.394,-1.202 -5.172,-4.927 -3.972,-8.319 m 16.242,14.252 c 1.102,-3.791 5.067,-5.978 8.861,-4.88 3.795,1.101 5.979,5.066 4.882,8.861 -1.1,3.796 -5.067,5.979 -8.861,4.88 -3.793,-1.098 -5.98,-5.064 -4.882,-8.861 m 17.496,13.444 c 0.956,-4.194 5.129,-6.822 9.323,-5.867 4.193,0.953 6.817,5.127 5.865,9.319 -0.953,4.194 -5.128,6.823 -9.321,5.868 -4.194,-0.956 -6.819,-5.128 -5.867,-9.32 m 18.712,12.528 c 0.767,-4.589 5.107,-7.686 9.694,-6.919 4.59,0.768 7.685,5.106 6.92,9.694 -0.767,4.588 -5.109,7.684 -9.697,6.919 -4.586,-0.768 -7.682,-5.108 -6.917,-9.694 M 339.687,307.445 c 0.669,-1.339 2.298,-1.88 3.637,-1.211 1.34,0.673 1.88,2.301 1.209,3.64 -0.673,1.339 -2.301,1.88 -3.638,1.209 -1.338,-0.671 -1.88,-2.301 -1.208,-3.638 m 11.768,14.767 c 0.73,-1.694 2.699,-2.479 4.397,-1.747 1.696,0.729 2.481,2.698 1.748,4.395 -0.73,1.698 -2.698,2.48 -4.395,1.749 -1.697,-0.73 -2.48,-2.7 -1.75,-4.397 m 13.041,14.272 c 0.749,-2.066 3.034,-3.132 5.098,-2.381 2.067,0.751 3.135,3.033 2.383,5.099 -0.749,2.067 -3.033,3.132 -5.099,2.382 -2.065,-0.75 -3.133,-3.033 -2.382,-5.1 m 14.292,13.676 c 0.732,-2.442 3.299,-3.829 5.742,-3.101 2.442,0.73 3.831,3.3 3.102,5.743 -0.731,2.441 -3.3,3.828 -5.742,3.099 -2.443,-0.728 -3.831,-3.3 -3.102,-5.741 m 15.519,12.982 c 0.666,-2.822 3.493,-4.571 6.314,-3.903 2.821,0.667 4.569,3.493 3.903,6.316 -0.669,2.821 -3.497,4.568 -6.315,3.901 -2.824,-0.666 -4.57,-3.494 -3.902,-6.314 m 16.707,12.185 c 0.563,-3.199 3.613,-5.336 6.812,-4.776 3.2,0.563 5.341,3.614 4.779,6.813 -0.563,3.201 -3.614,5.341 -6.812,4.778 -3.202,-0.563 -5.34,-3.612 -4.779,-6.815 m 17.859,11.304 c 0.415,-3.575 3.65,-6.137 7.227,-5.721 3.576,0.415 6.135,3.651 5.721,7.227 -0.415,3.575 -3.651,6.137 -7.225,5.72 -3.577,-0.415 -6.14,-3.649 -5.723,-7.226 m -73.54,-109.61 c 0.042,-0.085 0.146,-0.119 0.232,-0.076 0.085,0.043 0.117,0.147 0.074,0.233 -0.042,0.085 -0.148,0.12 -0.233,0.075 -0.085,-0.043 -0.119,-0.147 -0.073,-0.232 m 9.895,13.92 c 0.178,-0.411 0.656,-0.594 1.064,-0.412 0.408,0.179 0.594,0.653 0.413,1.062 -0.181,0.411 -0.656,0.594 -1.065,0.412 -0.408,-0.177 -0.592,-0.654 -0.412,-1.062 m 11.121,13.536 c 0.277,-0.748 1.106,-1.124 1.853,-0.847 0.746,0.278 1.126,1.106 0.847,1.854 -0.278,0.745 -1.108,1.126 -1.852,0.847 -0.748,-0.278 -1.128,-1.108 -0.848,-1.854 m 12.332,13.057 c 0.34,-1.096 1.5,-1.711 2.597,-1.373 1.094,0.337 1.711,1.498 1.373,2.595 -0.336,1.097 -1.499,1.712 -2.594,1.372 -1.097,-0.335 -1.712,-1.496 -1.376,-2.594 m 13.528,12.481 c 0.356,-1.453 1.824,-2.342 3.279,-1.986 1.454,0.355 2.344,1.824 1.988,3.276 -0.357,1.456 -1.825,2.346 -3.279,1.989 -1.454,-0.355 -2.343,-1.823 -1.988,-3.279 m 14.696,11.814 c 0.334,-1.818 2.077,-3.022 3.895,-2.685 1.817,0.336 3.02,2.079 2.685,3.896 -0.336,1.816 -2.08,3.018 -3.896,2.684 -1.818,-0.335 -3.019,-2.079 -2.684,-3.895 m 15.828,11.045 c 0.272,-2.181 2.261,-3.728 4.442,-3.456 2.181,0.271 3.728,2.262 3.457,4.44 -0.272,2.183 -2.262,3.73 -4.443,3.457 -2.18,-0.271 -3.727,-2.257 -3.456,-4.441 m 16.92,10.192 c 0.167,-2.544 2.364,-4.469 4.908,-4.301 2.544,0.167 4.469,2.364 4.301,4.908 -0.168,2.543 -2.362,4.47 -4.909,4.301 -2.542,-0.167 -4.467,-2.366 -4.3,-4.908 m -38.905,-66.371 c 0.024,-0.092 0.116,-0.148 0.209,-0.125 0.094,0.024 0.151,0.118 0.125,0.211 -0.022,0.093 -0.116,0.149 -0.209,0.124 -0.092,-0.023 -0.149,-0.117 -0.125,-0.21 m 12.668,11.398 c 0.084,-0.438 0.506,-0.723 0.945,-0.639 0.437,0.083 0.726,0.505 0.641,0.945 -0.084,0.439 -0.508,0.725 -0.946,0.641 -0.438,-0.087 -0.725,-0.51 -0.64,-0.947 m 13.783,10.755 c 0.103,-0.79 0.829,-1.343 1.616,-1.238 0.79,0.105 1.347,0.83 1.243,1.621 -0.107,0.788 -0.829,1.343 -1.623,1.237 -0.789,-0.104 -1.343,-0.83 -1.236,-1.62 m 14.862,10.022 c 0.085,-1.143 1.08,-2.001 2.223,-1.914 1.144,0.084 2.001,1.08 1.918,2.222 -0.084,1.145 -1.081,2.004 -2.225,1.919 -1.145,-0.086 -2.002,-1.082 -1.916,-2.227 m 15.901,9.203 c 0.024,-1.498 1.258,-2.692 2.755,-2.669 1.499,0.024 2.692,1.259 2.668,2.756 -0.025,1.497 -1.257,2.688 -2.753,2.666 -1.499,-0.024 -2.692,-1.258 -2.67,-2.753 m 0.924,-34.564 c 0.002,-0.096 0.08,-0.17 0.177,-0.169 0.094,0.002 0.17,0.081 0.168,0.176 -10e-4,0.097 -0.083,0.172 -0.177,0.17 -0.095,-0.003 -0.17,-0.081 -0.168,-0.177 m 14.817,8.338 c -0.015,-0.446 0.333,-0.821 0.778,-0.834 0.449,-0.016 0.82,0.334 0.837,0.779 0.015,0.446 -0.335,0.82 -0.781,0.834 -0.444,0.017 -0.819,-0.333 -0.834,-0.779 m -167.68,42.892 c 2.55,-0.023 4.634,2.024 4.659,4.574 0.021,2.546 -2.026,4.631 -4.575,4.655 -2.547,0.022 -4.632,-2.025 -4.655,-4.573 -0.024,-2.549 2.024,-4.633 4.571,-4.656 m -7.781,18.702 c 2.892,-0.193 5.394,1.995 5.59,4.885 0.192,2.894 -1.993,5.395 -4.887,5.591 -2.89,0.192 -5.395,-1.991 -5.589,-4.886 -0.196,-2.891 1.993,-5.396 4.886,-5.59 m -6.675,19.602 c 3.224,-0.404 6.167,1.879 6.575,5.104 0.404,3.223 -1.88,6.166 -5.104,6.573 -3.223,0.406 -6.166,-1.879 -6.575,-5.103 -0.403,-3.223 1.881,-6.165 5.104,-6.574 m -5.486,20.437 c 3.54,-0.657 6.941,1.68 7.599,5.218 0.656,3.54 -1.68,6.942 -5.218,7.599 -3.54,0.657 -6.942,-1.681 -7.599,-5.218 -0.656,-3.54 1.679,-6.942 5.218,-7.599 m -4.223,21.192 c 3.835,-0.942 7.712,1.398 8.658,5.233 0.943,3.837 -1.397,7.712 -5.234,8.658 -3.835,0.946 -7.71,-1.397 -8.656,-5.232 -0.945,-3.836 1.396,-7.712 5.232,-8.659 m -2.893,21.874 c 4.11,-1.27 8.472,1.031 9.742,5.14 1.272,4.107 -1.031,8.467 -5.139,9.739 -4.108,1.271 -8.471,-1.031 -9.741,-5.139 -1.27,-4.109 1.03,-8.469 5.138,-9.74 m -1.493,22.468 c 4.356,-1.63 9.208,0.58 10.838,4.936 1.63,4.358 -0.58,9.209 -4.935,10.84 -4.357,1.63 -9.209,-0.582 -10.84,-4.938 -1.629,-4.355 0.582,-9.207 4.937,-10.838 m 54.58,-107.78 c 1.494,-0.088 2.778,1.054 2.867,2.547 0.087,1.495 -1.052,2.779 -2.547,2.866 -1.497,0.088 -2.779,-1.051 -2.866,-2.546 -0.088,-1.495 1.052,-2.779 2.546,-2.867 m -6.905,17.577 c 1.832,-0.216 3.497,1.098 3.711,2.934 0.218,1.834 -1.094,3.498 -2.931,3.712 -1.835,0.217 -3.496,-1.097 -3.712,-2.932 -0.217,-1.835 1.098,-3.498 2.932,-3.714 m -5.838,18.43 c 2.163,-0.384 4.229,1.062 4.611,3.224 0.384,2.167 -1.061,4.231 -3.224,4.613 -2.166,0.385 -4.23,-1.06 -4.614,-3.224 -0.383,-2.165 1.062,-4.229 3.227,-4.613 m -4.698,19.215 c 2.48,-0.588 4.965,0.942 5.556,3.422 0.59,2.48 -0.942,4.968 -3.423,5.557 -2.478,0.589 -4.966,-0.943 -5.556,-3.422 -0.588,-2.479 0.944,-4.968 3.423,-5.557 m -3.483,19.93 c 2.776,-0.833 5.703,0.74 6.537,3.518 0.833,2.776 -0.74,5.703 -3.519,6.538 -2.777,0.831 -5.705,-0.744 -6.537,-3.519 -0.834,-2.779 0.743,-5.704 3.519,-6.537 m -2.2,20.563 c 3.051,-1.112 6.428,0.46 7.543,3.511 1.112,3.053 -0.459,6.431 -3.511,7.545 -3.055,1.112 -6.433,-0.459 -7.544,-3.511 -1.114,-3.054 0.458,-6.431 3.512,-7.545 m -0.861,21.118 c 3.304,-1.428 7.141,0.093 8.569,3.398 1.428,3.304 -0.094,7.139 -3.398,8.568 -3.303,1.428 -7.14,-0.093 -8.566,-3.398 -1.43,-3.304 0.092,-7.141 3.395,-8.568 m 58.156,-118.493 c 0.095,-0.007 0.176,0.068 0.183,0.163 0.004,0.096 -0.071,0.175 -0.165,0.181 -0.095,0.005 -0.178,-0.068 -0.181,-0.165 -0.007,-0.094 0.067,-0.175 0.163,-0.179 m -7.107,15.529 c 0.444,-0.05 0.842,0.272 0.888,0.715 0.05,0.444 -0.268,0.841 -0.712,0.89 -0.447,0.048 -0.843,-0.272 -0.89,-0.717 -0.05,-0.442 0.271,-0.84 0.714,-0.888 m -6.162,16.399 c 0.786,-0.134 1.526,0.396 1.66,1.182 0.133,0.785 -0.395,1.528 -1.181,1.661 -0.786,0.131 -1.531,-0.397 -1.661,-1.181 -0.133,-0.787 0.396,-1.531 1.182,-1.662 m -5.141,17.209 c 1.119,-0.254 2.231,0.444 2.488,1.562 0.254,1.116 -0.444,2.231 -1.562,2.488 -1.118,0.257 -2.232,-0.443 -2.486,-1.562 -0.259,-1.116 0.44,-2.23 1.56,-2.488 m -4.046,17.956 c 1.437,-0.417 2.941,0.409 3.36,1.847 0.419,1.438 -0.408,2.942 -1.844,3.359 -1.439,0.419 -2.944,-0.407 -3.361,-1.844 -0.419,-1.437 0.406,-2.942 1.845,-3.362 m -2.882,18.634 c 1.74,-0.62 3.655,0.289 4.273,2.03 0.617,1.743 -0.292,3.656 -2.032,4.273 -1.742,0.619 -3.654,-0.291 -4.272,-2.031 -0.621,-1.741 0.291,-3.654 2.031,-4.272 m -1.652,19.23 c 2.024,-0.855 4.359,0.094 5.214,2.119 0.854,2.025 -0.094,4.36 -2.117,5.214 -2.026,0.855 -4.36,-0.094 -5.216,-2.118 -0.854,-2.025 0.092,-4.358 2.119,-5.215 m -0.367,19.749 c 2.286,-1.127 5.052,-0.187 6.179,2.099 1.127,2.288 0.186,5.055 -2.1,6.18 -2.285,1.126 -5.051,0.189 -6.179,-2.101 -1.126,-2.285 -0.186,-5.052 2.1,-6.178 m 38.027,-66.878 c 0.092,-0.025 0.187,0.026 0.212,0.118 0.027,0.093 -0.025,0.189 -0.119,0.215 -0.092,0.027 -0.188,-0.028 -0.213,-0.12 -0.026,-0.091 0.027,-0.187 0.12,-0.213 m -3.538,16.67 c 0.422,-0.147 0.881,0.076 1.027,0.499 0.146,0.42 -0.075,0.88 -0.498,1.027 -0.422,0.147 -0.881,-0.077 -1.028,-0.499 -0.144,-0.422 0.079,-0.883 0.499,-1.027 m -2.422,17.313 c 0.735,-0.305 1.578,0.047 1.88,0.782 0.304,0.736 -0.045,1.581 -0.783,1.885 -0.735,0.303 -1.577,-0.047 -1.882,-0.786 -0.304,-0.735 0.047,-1.578 0.785,-1.881 m -1.248,17.882 c 1.032,-0.498 2.273,-0.065 2.769,0.969 0.499,1.033 0.066,2.272 -0.967,2.772 -1.031,0.499 -2.275,0.065 -2.774,-0.968 -0.496,-1.034 -0.063,-2.274 0.972,-2.773 m -0.02,18.373 c 1.309,-0.728 2.96,-0.258 3.689,1.051 0.728,1.309 0.256,2.961 -1.053,3.688 -1.309,0.727 -2.956,0.256 -3.686,-1.051 -0.727,-1.309 -0.257,-2.96 1.05,-3.688 m 30.395,-16.483 c 0.084,-0.045 0.187,-0.014 0.235,0.07 0.046,0.083 0.016,0.188 -0.067,0.234 -0.086,0.046 -0.192,0.015 -0.237,-0.07 -0.045,-0.084 -0.015,-0.187 0.069,-0.234 m 0.188,17.002 c 0.378,-0.237 0.877,-0.122 1.111,0.257 0.239,0.38 0.12,0.876 -0.256,1.114 -0.379,0.236 -0.876,0.12 -1.113,-0.259 -0.236,-0.377 -0.121,-0.876 0.258,-1.112 M 289.263,374.389 c 1.294,2.198 0.564,5.027 -1.632,6.322 -2.194,1.292 -5.024,0.561 -6.319,-1.634 -1.293,-2.196 -0.562,-5.024 1.633,-6.318 2.195,-1.295 5.024,-0.564 6.318,1.63 m -20.089,2.612 c 1.615,2.409 0.972,5.67 -1.434,7.285 -2.41,1.613 -5.669,0.97 -7.285,-1.437 -1.613,-2.407 -0.974,-5.668 1.436,-7.282 2.407,-1.615 5.669,-0.973 7.283,1.434 m -20.313,4.021 c 1.962,2.591 1.457,6.281 -1.132,8.246 -2.589,1.961 -6.279,1.455 -8.244,-1.133 -1.964,-2.589 -1.456,-6.28 1.133,-8.244 2.588,-1.962 6.278,-1.456 8.243,1.131 m -20.441,5.467 c 2.339,2.738 2.018,6.853 -0.719,9.191 -2.738,2.339 -6.851,2.016 -9.19,-0.72 -2.338,-2.736 -2.015,-6.852 0.719,-9.19 2.738,-2.338 6.853,-2.016 9.19,0.719 m -20.464,6.941 c 2.733,2.849 2.645,7.376 -0.204,10.113 -2.85,2.736 -7.377,2.646 -10.113,-0.203 -2.738,-2.849 -2.646,-7.376 0.202,-10.112 2.849,-2.737 7.377,-2.648 10.115,0.202 m -20.39,8.431 c 3.155,2.924 3.343,7.851 0.419,11.006 -2.921,3.154 -7.848,3.341 -11.004,0.419 -3.153,-2.922 -3.342,-7.851 -0.419,-11.005 2.923,-3.155 7.85,-3.343 11.004,-0.42 m -20.205,9.939 c 3.59,2.959 4.102,8.266 1.144,11.855 -2.958,3.591 -8.264,4.102 -11.854,1.146 -3.59,-2.959 -4.101,-8.266 -1.145,-11.857 2.959,-3.588 8.266,-4.099 11.855,-1.144 m 120.63,-6.621 c 0.825,1.251 0.477,2.932 -0.771,3.757 -1.252,0.823 -2.933,0.478 -3.757,-0.773 -0.823,-1.252 -0.478,-2.933 0.772,-3.755 1.251,-0.824 2.933,-0.478 3.756,0.771 m -18.675,2.809 c 1.104,1.479 0.798,3.576 -0.684,4.681 -1.479,1.104 -3.577,0.8 -4.681,-0.683 -1.105,-1.48 -0.799,-3.576 0.684,-4.681 1.481,-1.105 3.578,-0.798 4.681,0.683 m -18.879,4.158 c 1.414,1.682 1.195,4.194 -0.486,5.606 -1.685,1.415 -4.194,1.197 -5.608,-0.486 -1.416,-1.683 -1.197,-4.193 0.486,-5.608 1.683,-1.413 4.192,-1.196 5.608,0.488 m -18.989,5.54 c 1.748,1.853 1.666,4.771 -0.186,6.522 -1.853,1.75 -4.773,1.668 -6.525,-0.186 -1.748,-1.852 -1.666,-4.772 0.187,-6.522 1.852,-1.75 4.773,-1.666 6.524,0.186 m -19.002,6.948 c 2.11,1.989 2.211,5.31 0.221,7.42 -1.986,2.109 -5.308,2.21 -7.421,0.221 -2.108,-1.988 -2.207,-5.311 -0.22,-7.42 1.989,-2.111 5.311,-2.209 7.42,-0.221 m -18.907,8.376 c 2.488,2.087 2.815,5.798 0.73,8.289 -2.087,2.489 -5.799,2.817 -8.29,0.731 -2.49,-2.089 -2.818,-5.8 -0.731,-8.289 2.088,-2.491 5.798,-2.819 8.291,-0.731 m -18.72,9.815 c 2.889,2.147 3.49,6.229 1.342,9.119 -2.147,2.889 -6.229,3.488 -9.119,1.341 -2.889,-2.147 -3.49,-6.23 -1.341,-9.117 2.147,-2.89 6.23,-3.492 9.118,-1.343 m 131.696,-8.883 c 0.052,0.079 0.03,0.187 -0.051,0.24 -0.08,0.051 -0.186,0.026 -0.237,-0.053 -0.053,-0.08 -0.031,-0.188 0.05,-0.238 0.079,-0.054 0.186,-0.031 0.238,0.051 m -17.001,1.609 c 0.265,0.36 0.184,0.865 -0.177,1.128 -0.359,0.264 -0.861,0.188 -1.126,-0.173 -0.265,-0.362 -0.186,-0.865 0.176,-1.129 0.357,-0.264 0.863,-0.186 1.127,0.174 m -17.284,2.864 c 0.509,0.614 0.419,1.52 -0.193,2.028 -0.615,0.508 -1.522,0.422 -2.03,-0.193 -0.506,-0.614 -0.421,-1.523 0.192,-2.028 0.616,-0.51 1.524,-0.423 2.031,0.193 m -17.475,4.151 c 0.78,0.842 0.732,2.155 -0.109,2.936 -0.839,0.778 -2.153,0.732 -2.934,-0.108 -0.781,-0.839 -0.732,-2.154 0.11,-2.934 0.837,-0.782 2.15,-0.734 2.933,0.106 m -17.573,5.475 c 1.081,1.036 1.116,2.751 0.081,3.834 -1.035,1.082 -2.751,1.118 -3.831,0.082 -1.082,-1.037 -1.119,-2.753 -0.083,-3.833 1.034,-1.082 2.751,-1.119 3.833,-0.083 m -17.579,6.82 c 1.408,1.199 1.579,3.311 0.379,4.716 -1.2,1.406 -3.312,1.576 -4.716,0.378 -1.408,-1.2 -1.576,-3.31 -0.378,-4.717 1.199,-1.406 3.311,-1.574 4.715,-0.377 m -17.479,8.185 c 1.753,1.325 2.099,3.823 0.772,5.575 -1.325,1.753 -3.822,2.099 -5.574,0.774 -1.754,-1.328 -2.098,-3.824 -0.773,-5.576 1.326,-1.753 3.82,-2.1 5.575,-0.773 m -17.286,9.557 c 2.119,1.417 2.688,4.282 1.271,6.4 -1.417,2.121 -4.283,2.69 -6.401,1.272 -2.119,-1.417 -2.69,-4.281 -1.271,-6.401 1.416,-2.119 4.283,-2.687 6.401,-1.271 m 76.931,-0.507 c 0.067,0.068 0.07,0.175 0.004,0.244 -0.067,0.069 -0.177,0.072 -0.245,0.003 -0.07,-0.067 -0.07,-0.176 -0.003,-0.244 0.065,-0.067 0.175,-0.07 0.244,-0.003 m -16.205,5.272 c 0.338,0.292 0.374,0.8 0.082,1.138 -0.292,0.337 -0.8,0.375 -1.14,0.082 -0.338,-0.292 -0.374,-0.802 -0.082,-1.139 0.294,-0.337 0.805,-0.373 1.14,-0.081 m -16.205,6.558 c 0.632,0.485 0.748,1.39 0.263,2.02 -0.485,0.632 -1.392,0.751 -2.024,0.265 -0.629,-0.486 -0.748,-1.39 -0.26,-2.023 0.484,-0.631 1.389,-0.749 2.021,-0.262 m -16.11,7.861 c 0.947,0.644 1.193,1.935 0.546,2.883 -0.646,0.948 -1.936,1.192 -2.884,0.549 -0.949,-0.645 -1.195,-1.939 -0.548,-2.887 0.645,-0.947 1.936,-1.192 2.886,-0.545 m -15.921,9.169 c 1.285,0.769 1.702,2.435 0.934,3.72 -0.77,1.285 -2.436,1.702 -3.72,0.932 -1.285,-0.769 -1.701,-2.432 -0.933,-3.717 0.77,-1.285 2.434,-1.702 3.719,-0.935 m 29.471,18.081 c 0.082,0.05 0.107,0.155 0.057,0.239 -0.048,0.08 -0.154,0.107 -0.236,0.058 -0.083,-0.05 -0.108,-0.158 -0.057,-0.239 0.049,-0.081 0.155,-0.108 0.236,-0.058 m -14.629,8.664 c 0.394,0.209 0.544,0.698 0.333,1.091 -0.21,0.396 -0.699,0.542 -1.093,0.334 -0.393,-0.209 -0.542,-0.698 -0.332,-1.093 0.208,-0.392 0.698,-0.542 1.092,-0.332 M 258.864,361.04 c -1.256,2.219 -4.07,3.002 -6.29,1.748 -2.216,-1.255 -2.999,-4.072 -1.744,-6.289 1.254,-2.219 4.069,-3.001 6.287,-1.747 2.22,1.255 3.001,4.07 1.747,6.288 m -12.306,-16.091 c -1.278,2.602 -4.425,3.676 -7.025,2.399 -2.603,-1.28 -3.677,-4.423 -2.399,-7.027 1.279,-2.599 4.423,-3.677 7.025,-2.396 2.603,1.275 3.677,4.422 2.399,7.024 m -13.639,-15.58 c -1.261,2.992 -4.71,4.401 -7.707,3.141 -2.993,-1.262 -4.399,-4.71 -3.14,-7.706 1.261,-2.995 4.71,-4.401 7.705,-3.142 2.994,1.262 4.402,4.71 3.142,7.707 m -14.954,-14.971 c -1.202,3.395 -4.925,5.173 -8.32,3.973 -3.394,-1.202 -5.171,-4.927 -3.971,-8.319 1.201,-3.393 4.926,-5.172 8.319,-3.971 3.394,1.202 5.171,4.925 3.972,8.317 m -16.243,-14.252 c -1.101,3.793 -5.066,5.979 -8.861,4.88 -3.795,-1.1 -5.979,-5.065 -4.881,-8.86 1.1,-3.795 5.066,-5.979 8.859,-4.881 3.795,1.1 5.982,5.066 4.883,8.861 m -17.496,-13.443 c -0.955,4.193 -5.129,6.821 -9.322,5.866 -4.193,-0.953 -6.818,-5.125 -5.865,-9.319 0.953,-4.192 5.127,-6.821 9.32,-5.867 4.193,0.955 6.82,5.128 5.867,9.32 m -18.711,-12.527 c -0.767,4.588 -5.107,7.684 -9.695,6.918 -4.588,-0.768 -7.684,-5.106 -6.919,-9.694 0.767,-4.589 5.108,-7.684 9.696,-6.92 4.587,0.769 7.683,5.109 6.918,9.696 m 66.049,101.158 c -0.67,1.337 -2.299,1.879 -3.639,1.21 -1.339,-0.672 -1.88,-2.302 -1.209,-3.64 0.673,-1.34 2.301,-1.881 3.638,-1.208 1.339,0.671 1.881,2.3 1.21,3.638 m -11.771,-14.769 c -0.727,1.696 -2.697,2.479 -4.394,1.748 -1.698,-0.729 -2.483,-2.697 -1.749,-4.396 0.729,-1.695 2.698,-2.479 4.395,-1.749 1.698,0.73 2.48,2.7 1.748,4.397 m -13.04,-14.272 c -0.749,2.066 -3.034,3.133 -5.098,2.383 -2.068,-0.751 -3.133,-3.034 -2.382,-5.099 0.749,-2.067 3.032,-3.134 5.099,-2.384 2.066,0.751 3.132,3.034 2.381,5.1 m -14.292,-13.674 c -0.73,2.441 -3.298,3.828 -5.741,3.1 -2.442,-0.731 -3.831,-3.3 -3.101,-5.743 0.729,-2.442 3.299,-3.829 5.741,-3.101 2.442,0.73 3.83,3.303 3.101,5.744 m -15.518,-12.981 c -0.667,2.82 -3.493,4.569 -6.315,3.901 -2.821,-0.666 -4.568,-3.493 -3.902,-6.317 0.668,-2.819 3.495,-4.567 6.315,-3.901 2.824,0.668 4.569,3.496 3.902,6.317 M 160.235,307.45 c -0.563,3.199 -3.612,5.338 -6.812,4.778 -3.2,-0.563 -5.34,-3.614 -4.779,-6.815 0.564,-3.2 3.614,-5.34 6.813,-4.776 3.201,0.562 5.34,3.612 4.778,6.813 m -17.859,-11.304 c -0.415,3.575 -3.65,6.137 -7.227,5.722 -3.575,-0.414 -6.135,-3.651 -5.721,-7.228 0.416,-3.575 3.651,-6.136 7.226,-5.718 3.576,0.414 6.139,3.649 5.722,7.224 m 73.541,109.611 c -0.042,0.085 -0.147,0.118 -0.234,0.076 -0.083,-0.044 -0.116,-0.148 -0.073,-0.232 0.043,-0.086 0.147,-0.12 0.233,-0.076 0.085,0.042 0.119,0.146 0.074,0.232 m -9.895,-13.92 c -0.179,0.411 -0.656,0.594 -1.065,0.413 -0.408,-0.181 -0.593,-0.654 -0.413,-1.063 0.182,-0.411 0.656,-0.593 1.065,-0.412 0.409,0.177 0.592,0.655 0.413,1.062 m -11.121,-13.536 c -0.278,0.748 -1.107,1.125 -1.854,0.847 -0.747,-0.278 -1.126,-1.107 -0.847,-1.855 0.278,-0.745 1.108,-1.125 1.853,-0.847 0.748,0.279 1.128,1.109 0.848,1.855 m -12.333,-13.057 c -0.339,1.096 -1.5,1.711 -2.597,1.374 -1.094,-0.339 -1.711,-1.499 -1.373,-2.595 0.336,-1.097 1.499,-1.712 2.595,-1.374 1.097,0.336 1.712,1.497 1.375,2.595 m -13.527,-12.482 c -0.357,1.454 -1.826,2.343 -3.28,1.987 -1.454,-0.355 -2.344,-1.824 -1.987,-3.276 0.357,-1.457 1.825,-2.346 3.278,-1.989 1.453,0.355 2.344,1.823 1.989,3.278 m -14.697,-11.813 c -0.333,1.819 -2.078,3.022 -3.894,2.685 -1.818,-0.336 -3.021,-2.079 -2.685,-3.895 0.335,-1.818 2.079,-3.019 3.896,-2.685 1.817,0.335 3.018,2.08 2.683,3.895 m -15.827,-11.046 c -0.272,2.181 -2.261,3.73 -4.442,3.456 -2.181,-0.271 -3.729,-2.26 -3.457,-4.44 0.272,-2.183 2.261,-3.729 4.442,-3.457 2.18,0.272 3.728,2.259 3.457,4.441 m -16.92,-10.191 c -0.168,2.543 -2.365,4.469 -4.908,4.302 -2.545,-0.168 -4.47,-2.367 -4.302,-4.909 0.168,-2.543 2.363,-4.469 4.909,-4.302 2.542,0.169 4.468,2.366 4.301,4.909 m 38.903,66.371 c -0.024,0.093 -0.115,0.148 -0.208,0.125 -0.093,-0.024 -0.15,-0.118 -0.125,-0.211 0.022,-0.094 0.118,-0.148 0.209,-0.123 0.092,0.022 0.149,0.116 0.124,0.209 m -12.667,-11.397 c -0.083,0.438 -0.506,0.724 -0.945,0.639 -0.437,-0.084 -0.724,-0.506 -0.64,-0.947 0.083,-0.438 0.507,-0.724 0.945,-0.639 0.439,0.085 0.726,0.51 0.64,0.947 m -13.782,-10.757 c -0.103,0.79 -0.83,1.345 -1.617,1.239 -0.79,-0.106 -1.347,-0.83 -1.242,-1.62 0.106,-0.79 0.829,-1.342 1.622,-1.237 0.79,0.103 1.343,0.828 1.237,1.618 m -14.863,-10.021 c -0.084,1.143 -1.079,2.002 -2.223,1.914 -1.144,-0.085 -2.001,-1.079 -1.918,-2.222 0.085,-1.144 1.081,-2.004 2.226,-1.92 1.144,0.088 2.001,1.083 1.915,2.228 m -15.9,-9.203 c -0.024,1.497 -1.258,2.692 -2.755,2.669 -1.498,-0.024 -2.693,-1.259 -2.668,-2.757 0.024,-1.495 1.257,-2.687 2.753,-2.665 1.498,0.025 2.692,1.257 2.67,2.753 m -0.924,34.563 c -0.002,0.096 -0.08,0.171 -0.178,0.17 -0.094,-0.003 -0.17,-0.08 -0.169,-0.176 0.002,-0.097 0.084,-0.173 0.179,-0.17 0.095,0.003 0.17,0.08 0.168,0.176 m -14.818,-8.337 c 0.017,0.446 -0.332,0.82 -0.778,0.835 -0.448,0.015 -0.819,-0.335 -0.836,-0.781 -0.015,-0.445 0.334,-0.818 0.781,-0.833 0.443,-0.017 0.819,0.333 0.833,0.779 m 167.681,-42.892 c -2.551,0.023 -4.635,-2.025 -4.66,-4.573 -0.021,-2.547 2.026,-4.633 4.576,-4.656 2.547,-0.021 4.632,2.025 4.655,4.573 0.023,2.549 -2.024,4.633 -4.571,4.656 m 7.781,-18.702 c -2.893,0.194 -5.395,-1.994 -5.591,-4.885 -0.193,-2.893 1.995,-5.395 4.888,-5.591 2.891,-0.192 5.394,1.992 5.588,4.885 0.195,2.893 -1.992,5.397 -4.885,5.591 m 6.675,-19.604 c -3.224,0.405 -6.167,-1.877 -6.576,-5.102 -0.403,-3.223 1.88,-6.166 5.104,-6.572 3.224,-0.407 6.167,1.879 6.575,5.102 0.403,3.223 -1.88,6.166 -5.103,6.572 m 5.486,-20.435 c -3.541,0.657 -6.942,-1.679 -7.6,-5.218 -0.655,-3.54 1.68,-6.942 5.219,-7.6 3.539,-0.656 6.941,1.682 7.599,5.219 0.656,3.54 -1.68,6.943 -5.218,7.599 m 4.222,-21.193 c -3.835,0.943 -7.711,-1.398 -8.657,-5.233 -0.944,-3.836 1.396,-7.711 5.233,-8.656 3.836,-0.947 7.711,1.396 8.656,5.231 0.946,3.836 -1.396,7.712 -5.232,8.658 m 2.894,-21.873 c -4.111,1.27 -8.472,-1.03 -9.742,-5.14 -1.272,-4.108 1.031,-8.468 5.139,-9.739 4.107,-1.27 8.47,1.03 9.74,5.138 1.271,4.11 -1.03,8.47 -5.137,9.741 m 1.493,-22.467 c -4.357,1.629 -9.208,-0.581 -10.838,-4.937 -1.63,-4.358 0.579,-9.209 4.935,-10.841 4.357,-1.629 9.209,0.583 10.839,4.939 1.629,4.356 -0.582,9.207 -4.936,10.839 m -54.581,107.777 c -1.494,0.09 -2.777,-1.051 -2.867,-2.545 -0.087,-1.495 1.052,-2.779 2.547,-2.866 1.497,-0.088 2.779,1.051 2.866,2.546 0.088,1.494 -1.052,2.779 -2.546,2.865 m 6.905,-17.576 c -1.833,0.217 -3.495,-1.097 -3.711,-2.932 -0.217,-1.835 1.094,-3.499 2.932,-3.713 1.834,-0.217 3.496,1.097 3.712,2.933 0.216,1.835 -1.098,3.497 -2.933,3.712 m 5.839,-18.429 c -2.163,0.383 -4.23,-1.062 -4.611,-3.224 -0.383,-2.167 1.06,-4.231 3.224,-4.614 2.166,-0.385 4.23,1.061 4.614,3.226 0.383,2.164 -1.061,4.228 -3.227,4.612 m 4.697,-19.215 c -2.479,0.587 -4.965,-0.942 -5.556,-3.422 -0.588,-2.48 0.943,-4.967 3.423,-5.558 2.48,-0.588 4.966,0.943 5.557,3.423 0.588,2.479 -0.945,4.967 -3.424,5.557 m 3.484,-19.929 c -2.777,0.831 -5.704,-0.741 -6.537,-3.519 -0.834,-2.776 0.741,-5.703 3.519,-6.538 2.776,-0.831 5.704,0.744 6.536,3.518 0.834,2.779 -0.741,5.706 -3.518,6.539 m 2.199,-20.564 c -3.051,1.112 -6.428,-0.46 -7.543,-3.511 -1.112,-3.052 0.46,-6.43 3.512,-7.545 3.054,-1.113 6.432,0.459 7.543,3.51 1.114,3.055 -0.458,6.432 -3.512,7.546 m 0.861,-21.117 c -3.304,1.426 -7.141,-0.094 -8.569,-3.399 -1.428,-3.303 0.095,-7.138 3.399,-8.568 3.304,-1.429 7.139,0.093 8.566,3.398 1.429,3.305 -0.092,7.142 -3.396,8.569 m -58.155,118.491 c -0.095,0.008 -0.177,-0.067 -0.183,-0.162 -0.004,-0.095 0.07,-0.175 0.164,-0.18 0.096,-0.006 0.178,0.066 0.182,0.162 0.006,0.096 -0.066,0.177 -0.163,0.18 m 7.107,-15.527 c -0.445,0.05 -0.842,-0.272 -0.889,-0.716 -0.05,-0.444 0.268,-0.842 0.713,-0.89 0.446,-0.048 0.842,0.271 0.89,0.716 0.05,0.443 -0.271,0.841 -0.714,0.89 m 6.161,-16.4 c -0.785,0.134 -1.526,-0.396 -1.66,-1.182 -0.133,-0.785 0.396,-1.529 1.183,-1.66 0.784,-0.133 1.529,0.396 1.66,1.18 0.133,0.787 -0.396,1.531 -1.183,1.662 m 5.142,-17.209 c -1.118,0.255 -2.231,-0.443 -2.488,-1.562 -0.254,-1.117 0.443,-2.232 1.562,-2.487 1.117,-0.258 2.231,0.443 2.485,1.56 0.259,1.118 -0.439,2.232 -1.559,2.489 m 4.045,-17.956 c -1.437,0.418 -2.94,-0.41 -3.359,-1.847 -0.42,-1.438 0.407,-2.941 1.844,-3.359 1.439,-0.42 2.944,0.408 3.36,1.845 0.42,1.437 -0.407,2.94 -1.845,3.361 m 2.883,-18.634 c -1.74,0.62 -3.656,-0.289 -4.273,-2.031 -0.617,-1.741 0.291,-3.654 2.032,-4.273 1.741,-0.618 3.653,0.292 4.273,2.031 0.619,1.742 -0.293,3.655 -2.032,4.273 m 1.652,-19.23 c -2.024,0.856 -4.36,-0.094 -5.214,-2.118 -0.855,-2.025 0.094,-4.36 2.117,-5.215 2.026,-0.855 4.36,0.095 5.215,2.118 0.856,2.025 -0.091,4.359 -2.118,5.215 m 0.366,-19.749 c -2.287,1.126 -5.052,0.187 -6.178,-2.1 -1.128,-2.287 -0.187,-5.053 2.099,-6.179 2.286,-1.125 5.053,-0.189 6.18,2.1 1.126,2.285 0.185,5.053 -2.101,6.179 m -38.026,66.878 c -0.093,0.025 -0.187,-0.027 -0.213,-0.119 -0.026,-0.091 0.026,-0.188 0.12,-0.214 0.092,-0.026 0.188,0.028 0.212,0.12 0.026,0.091 -0.027,0.187 -0.119,0.213 m 3.537,-16.669 c -0.422,0.147 -0.88,-0.078 -1.026,-0.499 -0.147,-0.421 0.074,-0.881 0.498,-1.028 0.421,-0.147 0.882,0.078 1.028,0.499 0.145,0.422 -0.08,0.884 -0.5,1.028 m 2.423,-17.314 c -0.735,0.305 -1.578,-0.047 -1.881,-0.782 -0.304,-0.737 0.045,-1.582 0.782,-1.885 0.737,-0.303 1.578,0.047 1.883,0.786 0.304,0.735 -0.046,1.577 -0.784,1.881 m 1.247,-17.883 c -1.031,0.499 -2.272,0.066 -2.769,-0.968 -0.498,-1.033 -0.066,-2.272 0.966,-2.771 1.033,-0.5 2.276,-0.067 2.775,0.966 0.497,1.034 0.064,2.275 -0.972,2.773 m 0.02,-18.371 c -1.309,0.726 -2.96,0.256 -3.688,-1.053 -0.729,-1.308 -0.257,-2.96 1.052,-3.687 1.308,-0.728 2.957,-0.256 3.686,1.05 0.728,1.311 0.257,2.96 -1.05,3.69 m -30.395,16.481 c -0.084,0.046 -0.188,0.016 -0.235,-0.069 -0.044,-0.082 -0.015,-0.188 0.068,-0.235 0.085,-0.045 0.191,-0.013 0.237,0.07 0.044,0.085 0.014,0.189 -0.07,0.234 m -0.187,-17.001 c -0.379,0.237 -0.877,0.123 -1.112,-0.257 -0.237,-0.381 -0.121,-0.876 0.257,-1.114 0.378,-0.236 0.876,-0.12 1.113,0.26 0.236,0.376 0.121,0.875 -0.258,1.111 m 120.985,123.769 c -1.295,-2.198 -0.564,-5.026 1.631,-6.322 2.195,-1.291 5.026,-0.562 6.32,1.634 1.292,2.197 0.562,5.026 -1.633,6.32 -2.196,1.294 -5.025,0.563 -6.318,-1.632 m 20.087,-2.613 c -1.613,-2.407 -0.97,-5.668 1.437,-7.283 2.408,-1.614 5.668,-0.971 7.284,1.437 1.613,2.408 0.974,5.669 -1.438,7.282 -2.406,1.616 -5.668,0.974 -7.283,-1.436 m 20.315,-4.02 c -1.962,-2.588 -1.458,-6.28 1.132,-8.245 2.588,-1.962 6.278,-1.456 8.243,1.133 1.964,2.589 1.457,6.28 -1.132,8.245 -2.589,1.961 -6.279,1.455 -8.243,-1.133 m 20.44,-5.467 c -2.339,-2.738 -2.016,-6.85 0.719,-9.19 2.739,-2.338 6.852,-2.016 9.19,0.72 2.339,2.738 2.017,6.852 -0.719,9.19 -2.737,2.338 -6.851,2.016 -9.19,-0.72 m 20.464,-6.939 c -2.733,-2.851 -2.645,-7.378 0.204,-10.115 2.85,-2.735 7.377,-2.645 10.114,0.204 2.738,2.85 2.646,7.376 -0.203,10.112 -2.848,2.737 -7.376,2.647 -10.115,-0.201 m 20.391,-8.432 c -3.155,-2.924 -3.343,-7.852 -0.42,-11.005 2.922,-3.155 7.848,-3.342 11.004,-0.42 3.154,2.923 3.342,7.851 0.42,11.005 -2.923,3.154 -7.85,3.343 -11.004,0.42 m 20.204,-9.939 c -3.589,-2.959 -4.101,-8.266 -1.144,-11.856 2.958,-3.59 8.264,-4.101 11.855,-1.144 3.59,2.957 4.1,8.265 1.144,11.855 -2.958,3.59 -8.265,4.101 -11.855,1.145 m -120.63,6.621 c -0.823,-1.25 -0.477,-2.931 0.772,-3.756 1.252,-0.824 2.932,-0.479 3.756,0.772 0.824,1.252 0.479,2.933 -0.772,3.756 -1.251,0.822 -2.933,0.477 -3.756,-0.772 m 18.675,-2.81 c -1.103,-1.477 -0.798,-3.576 0.684,-4.68 1.48,-1.104 3.577,-0.8 4.681,0.683 1.104,1.481 0.799,3.577 -0.683,4.681 -1.482,1.106 -3.578,0.798 -4.682,-0.684 m 18.88,-4.157 c -1.415,-1.681 -1.196,-4.194 0.487,-5.606 1.683,-1.416 4.193,-1.197 5.607,0.486 1.414,1.681 1.196,4.192 -0.487,5.608 -1.683,1.414 -4.192,1.195 -5.607,-0.488 m 18.989,-5.54 c -1.749,-1.853 -1.667,-4.772 0.186,-6.523 1.853,-1.749 4.773,-1.668 6.524,0.186 1.749,1.853 1.666,4.772 -0.186,6.523 -1.853,1.749 -4.774,1.667 -6.524,-0.186 m 19.002,-6.947 c -2.111,-1.99 -2.212,-5.311 -0.223,-7.42 1.988,-2.111 5.311,-2.211 7.422,-0.222 2.107,1.988 2.208,5.311 0.221,7.419 -1.99,2.112 -5.311,2.211 -7.42,0.223 m 18.907,-8.377 c -2.488,-2.087 -2.815,-5.797 -0.731,-8.289 2.087,-2.489 5.799,-2.817 8.291,-0.731 2.491,2.089 2.818,5.799 0.731,8.288 -2.088,2.491 -5.799,2.819 -8.291,0.732 m 18.719,-9.815 c -2.888,-2.146 -3.49,-6.229 -1.341,-9.119 2.145,-2.89 6.229,-3.487 9.119,-1.342 2.889,2.149 3.489,6.231 1.341,9.118 -2.149,2.891 -6.231,3.493 -9.119,1.343 m -131.695,8.884 c -0.053,-0.08 -0.03,-0.189 0.05,-0.241 0.08,-0.05 0.185,-0.027 0.237,0.053 0.054,0.08 0.031,0.187 -0.05,0.239 -0.079,0.052 -0.186,0.03 -0.237,-0.051 m 17.001,-1.61 c -0.265,-0.36 -0.185,-0.865 0.176,-1.127 0.36,-0.266 0.862,-0.189 1.127,0.171 0.265,0.364 0.186,0.866 -0.176,1.13 -0.358,0.264 -0.863,0.185 -1.127,-0.174 m 17.284,-2.864 c -0.509,-0.613 -0.42,-1.519 0.193,-2.029 0.614,-0.507 1.522,-0.421 2.029,0.193 0.507,0.614 0.422,1.525 -0.192,2.03 -0.615,0.508 -1.523,0.422 -2.03,-0.194 m 17.473,-4.152 c -0.779,-0.84 -0.73,-2.154 0.111,-2.935 0.838,-0.778 2.153,-0.732 2.934,0.109 0.781,0.839 0.733,2.154 -0.11,2.933 -0.838,0.782 -2.152,0.735 -2.935,-0.107 m 17.573,-5.475 c -1.08,-1.035 -1.116,-2.751 -0.079,-3.833 1.034,-1.081 2.75,-1.117 3.83,-0.082 1.082,1.037 1.121,2.753 0.083,3.834 -1.034,1.081 -2.751,1.117 -3.834,0.081 m 17.58,-6.82 c -1.408,-1.197 -1.578,-3.31 -0.378,-4.715 1.2,-1.406 3.31,-1.576 4.716,-0.377 1.407,1.198 1.575,3.31 0.377,4.716 -1.198,1.407 -3.31,1.574 -4.715,0.376 m 17.479,-8.184 c -1.753,-1.326 -2.098,-3.823 -0.772,-5.575 1.326,-1.753 3.824,-2.098 5.574,-0.774 1.755,1.327 2.099,3.824 0.773,5.576 -1.325,1.754 -3.819,2.101 -5.575,0.773 m 17.287,-9.557 c -2.119,-1.417 -2.688,-4.282 -1.272,-6.401 1.418,-2.121 4.284,-2.688 6.401,-1.272 2.119,1.418 2.69,4.282 1.272,6.402 -1.417,2.118 -4.283,2.687 -6.401,1.271 m -76.932,0.507 c -0.067,-0.069 -0.071,-0.175 -0.004,-0.244 0.068,-0.069 0.177,-0.071 0.247,-0.002 0.069,0.066 0.068,0.175 0.002,0.243 -0.067,0.068 -0.176,0.07 -0.245,0.003 m 16.205,-5.271 c -0.337,-0.293 -0.373,-0.802 -0.081,-1.139 0.291,-0.337 0.8,-0.376 1.139,-0.082 0.338,0.291 0.373,0.802 0.082,1.139 -0.295,0.337 -0.804,0.373 -1.14,0.082 m 16.206,-6.558 c -0.632,-0.485 -0.749,-1.392 -0.264,-2.022 0.485,-0.63 1.394,-0.75 2.023,-0.264 0.631,0.487 0.749,1.39 0.262,2.023 -0.485,0.632 -1.391,0.75 -2.021,0.263 m 16.11,-7.862 c -0.947,-0.644 -1.194,-1.935 -0.546,-2.883 0.645,-0.948 1.936,-1.192 2.884,-0.549 0.949,0.645 1.193,1.939 0.549,2.887 -0.647,0.948 -1.939,1.193 -2.887,0.545 m 15.92,-9.169 c -1.284,-0.769 -1.702,-2.434 -0.933,-3.719 0.771,-1.287 2.436,-1.704 3.721,-0.933 1.284,0.768 1.699,2.432 0.932,3.717 -0.77,1.286 -2.435,1.703 -3.72,0.935 M 344.45,163.74 c -0.082,-0.05 -0.106,-0.154 -0.057,-0.238 0.049,-0.08 0.155,-0.106 0.237,-0.058 0.083,0.05 0.108,0.159 0.058,0.24 -0.05,0.081 -0.156,0.107 -0.238,0.056 m 15.722,-8.996 c 0.211,-0.393 0.061,-0.883 -0.332,-1.093 -0.395,-0.208 -0.883,-0.06 -1.093,0.334 -0.212,0.394 -0.062,0.883 0.333,1.093 0.394,0.209 0.885,0.06 1.092,-0.334"
                   style="fill:url(#linearGradient4897);stroke:none"
                   id="path4899"
                   inkscape:connector-curvature="0" /></g></g></g></g><path
           d="m 312.385,321.738 c 1.256,-2.22 4.071,-3.001 6.291,-1.748 2.216,1.255 2.998,4.071 1.744,6.29 -1.255,2.217 -4.069,2.999 -6.288,1.745 -2.219,-1.254 -3,-4.069 -1.747,-6.287 z m 12.306,16.09 c 1.279,-2.602 4.424,-3.674 7.026,-2.398 2.601,1.279 3.676,4.424 2.397,7.028 -1.278,2.6 -4.421,3.676 -7.023,2.396 -2.604,-1.277 -3.678,-4.424 -2.4,-7.026 z m 13.639,15.582 c 1.263,-2.994 4.71,-4.402 7.707,-3.143 2.994,1.262 4.401,4.711 3.141,7.707 -1.261,2.994 -4.711,4.401 -7.706,3.142 -2.993,-1.262 -4.401,-4.711 -3.142,-7.706 z m 14.955,14.969 c 1.202,-3.394 4.926,-5.172 8.319,-3.972 3.394,1.202 5.171,4.926 3.972,8.319 -1.202,3.394 -4.928,5.172 -8.319,3.972 -3.394,-1.202 -5.172,-4.927 -3.972,-8.319 z m 16.242,14.252 c 1.102,-3.791 5.067,-5.978 8.861,-4.88 3.795,1.101 5.979,5.066 4.882,8.861 -1.1,3.796 -5.067,5.979 -8.861,4.88 -3.793,-1.098 -5.98,-5.064 -4.882,-8.861 z m 17.496,13.444 c 0.956,-4.194 5.129,-6.822 9.323,-5.867 4.193,0.953 6.817,5.127 5.865,9.319 -0.953,4.194 -5.128,6.823 -9.321,5.868 -4.194,-0.956 -6.819,-5.128 -5.867,-9.32 z m 18.712,12.528 c 0.767,-4.589 5.107,-7.686 9.694,-6.919 4.59,0.768 7.685,5.106 6.92,9.694 -0.767,4.588 -5.109,7.684 -9.697,6.919 -4.586,-0.768 -7.682,-5.108 -6.917,-9.694 z M 339.687,307.445 c 0.669,-1.339 2.298,-1.88 3.637,-1.211 1.34,0.673 1.88,2.301 1.209,3.64 -0.673,1.339 -2.301,1.88 -3.638,1.209 -1.338,-0.671 -1.88,-2.301 -1.208,-3.638 z m 11.768,14.767 c 0.73,-1.694 2.699,-2.479 4.397,-1.747 1.696,0.729 2.481,2.698 1.748,4.395 -0.73,1.698 -2.698,2.48 -4.395,1.749 -1.697,-0.73 -2.48,-2.7 -1.75,-4.397 z m 13.041,14.272 c 0.749,-2.066 3.034,-3.132 5.098,-2.381 2.067,0.751 3.135,3.033 2.383,5.099 -0.749,2.067 -3.033,3.132 -5.099,2.382 -2.065,-0.75 -3.133,-3.033 -2.382,-5.1 z m 14.292,13.676 c 0.732,-2.442 3.299,-3.829 5.742,-3.101 2.442,0.73 3.831,3.3 3.102,5.743 -0.731,2.441 -3.3,3.828 -5.742,3.099 -2.443,-0.728 -3.831,-3.3 -3.102,-5.741 z m 15.519,12.982 c 0.666,-2.822 3.493,-4.571 6.314,-3.903 2.821,0.667 4.569,3.493 3.903,6.316 -0.669,2.821 -3.497,4.568 -6.315,3.901 -2.824,-0.666 -4.57,-3.494 -3.902,-6.314 z m 16.707,12.185 c 0.563,-3.199 3.613,-5.336 6.812,-4.776 3.2,0.563 5.341,3.614 4.779,6.813 -0.563,3.201 -3.614,5.341 -6.812,4.778 -3.202,-0.563 -5.34,-3.612 -4.779,-6.815 z m 17.859,11.304 c 0.415,-3.575 3.65,-6.137 7.227,-5.721 3.576,0.415 6.135,3.651 5.721,7.227 -0.415,3.575 -3.651,6.137 -7.225,5.72 -3.577,-0.415 -6.14,-3.649 -5.723,-7.226 z m -73.54,-109.61 c 0.042,-0.085 0.146,-0.119 0.232,-0.076 0.085,0.043 0.117,0.147 0.074,0.233 -0.042,0.085 -0.148,0.12 -0.233,0.075 -0.085,-0.043 -0.119,-0.147 -0.073,-0.232 z m 9.895,13.92 c 0.178,-0.411 0.656,-0.594 1.064,-0.412 0.408,0.179 0.594,0.653 0.413,1.062 -0.181,0.411 -0.656,0.594 -1.065,0.412 -0.408,-0.177 -0.592,-0.654 -0.412,-1.062 z m 11.121,13.536 c 0.277,-0.748 1.106,-1.124 1.853,-0.847 0.746,0.278 1.126,1.106 0.847,1.854 -0.278,0.745 -1.108,1.126 -1.852,0.847 -0.748,-0.278 -1.128,-1.108 -0.848,-1.854 z m 12.332,13.057 c 0.34,-1.096 1.5,-1.711 2.597,-1.373 1.094,0.337 1.711,1.498 1.373,2.595 -0.336,1.097 -1.499,1.712 -2.594,1.372 -1.097,-0.335 -1.712,-1.496 -1.376,-2.594 z m 13.528,12.481 c 0.356,-1.453 1.824,-2.342 3.279,-1.986 1.454,0.355 2.344,1.824 1.988,3.276 -0.357,1.456 -1.825,2.346 -3.279,1.989 -1.454,-0.355 -2.343,-1.823 -1.988,-3.279 z m 14.696,11.814 c 0.334,-1.818 2.077,-3.022 3.895,-2.685 1.817,0.336 3.02,2.079 2.685,3.896 -0.336,1.816 -2.08,3.018 -3.896,2.684 -1.818,-0.335 -3.019,-2.079 -2.684,-3.895 z m 15.828,11.045 c 0.272,-2.181 2.261,-3.728 4.442,-3.456 2.181,0.271 3.728,2.262 3.457,4.44 -0.272,2.183 -2.262,3.73 -4.443,3.457 -2.18,-0.271 -3.727,-2.257 -3.456,-4.441 z m 16.92,10.192 c 0.167,-2.544 2.364,-4.469 4.908,-4.301 2.544,0.167 4.469,2.364 4.301,4.908 -0.168,2.543 -2.362,4.47 -4.909,4.301 -2.542,-0.167 -4.467,-2.366 -4.3,-4.908 z m -38.905,-66.371 c 0.024,-0.092 0.116,-0.148 0.209,-0.125 0.094,0.024 0.151,0.118 0.125,0.211 -0.022,0.093 -0.116,0.149 -0.209,0.124 -0.092,-0.023 -0.149,-0.117 -0.125,-0.21 z m 12.668,11.398 c 0.084,-0.438 0.506,-0.723 0.945,-0.639 0.437,0.083 0.726,0.505 0.641,0.945 -0.084,0.439 -0.508,0.725 -0.946,0.641 -0.438,-0.087 -0.725,-0.51 -0.64,-0.947 z m 13.783,10.755 c 0.103,-0.79 0.829,-1.343 1.616,-1.238 0.79,0.105 1.347,0.83 1.243,1.621 -0.107,0.788 -0.829,1.343 -1.623,1.237 -0.789,-0.104 -1.343,-0.83 -1.236,-1.62 z m 14.862,10.022 c 0.085,-1.143 1.08,-2.001 2.223,-1.914 1.144,0.084 2.001,1.08 1.918,2.222 -0.084,1.145 -1.081,2.004 -2.225,1.919 -1.145,-0.086 -2.002,-1.082 -1.916,-2.227 z m 15.901,9.203 c 0.024,-1.498 1.258,-2.692 2.755,-2.669 1.499,0.024 2.692,1.259 2.668,2.756 -0.025,1.497 -1.257,2.688 -2.753,2.666 -1.499,-0.024 -2.692,-1.258 -2.67,-2.753 z m 0.924,-34.564 c 0.002,-0.096 0.08,-0.17 0.177,-0.169 0.094,0.002 0.17,0.081 0.168,0.176 -10e-4,0.097 -0.083,0.172 -0.177,0.17 -0.095,-0.003 -0.17,-0.081 -0.168,-0.177 z m 14.817,8.338 c -0.015,-0.446 0.333,-0.821 0.778,-0.834 0.449,-0.016 0.82,0.334 0.837,0.779 0.015,0.446 -0.335,0.82 -0.781,0.834 -0.444,0.017 -0.819,-0.333 -0.834,-0.779 z m -167.68,42.892 c 2.55,-0.023 4.634,2.024 4.659,4.574 0.021,2.546 -2.026,4.631 -4.575,4.655 -2.547,0.022 -4.632,-2.025 -4.655,-4.573 -0.024,-2.549 2.024,-4.633 4.571,-4.656 z m -7.781,18.702 c 2.892,-0.193 5.394,1.995 5.59,4.885 0.192,2.894 -1.993,5.395 -4.887,5.591 -2.89,0.192 -5.395,-1.991 -5.589,-4.886 -0.196,-2.891 1.993,-5.396 4.886,-5.59 z m -6.675,19.602 c 3.224,-0.404 6.167,1.879 6.575,5.104 0.404,3.223 -1.88,6.166 -5.104,6.573 -3.223,0.406 -6.166,-1.879 -6.575,-5.103 -0.403,-3.223 1.881,-6.165 5.104,-6.574 z m -5.486,20.437 c 3.54,-0.657 6.941,1.68 7.599,5.218 0.656,3.54 -1.68,6.942 -5.218,7.599 -3.54,0.657 -6.942,-1.681 -7.599,-5.218 -0.656,-3.54 1.679,-6.942 5.218,-7.599 z m -4.223,21.192 c 3.835,-0.942 7.712,1.398 8.658,5.233 0.943,3.837 -1.397,7.712 -5.234,8.658 -3.835,0.946 -7.71,-1.397 -8.656,-5.232 -0.945,-3.836 1.396,-7.712 5.232,-8.659 z m -2.893,21.874 c 4.11,-1.27 8.472,1.031 9.742,5.14 1.272,4.107 -1.031,8.467 -5.139,9.739 -4.108,1.271 -8.471,-1.031 -9.741,-5.139 -1.27,-4.109 1.03,-8.469 5.138,-9.74 z m -1.493,22.468 c 4.356,-1.63 9.208,0.58 10.838,4.936 1.63,4.358 -0.58,9.209 -4.935,10.84 -4.357,1.63 -9.209,-0.582 -10.84,-4.938 -1.629,-4.355 0.582,-9.207 4.937,-10.838 z m 54.58,-107.78 c 1.494,-0.088 2.778,1.054 2.867,2.547 0.087,1.495 -1.052,2.779 -2.547,2.866 -1.497,0.088 -2.779,-1.051 -2.866,-2.546 -0.088,-1.495 1.052,-2.779 2.546,-2.867 z m -6.905,17.577 c 1.832,-0.216 3.497,1.098 3.711,2.934 0.218,1.834 -1.094,3.498 -2.931,3.712 -1.835,0.217 -3.496,-1.097 -3.712,-2.932 -0.217,-1.835 1.098,-3.498 2.932,-3.714 z m -5.838,18.43 c 2.163,-0.384 4.229,1.062 4.611,3.224 0.384,2.167 -1.061,4.231 -3.224,4.613 -2.166,0.385 -4.23,-1.06 -4.614,-3.224 -0.383,-2.165 1.062,-4.229 3.227,-4.613 z m -4.698,19.215 c 2.48,-0.588 4.965,0.942 5.556,3.422 0.59,2.48 -0.942,4.968 -3.423,5.557 -2.478,0.589 -4.966,-0.943 -5.556,-3.422 -0.588,-2.479 0.944,-4.968 3.423,-5.557 z m -3.483,19.93 c 2.776,-0.833 5.703,0.74 6.537,3.518 0.833,2.776 -0.74,5.703 -3.519,6.538 -2.777,0.831 -5.705,-0.744 -6.537,-3.519 -0.834,-2.779 0.743,-5.704 3.519,-6.537 z m -2.2,20.563 c 3.051,-1.112 6.428,0.46 7.543,3.511 1.112,3.053 -0.459,6.431 -3.511,7.545 -3.055,1.112 -6.433,-0.459 -7.544,-3.511 -1.114,-3.054 0.458,-6.431 3.512,-7.545 z m -0.861,21.118 c 3.304,-1.428 7.141,0.093 8.569,3.398 1.428,3.304 -0.094,7.139 -3.398,8.568 -3.303,1.428 -7.14,-0.093 -8.566,-3.398 -1.43,-3.304 0.092,-7.141 3.395,-8.568 z m 58.156,-118.493 c 0.095,-0.007 0.176,0.068 0.183,0.163 0.004,0.096 -0.071,0.175 -0.165,0.181 -0.095,0.005 -0.178,-0.068 -0.181,-0.165 -0.007,-0.094 0.067,-0.175 0.163,-0.179 z m -7.107,15.529 c 0.444,-0.05 0.842,0.272 0.888,0.715 0.05,0.444 -0.268,0.841 -0.712,0.89 -0.447,0.048 -0.843,-0.272 -0.89,-0.717 -0.05,-0.442 0.271,-0.84 0.714,-0.888 z m -6.162,16.399 c 0.786,-0.134 1.526,0.396 1.66,1.182 0.133,0.785 -0.395,1.528 -1.181,1.661 -0.786,0.131 -1.531,-0.397 -1.661,-1.181 -0.133,-0.787 0.396,-1.531 1.182,-1.662 z m -5.141,17.209 c 1.119,-0.254 2.231,0.444 2.488,1.562 0.254,1.116 -0.444,2.231 -1.562,2.488 -1.118,0.257 -2.232,-0.443 -2.486,-1.562 -0.259,-1.116 0.44,-2.23 1.56,-2.488 z m -4.046,17.956 c 1.437,-0.417 2.941,0.409 3.36,1.847 0.419,1.438 -0.408,2.942 -1.844,3.359 -1.439,0.419 -2.944,-0.407 -3.361,-1.844 -0.419,-1.437 0.406,-2.942 1.845,-3.362 z m -2.882,18.634 c 1.74,-0.62 3.655,0.289 4.273,2.03 0.617,1.743 -0.292,3.656 -2.032,4.273 -1.742,0.619 -3.654,-0.291 -4.272,-2.031 -0.621,-1.741 0.291,-3.654 2.031,-4.272 z m -1.652,19.23 c 2.024,-0.855 4.359,0.094 5.214,2.119 0.854,2.025 -0.094,4.36 -2.117,5.214 -2.026,0.855 -4.36,-0.094 -5.216,-2.118 -0.854,-2.025 0.092,-4.358 2.119,-5.215 z m -0.367,19.749 c 2.286,-1.127 5.052,-0.187 6.179,2.099 1.127,2.288 0.186,5.055 -2.1,6.18 -2.285,1.126 -5.051,0.189 -6.179,-2.101 -1.126,-2.285 -0.186,-5.052 2.1,-6.178 z m 38.027,-66.878 c 0.092,-0.025 0.187,0.026 0.212,0.118 0.027,0.093 -0.025,0.189 -0.119,0.215 -0.092,0.027 -0.188,-0.028 -0.213,-0.12 -0.026,-0.091 0.027,-0.187 0.12,-0.213 z m -3.538,16.67 c 0.422,-0.147 0.881,0.076 1.027,0.499 0.146,0.42 -0.075,0.88 -0.498,1.027 -0.422,0.147 -0.881,-0.077 -1.028,-0.499 -0.144,-0.422 0.079,-0.883 0.499,-1.027 z m -2.422,17.313 c 0.735,-0.305 1.578,0.047 1.88,0.782 0.304,0.736 -0.045,1.581 -0.783,1.885 -0.735,0.303 -1.577,-0.047 -1.882,-0.786 -0.304,-0.735 0.047,-1.578 0.785,-1.881 z m -1.248,17.882 c 1.032,-0.498 2.273,-0.065 2.769,0.969 0.499,1.033 0.066,2.272 -0.967,2.772 -1.031,0.499 -2.275,0.065 -2.774,-0.968 -0.496,-1.034 -0.063,-2.274 0.972,-2.773 z m -0.02,18.373 c 1.309,-0.728 2.96,-0.258 3.689,1.051 0.728,1.309 0.256,2.961 -1.053,3.688 -1.309,0.727 -2.956,0.256 -3.686,-1.051 -0.727,-1.309 -0.257,-2.96 1.05,-3.688 z m 30.395,-16.483 c 0.084,-0.045 0.187,-0.014 0.235,0.07 0.046,0.083 0.016,0.188 -0.067,0.234 -0.086,0.046 -0.192,0.015 -0.237,-0.07 -0.045,-0.084 -0.015,-0.187 0.069,-0.234 z m 0.188,17.002 c 0.378,-0.237 0.877,-0.122 1.111,0.257 0.239,0.38 0.12,0.876 -0.256,1.114 -0.379,0.236 -0.876,0.12 -1.113,-0.259 -0.236,-0.377 -0.121,-0.876 0.258,-1.112 z M 289.263,374.389 c 1.294,2.198 0.564,5.027 -1.632,6.322 -2.194,1.292 -5.024,0.561 -6.319,-1.634 -1.293,-2.196 -0.562,-5.024 1.633,-6.318 2.195,-1.295 5.024,-0.564 6.318,1.63 z m -20.089,2.612 c 1.615,2.409 0.972,5.67 -1.434,7.285 -2.41,1.613 -5.669,0.97 -7.285,-1.437 -1.613,-2.407 -0.974,-5.668 1.436,-7.282 2.407,-1.615 5.669,-0.973 7.283,1.434 z m -20.313,4.021 c 1.962,2.591 1.457,6.281 -1.132,8.246 -2.589,1.961 -6.279,1.455 -8.244,-1.133 -1.964,-2.589 -1.456,-6.28 1.133,-8.244 2.588,-1.962 6.278,-1.456 8.243,1.131 z m -20.441,5.467 c 2.339,2.738 2.018,6.853 -0.719,9.191 -2.738,2.339 -6.851,2.016 -9.19,-0.72 -2.338,-2.736 -2.015,-6.852 0.719,-9.19 2.738,-2.338 6.853,-2.016 9.19,0.719 z m -20.464,6.941 c 2.733,2.849 2.645,7.376 -0.204,10.113 -2.85,2.736 -7.377,2.646 -10.113,-0.203 -2.738,-2.849 -2.646,-7.376 0.202,-10.112 2.849,-2.737 7.377,-2.648 10.115,0.202 z m -20.39,8.431 c 3.155,2.924 3.343,7.851 0.419,11.006 -2.921,3.154 -7.848,3.341 -11.004,0.419 -3.153,-2.922 -3.342,-7.851 -0.419,-11.005 2.923,-3.155 7.85,-3.343 11.004,-0.42 z m -20.205,9.939 c 3.59,2.959 4.102,8.266 1.144,11.855 -2.958,3.591 -8.264,4.102 -11.854,1.146 -3.59,-2.959 -4.101,-8.266 -1.145,-11.857 2.959,-3.588 8.266,-4.099 11.855,-1.144 z m 120.63,-6.621 c 0.825,1.251 0.477,2.932 -0.771,3.757 -1.252,0.823 -2.933,0.478 -3.757,-0.773 -0.823,-1.252 -0.478,-2.933 0.772,-3.755 1.251,-0.824 2.933,-0.478 3.756,0.771 z m -18.675,2.809 c 1.104,1.479 0.798,3.576 -0.684,4.681 -1.479,1.104 -3.577,0.8 -4.681,-0.683 -1.105,-1.48 -0.799,-3.576 0.684,-4.681 1.481,-1.105 3.578,-0.798 4.681,0.683 z m -18.879,4.158 c 1.414,1.682 1.195,4.194 -0.486,5.606 -1.685,1.415 -4.194,1.197 -5.608,-0.486 -1.416,-1.683 -1.197,-4.193 0.486,-5.608 1.683,-1.413 4.192,-1.196 5.608,0.488 z m -18.989,5.54 c 1.748,1.853 1.666,4.771 -0.186,6.522 -1.853,1.75 -4.773,1.668 -6.525,-0.186 -1.748,-1.852 -1.666,-4.772 0.187,-6.522 1.852,-1.75 4.773,-1.666 6.524,0.186 z m -19.002,6.948 c 2.11,1.989 2.211,5.31 0.221,7.42 -1.986,2.109 -5.308,2.21 -7.421,0.221 -2.108,-1.988 -2.207,-5.311 -0.22,-7.42 1.989,-2.111 5.311,-2.209 7.42,-0.221 z m -18.907,8.376 c 2.488,2.087 2.815,5.798 0.73,8.289 -2.087,2.489 -5.799,2.817 -8.29,0.731 -2.49,-2.089 -2.818,-5.8 -0.731,-8.289 2.088,-2.491 5.798,-2.819 8.291,-0.731 z m -18.72,9.815 c 2.889,2.147 3.49,6.229 1.342,9.119 -2.147,2.889 -6.229,3.488 -9.119,1.341 -2.889,-2.147 -3.49,-6.23 -1.341,-9.117 2.147,-2.89 6.23,-3.492 9.118,-1.343 z m 131.696,-8.883 c 0.052,0.079 0.03,0.187 -0.051,0.24 -0.08,0.051 -0.186,0.026 -0.237,-0.053 -0.053,-0.08 -0.031,-0.188 0.05,-0.238 0.079,-0.054 0.186,-0.031 0.238,0.051 z m -17.001,1.609 c 0.265,0.36 0.184,0.865 -0.177,1.128 -0.359,0.264 -0.861,0.188 -1.126,-0.173 -0.265,-0.362 -0.186,-0.865 0.176,-1.129 0.357,-0.264 0.863,-0.186 1.127,0.174 z m -17.284,2.864 c 0.509,0.614 0.419,1.52 -0.193,2.028 -0.615,0.508 -1.522,0.422 -2.03,-0.193 -0.506,-0.614 -0.421,-1.523 0.192,-2.028 0.616,-0.51 1.524,-0.423 2.031,0.193 z m -17.475,4.151 c 0.78,0.842 0.732,2.155 -0.109,2.936 -0.839,0.778 -2.153,0.732 -2.934,-0.108 -0.781,-0.839 -0.732,-2.154 0.11,-2.934 0.837,-0.782 2.15,-0.734 2.933,0.106 z m -17.573,5.475 c 1.081,1.036 1.116,2.751 0.081,3.834 -1.035,1.082 -2.751,1.118 -3.831,0.082 -1.082,-1.037 -1.119,-2.753 -0.083,-3.833 1.034,-1.082 2.751,-1.119 3.833,-0.083 z m -17.579,6.82 c 1.408,1.199 1.579,3.311 0.379,4.716 -1.2,1.406 -3.312,1.576 -4.716,0.378 -1.408,-1.2 -1.576,-3.31 -0.378,-4.717 1.199,-1.406 3.311,-1.574 4.715,-0.377 z m -17.479,8.185 c 1.753,1.325 2.099,3.823 0.772,5.575 -1.325,1.753 -3.822,2.099 -5.574,0.774 -1.754,-1.328 -2.098,-3.824 -0.773,-5.576 1.326,-1.753 3.82,-2.1 5.575,-0.773 z m -17.286,9.557 c 2.119,1.417 2.688,4.282 1.271,6.4 -1.417,2.121 -4.283,2.69 -6.401,1.272 -2.119,-1.417 -2.69,-4.281 -1.271,-6.401 1.416,-2.119 4.283,-2.687 6.401,-1.271 z m 76.931,-0.507 c 0.067,0.068 0.07,0.175 0.004,0.244 -0.067,0.069 -0.177,0.072 -0.245,0.003 -0.07,-0.067 -0.07,-0.176 -0.003,-0.244 0.065,-0.067 0.175,-0.07 0.244,-0.003 z m -16.205,5.272 c 0.338,0.292 0.374,0.8 0.082,1.138 -0.292,0.337 -0.8,0.375 -1.14,0.082 -0.338,-0.292 -0.374,-0.802 -0.082,-1.139 0.294,-0.337 0.805,-0.373 1.14,-0.081 z m -16.205,6.558 c 0.632,0.485 0.748,1.39 0.263,2.02 -0.485,0.632 -1.392,0.751 -2.024,0.265 -0.629,-0.486 -0.748,-1.39 -0.26,-2.023 0.484,-0.631 1.389,-0.749 2.021,-0.262 z m -16.11,7.861 c 0.947,0.644 1.193,1.935 0.546,2.883 -0.646,0.948 -1.936,1.192 -2.884,0.549 -0.949,-0.645 -1.195,-1.939 -0.548,-2.887 0.645,-0.947 1.936,-1.192 2.886,-0.545 z m -15.921,9.169 c 1.285,0.769 1.702,2.435 0.934,3.72 -0.77,1.285 -2.436,1.702 -3.72,0.932 -1.285,-0.769 -1.701,-2.432 -0.933,-3.717 0.77,-1.285 2.434,-1.702 3.719,-0.935 z m 29.471,18.081 c 0.082,0.05 0.107,0.155 0.057,0.239 -0.048,0.08 -0.154,0.107 -0.236,0.058 -0.083,-0.05 -0.108,-0.158 -0.057,-0.239 0.049,-0.081 0.155,-0.108 0.236,-0.058 z m -14.629,8.664 c 0.394,0.209 0.544,0.698 0.333,1.091 -0.21,0.396 -0.699,0.542 -1.093,0.334 -0.393,-0.209 -0.542,-0.698 -0.332,-1.093 0.208,-0.392 0.698,-0.542 1.092,-0.332 z M 258.864,361.04 c -1.256,2.219 -4.07,3.002 -6.29,1.748 -2.216,-1.255 -2.999,-4.072 -1.744,-6.289 1.254,-2.219 4.069,-3.001 6.287,-1.747 2.22,1.255 3.001,4.07 1.747,6.288 z m -12.306,-16.091 c -1.278,2.602 -4.425,3.676 -7.025,2.399 -2.603,-1.28 -3.677,-4.423 -2.399,-7.027 1.279,-2.599 4.423,-3.677 7.025,-2.396 2.603,1.275 3.677,4.422 2.399,7.024 z m -13.639,-15.58 c -1.261,2.992 -4.71,4.401 -7.707,3.141 -2.993,-1.262 -4.399,-4.71 -3.14,-7.706 1.261,-2.995 4.71,-4.401 7.705,-3.142 2.994,1.262 4.402,4.71 3.142,7.707 z m -14.954,-14.971 c -1.202,3.395 -4.925,5.173 -8.32,3.973 -3.394,-1.202 -5.171,-4.927 -3.971,-8.319 1.201,-3.393 4.926,-5.172 8.319,-3.971 3.394,1.202 5.171,4.925 3.972,8.317 z m -16.243,-14.252 c -1.101,3.793 -5.066,5.979 -8.861,4.88 -3.795,-1.1 -5.979,-5.065 -4.881,-8.86 1.1,-3.795 5.066,-5.979 8.859,-4.881 3.795,1.1 5.982,5.066 4.883,8.861 z m -17.496,-13.443 c -0.955,4.193 -5.129,6.821 -9.322,5.866 -4.193,-0.953 -6.818,-5.125 -5.865,-9.319 0.953,-4.192 5.127,-6.821 9.32,-5.867 4.193,0.955 6.82,5.128 5.867,9.32 z m -18.711,-12.527 c -0.767,4.588 -5.107,7.684 -9.695,6.918 -4.588,-0.768 -7.684,-5.106 -6.919,-9.694 0.767,-4.589 5.108,-7.684 9.696,-6.92 4.587,0.769 7.683,5.109 6.918,9.696 z m 66.049,101.158 c -0.67,1.337 -2.299,1.879 -3.639,1.21 -1.339,-0.672 -1.88,-2.302 -1.209,-3.64 0.673,-1.34 2.301,-1.881 3.638,-1.208 1.339,0.671 1.881,2.3 1.21,3.638 z m -11.771,-14.769 c -0.727,1.696 -2.697,2.479 -4.394,1.748 -1.698,-0.729 -2.483,-2.697 -1.749,-4.396 0.729,-1.695 2.698,-2.479 4.395,-1.749 1.698,0.73 2.48,2.7 1.748,4.397 z m -13.04,-14.272 c -0.749,2.066 -3.034,3.133 -5.098,2.383 -2.068,-0.751 -3.133,-3.034 -2.382,-5.099 0.749,-2.067 3.032,-3.134 5.099,-2.384 2.066,0.751 3.132,3.034 2.381,5.1 z m -14.292,-13.674 c -0.73,2.441 -3.298,3.828 -5.741,3.1 -2.442,-0.731 -3.831,-3.3 -3.101,-5.743 0.729,-2.442 3.299,-3.829 5.741,-3.101 2.442,0.73 3.83,3.303 3.101,5.744 z m -15.518,-12.981 c -0.667,2.82 -3.493,4.569 -6.315,3.901 -2.821,-0.666 -4.568,-3.493 -3.902,-6.317 0.668,-2.819 3.495,-4.567 6.315,-3.901 2.824,0.668 4.569,3.496 3.902,6.317 z M 160.235,307.45 c -0.563,3.199 -3.612,5.338 -6.812,4.778 -3.2,-0.563 -5.34,-3.614 -4.779,-6.815 0.564,-3.2 3.614,-5.34 6.813,-4.776 3.201,0.562 5.34,3.612 4.778,6.813 z m -17.859,-11.304 c -0.415,3.575 -3.65,6.137 -7.227,5.722 -3.575,-0.414 -6.135,-3.651 -5.721,-7.228 0.416,-3.575 3.651,-6.136 7.226,-5.718 3.576,0.414 6.139,3.649 5.722,7.224 z m 73.541,109.611 c -0.042,0.085 -0.147,0.118 -0.234,0.076 -0.083,-0.044 -0.116,-0.148 -0.073,-0.232 0.043,-0.086 0.147,-0.12 0.233,-0.076 0.085,0.042 0.119,0.146 0.074,0.232 z m -9.895,-13.92 c -0.179,0.411 -0.656,0.594 -1.065,0.413 -0.408,-0.181 -0.593,-0.654 -0.413,-1.063 0.182,-0.411 0.656,-0.593 1.065,-0.412 0.409,0.177 0.592,0.655 0.413,1.062 z m -11.121,-13.536 c -0.278,0.748 -1.107,1.125 -1.854,0.847 -0.747,-0.278 -1.126,-1.107 -0.847,-1.855 0.278,-0.745 1.108,-1.125 1.853,-0.847 0.748,0.279 1.128,1.109 0.848,1.855 z m -12.333,-13.057 c -0.339,1.096 -1.5,1.711 -2.597,1.374 -1.094,-0.339 -1.711,-1.499 -1.373,-2.595 0.336,-1.097 1.499,-1.712 2.595,-1.374 1.097,0.336 1.712,1.497 1.375,2.595 z m -13.527,-12.482 c -0.357,1.454 -1.826,2.343 -3.28,1.987 -1.454,-0.355 -2.344,-1.824 -1.987,-3.276 0.357,-1.457 1.825,-2.346 3.278,-1.989 1.453,0.355 2.344,1.823 1.989,3.278 z m -14.697,-11.813 c -0.333,1.819 -2.078,3.022 -3.894,2.685 -1.818,-0.336 -3.021,-2.079 -2.685,-3.895 0.335,-1.818 2.079,-3.019 3.896,-2.685 1.817,0.335 3.018,2.08 2.683,3.895 z m -15.827,-11.046 c -0.272,2.181 -2.261,3.73 -4.442,3.456 -2.181,-0.271 -3.729,-2.26 -3.457,-4.44 0.272,-2.183 2.261,-3.729 4.442,-3.457 2.18,0.272 3.728,2.259 3.457,4.441 z m -16.92,-10.191 c -0.168,2.543 -2.365,4.469 -4.908,4.302 -2.545,-0.168 -4.47,-2.367 -4.302,-4.909 0.168,-2.543 2.363,-4.469 4.909,-4.302 2.542,0.169 4.468,2.366 4.301,4.909 z m 38.903,66.371 c -0.024,0.093 -0.115,0.148 -0.208,0.125 -0.093,-0.024 -0.15,-0.118 -0.125,-0.211 0.022,-0.094 0.118,-0.148 0.209,-0.123 0.092,0.022 0.149,0.116 0.124,0.209 z m -12.667,-11.397 c -0.083,0.438 -0.506,0.724 -0.945,0.639 -0.437,-0.084 -0.724,-0.506 -0.64,-0.947 0.083,-0.438 0.507,-0.724 0.945,-0.639 0.439,0.085 0.726,0.51 0.64,0.947 z m -13.782,-10.757 c -0.103,0.79 -0.83,1.345 -1.617,1.239 -0.79,-0.106 -1.347,-0.83 -1.242,-1.62 0.106,-0.79 0.829,-1.342 1.622,-1.237 0.79,0.103 1.343,0.828 1.237,1.618 z m -14.863,-10.021 c -0.084,1.143 -1.079,2.002 -2.223,1.914 -1.144,-0.085 -2.001,-1.079 -1.918,-2.222 0.085,-1.144 1.081,-2.004 2.226,-1.92 1.144,0.088 2.001,1.083 1.915,2.228 z m -15.9,-9.203 c -0.024,1.497 -1.258,2.692 -2.755,2.669 -1.498,-0.024 -2.693,-1.259 -2.668,-2.757 0.024,-1.495 1.257,-2.687 2.753,-2.665 1.498,0.025 2.692,1.257 2.67,2.753 z m -0.924,34.563 c -0.002,0.096 -0.08,0.171 -0.178,0.17 -0.094,-0.003 -0.17,-0.08 -0.169,-0.176 0.002,-0.097 0.084,-0.173 0.179,-0.17 0.095,0.003 0.17,0.08 0.168,0.176 z m -14.818,-8.337 c 0.017,0.446 -0.332,0.82 -0.778,0.835 -0.448,0.015 -0.819,-0.335 -0.836,-0.781 -0.015,-0.445 0.334,-0.818 0.781,-0.833 0.443,-0.017 0.819,0.333 0.833,0.779 z m 167.681,-42.892 c -2.551,0.023 -4.635,-2.025 -4.66,-4.573 -0.021,-2.547 2.026,-4.633 4.576,-4.656 2.547,-0.021 4.632,2.025 4.655,4.573 0.023,2.549 -2.024,4.633 -4.571,4.656 z m 7.781,-18.702 c -2.893,0.194 -5.395,-1.994 -5.591,-4.885 -0.193,-2.893 1.995,-5.395 4.888,-5.591 2.891,-0.192 5.394,1.992 5.588,4.885 0.195,2.893 -1.992,5.397 -4.885,5.591 z m 6.675,-19.604 c -3.224,0.405 -6.167,-1.877 -6.576,-5.102 -0.403,-3.223 1.88,-6.166 5.104,-6.572 3.224,-0.407 6.167,1.879 6.575,5.102 0.403,3.223 -1.88,6.166 -5.103,6.572 z m 5.486,-20.435 c -3.541,0.657 -6.942,-1.679 -7.6,-5.218 -0.655,-3.54 1.68,-6.942 5.219,-7.6 3.539,-0.656 6.941,1.682 7.599,5.219 0.656,3.54 -1.68,6.943 -5.218,7.599 z m 4.222,-21.193 c -3.835,0.943 -7.711,-1.398 -8.657,-5.233 -0.944,-3.836 1.396,-7.711 5.233,-8.656 3.836,-0.947 7.711,1.396 8.656,5.231 0.946,3.836 -1.396,7.712 -5.232,8.658 z m 2.894,-21.873 c -4.111,1.27 -8.472,-1.03 -9.742,-5.14 -1.272,-4.108 1.031,-8.468 5.139,-9.739 4.107,-1.27 8.47,1.03 9.74,5.138 1.271,4.11 -1.03,8.47 -5.137,9.741 z m 1.493,-22.467 c -4.357,1.629 -9.208,-0.581 -10.838,-4.937 -1.63,-4.358 0.579,-9.209 4.935,-10.841 4.357,-1.629 9.209,0.583 10.839,4.939 1.629,4.356 -0.582,9.207 -4.936,10.839 z m -54.581,107.777 c -1.494,0.09 -2.777,-1.051 -2.867,-2.545 -0.087,-1.495 1.052,-2.779 2.547,-2.866 1.497,-0.088 2.779,1.051 2.866,2.546 0.088,1.494 -1.052,2.779 -2.546,2.865 z m 6.905,-17.576 c -1.833,0.217 -3.495,-1.097 -3.711,-2.932 -0.217,-1.835 1.094,-3.499 2.932,-3.713 1.834,-0.217 3.496,1.097 3.712,2.933 0.216,1.835 -1.098,3.497 -2.933,3.712 z m 5.839,-18.429 c -2.163,0.383 -4.23,-1.062 -4.611,-3.224 -0.383,-2.167 1.06,-4.231 3.224,-4.614 2.166,-0.385 4.23,1.061 4.614,3.226 0.383,2.164 -1.061,4.228 -3.227,4.612 z m 4.697,-19.215 c -2.479,0.587 -4.965,-0.942 -5.556,-3.422 -0.588,-2.48 0.943,-4.967 3.423,-5.558 2.48,-0.588 4.966,0.943 5.557,3.423 0.588,2.479 -0.945,4.967 -3.424,5.557 z m 3.484,-19.929 c -2.777,0.831 -5.704,-0.741 -6.537,-3.519 -0.834,-2.776 0.741,-5.703 3.519,-6.538 2.776,-0.831 5.704,0.744 6.536,3.518 0.834,2.779 -0.741,5.706 -3.518,6.539 z m 2.199,-20.564 c -3.051,1.112 -6.428,-0.46 -7.543,-3.511 -1.112,-3.052 0.46,-6.43 3.512,-7.545 3.054,-1.113 6.432,0.459 7.543,3.51 1.114,3.055 -0.458,6.432 -3.512,7.546 z m 0.861,-21.117 c -3.304,1.426 -7.141,-0.094 -8.569,-3.399 -1.428,-3.303 0.095,-7.138 3.399,-8.568 3.304,-1.429 7.139,0.093 8.566,3.398 1.429,3.305 -0.092,7.142 -3.396,8.569 z m -58.155,118.491 c -0.095,0.008 -0.177,-0.067 -0.183,-0.162 -0.004,-0.095 0.07,-0.175 0.164,-0.18 0.096,-0.006 0.178,0.066 0.182,0.162 0.006,0.096 -0.066,0.177 -0.163,0.18 z m 7.107,-15.527 c -0.445,0.05 -0.842,-0.272 -0.889,-0.716 -0.05,-0.444 0.268,-0.842 0.713,-0.89 0.446,-0.048 0.842,0.271 0.89,0.716 0.05,0.443 -0.271,0.841 -0.714,0.89 z m 6.161,-16.4 c -0.785,0.134 -1.526,-0.396 -1.66,-1.182 -0.133,-0.785 0.396,-1.529 1.183,-1.66 0.784,-0.133 1.529,0.396 1.66,1.18 0.133,0.787 -0.396,1.531 -1.183,1.662 z m 5.142,-17.209 c -1.118,0.255 -2.231,-0.443 -2.488,-1.562 -0.254,-1.117 0.443,-2.232 1.562,-2.487 1.117,-0.258 2.231,0.443 2.485,1.56 0.259,1.118 -0.439,2.232 -1.559,2.489 z m 4.045,-17.956 c -1.437,0.418 -2.94,-0.41 -3.359,-1.847 -0.42,-1.438 0.407,-2.941 1.844,-3.359 1.439,-0.42 2.944,0.408 3.36,1.845 0.42,1.437 -0.407,2.94 -1.845,3.361 z m 2.883,-18.634 c -1.74,0.62 -3.656,-0.289 -4.273,-2.031 -0.617,-1.741 0.291,-3.654 2.032,-4.273 1.741,-0.618 3.653,0.292 4.273,2.031 0.619,1.742 -0.293,3.655 -2.032,4.273 z m 1.652,-19.23 c -2.024,0.856 -4.36,-0.094 -5.214,-2.118 -0.855,-2.025 0.094,-4.36 2.117,-5.215 2.026,-0.855 4.36,0.095 5.215,2.118 0.856,2.025 -0.091,4.359 -2.118,5.215 z m 0.366,-19.749 c -2.287,1.126 -5.052,0.187 -6.178,-2.1 -1.128,-2.287 -0.187,-5.053 2.099,-6.179 2.286,-1.125 5.053,-0.189 6.18,2.1 1.126,2.285 0.185,5.053 -2.101,6.179 z m -38.026,66.878 c -0.093,0.025 -0.187,-0.027 -0.213,-0.119 -0.026,-0.091 0.026,-0.188 0.12,-0.214 0.092,-0.026 0.188,0.028 0.212,0.12 0.026,0.091 -0.027,0.187 -0.119,0.213 z m 3.537,-16.669 c -0.422,0.147 -0.88,-0.078 -1.026,-0.499 -0.147,-0.421 0.074,-0.881 0.498,-1.028 0.421,-0.147 0.882,0.078 1.028,0.499 0.145,0.422 -0.08,0.884 -0.5,1.028 z m 2.423,-17.314 c -0.735,0.305 -1.578,-0.047 -1.881,-0.782 -0.304,-0.737 0.045,-1.582 0.782,-1.885 0.737,-0.303 1.578,0.047 1.883,0.786 0.304,0.735 -0.046,1.577 -0.784,1.881 z m 1.247,-17.883 c -1.031,0.499 -2.272,0.066 -2.769,-0.968 -0.498,-1.033 -0.066,-2.272 0.966,-2.771 1.033,-0.5 2.276,-0.067 2.775,0.966 0.497,1.034 0.064,2.275 -0.972,2.773 z m 0.02,-18.371 c -1.309,0.726 -2.96,0.256 -3.688,-1.053 -0.729,-1.308 -0.257,-2.96 1.052,-3.687 1.308,-0.728 2.957,-0.256 3.686,1.05 0.728,1.311 0.257,2.96 -1.05,3.69 z m -30.395,16.481 c -0.084,0.046 -0.188,0.016 -0.235,-0.069 -0.044,-0.082 -0.015,-0.188 0.068,-0.235 0.085,-0.045 0.191,-0.013 0.237,0.07 0.044,0.085 0.014,0.189 -0.07,0.234 z m -0.187,-17.001 c -0.379,0.237 -0.877,0.123 -1.112,-0.257 -0.237,-0.381 -0.121,-0.876 0.257,-1.114 0.378,-0.236 0.876,-0.12 1.113,0.26 0.236,0.376 0.121,0.875 -0.258,1.111 z m 120.985,123.769 c -1.295,-2.198 -0.564,-5.026 1.631,-6.322 2.195,-1.291 5.026,-0.562 6.32,1.634 1.292,2.197 0.562,5.026 -1.633,6.32 -2.196,1.294 -5.025,0.563 -6.318,-1.632 z m 20.087,-2.613 c -1.613,-2.407 -0.97,-5.668 1.437,-7.283 2.408,-1.614 5.668,-0.971 7.284,1.437 1.613,2.408 0.974,5.669 -1.438,7.282 -2.406,1.616 -5.668,0.974 -7.283,-1.436 z m 20.315,-4.02 c -1.962,-2.588 -1.458,-6.28 1.132,-8.245 2.588,-1.962 6.278,-1.456 8.243,1.133 1.964,2.589 1.457,6.28 -1.132,8.245 -2.589,1.961 -6.279,1.455 -8.243,-1.133 z m 20.44,-5.467 c -2.339,-2.738 -2.016,-6.85 0.719,-9.19 2.739,-2.338 6.852,-2.016 9.19,0.72 2.339,2.738 2.017,6.852 -0.719,9.19 -2.737,2.338 -6.851,2.016 -9.19,-0.72 z m 20.464,-6.939 c -2.733,-2.851 -2.645,-7.378 0.204,-10.115 2.85,-2.735 7.377,-2.645 10.114,0.204 2.738,2.85 2.646,7.376 -0.203,10.112 -2.848,2.737 -7.376,2.647 -10.115,-0.201 z m 20.391,-8.432 c -3.155,-2.924 -3.343,-7.852 -0.42,-11.005 2.922,-3.155 7.848,-3.342 11.004,-0.42 3.154,2.923 3.342,7.851 0.42,11.005 -2.923,3.154 -7.85,3.343 -11.004,0.42 z m 20.204,-9.939 c -3.589,-2.959 -4.101,-8.266 -1.144,-11.856 2.958,-3.59 8.264,-4.101 11.855,-1.144 3.59,2.957 4.1,8.265 1.144,11.855 -2.958,3.59 -8.265,4.101 -11.855,1.145 z m -120.63,6.621 c -0.823,-1.25 -0.477,-2.931 0.772,-3.756 1.252,-0.824 2.932,-0.479 3.756,0.772 0.824,1.252 0.479,2.933 -0.772,3.756 -1.251,0.822 -2.933,0.477 -3.756,-0.772 z m 18.675,-2.81 c -1.103,-1.477 -0.798,-3.576 0.684,-4.68 1.48,-1.104 3.577,-0.8 4.681,0.683 1.104,1.481 0.799,3.577 -0.683,4.681 -1.482,1.106 -3.578,0.798 -4.682,-0.684 z m 18.88,-4.157 c -1.415,-1.681 -1.196,-4.194 0.487,-5.606 1.683,-1.416 4.193,-1.197 5.607,0.486 1.414,1.681 1.196,4.192 -0.487,5.608 -1.683,1.414 -4.192,1.195 -5.607,-0.488 z m 18.989,-5.54 c -1.749,-1.853 -1.667,-4.772 0.186,-6.523 1.853,-1.749 4.773,-1.668 6.524,0.186 1.749,1.853 1.666,4.772 -0.186,6.523 -1.853,1.749 -4.774,1.667 -6.524,-0.186 z m 19.002,-6.947 c -2.111,-1.99 -2.212,-5.311 -0.223,-7.42 1.988,-2.111 5.311,-2.211 7.422,-0.222 2.107,1.988 2.208,5.311 0.221,7.419 -1.99,2.112 -5.311,2.211 -7.42,0.223 z m 18.907,-8.377 c -2.488,-2.087 -2.815,-5.797 -0.731,-8.289 2.087,-2.489 5.799,-2.817 8.291,-0.731 2.491,2.089 2.818,5.799 0.731,8.288 -2.088,2.491 -5.799,2.819 -8.291,0.732 z m 18.719,-9.815 c -2.888,-2.146 -3.49,-6.229 -1.341,-9.119 2.145,-2.89 6.229,-3.487 9.119,-1.342 2.889,2.149 3.489,6.231 1.341,9.118 -2.149,2.891 -6.231,3.493 -9.119,1.343 z m -131.695,8.884 c -0.053,-0.08 -0.03,-0.189 0.05,-0.241 0.08,-0.05 0.185,-0.027 0.237,0.053 0.054,0.08 0.031,0.187 -0.05,0.239 -0.079,0.052 -0.186,0.03 -0.237,-0.051 z m 17.001,-1.61 c -0.265,-0.36 -0.185,-0.865 0.176,-1.127 0.36,-0.266 0.862,-0.189 1.127,0.171 0.265,0.364 0.186,0.866 -0.176,1.13 -0.358,0.264 -0.863,0.185 -1.127,-0.174 z m 17.284,-2.864 c -0.509,-0.613 -0.42,-1.519 0.193,-2.029 0.614,-0.507 1.522,-0.421 2.029,0.193 0.507,0.614 0.422,1.525 -0.192,2.03 -0.615,0.508 -1.523,0.422 -2.03,-0.194 z m 17.473,-4.152 c -0.779,-0.84 -0.73,-2.154 0.111,-2.935 0.838,-0.778 2.153,-0.732 2.934,0.109 0.781,0.839 0.733,2.154 -0.11,2.933 -0.838,0.782 -2.152,0.735 -2.935,-0.107 z m 17.573,-5.475 c -1.08,-1.035 -1.116,-2.751 -0.079,-3.833 1.034,-1.081 2.75,-1.117 3.83,-0.082 1.082,1.037 1.121,2.753 0.083,3.834 -1.034,1.081 -2.751,1.117 -3.834,0.081 z m 17.58,-6.82 c -1.408,-1.197 -1.578,-3.31 -0.378,-4.715 1.2,-1.406 3.31,-1.576 4.716,-0.377 1.407,1.198 1.575,3.31 0.377,4.716 -1.198,1.407 -3.31,1.574 -4.715,0.376 z m 17.479,-8.184 c -1.753,-1.326 -2.098,-3.823 -0.772,-5.575 1.326,-1.753 3.824,-2.098 5.574,-0.774 1.755,1.327 2.099,3.824 0.773,5.576 -1.325,1.754 -3.819,2.101 -5.575,0.773 z m 17.287,-9.557 c -2.119,-1.417 -2.688,-4.282 -1.272,-6.401 1.418,-2.121 4.284,-2.688 6.401,-1.272 2.119,1.418 2.69,4.282 1.272,6.402 -1.417,2.118 -4.283,2.687 -6.401,1.271 z m -76.932,0.507 c -0.067,-0.069 -0.071,-0.175 -0.004,-0.244 0.068,-0.069 0.177,-0.071 0.247,-0.002 0.069,0.066 0.068,0.175 0.002,0.243 -0.067,0.068 -0.176,0.07 -0.245,0.003 z m 16.205,-5.271 c -0.337,-0.293 -0.373,-0.802 -0.081,-1.139 0.291,-0.337 0.8,-0.376 1.139,-0.082 0.338,0.291 0.373,0.802 0.082,1.139 -0.295,0.337 -0.804,0.373 -1.14,0.082 z m 16.206,-6.558 c -0.632,-0.485 -0.749,-1.392 -0.264,-2.022 0.485,-0.63 1.394,-0.75 2.023,-0.264 0.631,0.487 0.749,1.39 0.262,2.023 -0.485,0.632 -1.391,0.75 -2.021,0.263 z m 16.11,-7.862 c -0.947,-0.644 -1.194,-1.935 -0.546,-2.883 0.645,-0.948 1.936,-1.192 2.884,-0.549 0.949,0.645 1.193,1.939 0.549,2.887 -0.647,0.948 -1.939,1.193 -2.887,0.545 z m 15.92,-9.169 c -1.284,-0.769 -1.702,-2.434 -0.933,-3.719 0.771,-1.287 2.436,-1.704 3.721,-0.933 1.284,0.768 1.699,2.432 0.932,3.717 -0.77,1.286 -2.435,1.703 -3.72,0.935 z M 344.45,163.74 c -0.082,-0.05 -0.106,-0.154 -0.057,-0.238 0.049,-0.08 0.155,-0.106 0.237,-0.058 0.083,0.05 0.108,0.159 0.058,0.24 -0.05,0.081 -0.156,0.107 -0.238,0.056 z m 15.722,-8.996 c 0.211,-0.393 0.061,-0.883 -0.332,-1.093 -0.395,-0.208 -0.883,-0.06 -1.093,0.334 -0.212,0.394 -0.062,0.883 0.333,1.093 0.394,0.209 0.885,0.06 1.092,-0.334 z"
           style="fill:none;stroke:#ffffff;stroke-width:0.08;stroke-linecap:butt;stroke-linejoin:miter;stroke-miterlimit:4;stroke-dasharray:none;stroke-opacity:1"
           id="path4901"
           inkscape:connector-curvature="0" /></g></g></g></svg>