<?xml version="1.0" encoding="UTF-8" standalone="no"?>
<!-- Created with Inkscape (http://www.inkscape.org/) -->

<svg
   xmlns:dc="http://purl.org/dc/elements/1.1/"
   xmlns:cc="http://creativecommons.org/ns#"
   xmlns:rdf="http://www.w3.org/1999/02/22-rdf-syntax-ns#"
   xmlns:svg="http://www.w3.org/2000/svg"
   xmlns="http://www.w3.org/2000/svg"
   xmlns:sodipodi="http://sodipodi.sourceforge.net/DTD/sodipodi-0.dtd"
   xmlns:inkscape="http://www.inkscape.org/namespaces/inkscape"
   version="1.1"
   id="svg5446"
   xml:space="preserve"
   width="800"
   height="800"
   viewBox="0 0 800 800"
   sodipodi:docname="logo-design-element-#8.svg"
   inkscape:version="0.92.4 (5da689c313, 2019-01-14)"><metadata
     id="metadata5452"><rdf:RDF><cc:Work
         rdf:about=""><dc:format>image/svg+xml</dc:format><dc:type
           rdf:resource="http://purl.org/dc/dcmitype/StillImage" /><dc:title></dc:title></cc:Work></rdf:RDF></metadata><defs
     id="defs5450"><clipPath
       clipPathUnits="userSpaceOnUse"
       id="clipPath5462"><path
         d="M 0,600 H 600 V 0 H 0 Z"
         id="path5460"
         inkscape:connector-curvature="0" /></clipPath><linearGradient
       x1="0"
       y1="0"
       x2="1"
       y2="0"
       gradientUnits="userSpaceOnUse"
       gradientTransform="matrix(235.41191,-39.553589,-39.553589,-235.41191,96.533203,312.26172)"
       spreadMethod="pad"
       id="linearGradient5488"><stop
         style="stop-opacity:1;stop-color:#fff346"
         offset="0"
         id="stop5476" /><stop
         style="stop-opacity:1;stop-color:#dbde3e"
         offset="0.13270079"
         id="stop5478" /><stop
         style="stop-opacity:1;stop-color:#dbde3e"
         offset="0.28"
         id="stop5480" /><stop
         style="stop-opacity:1;stop-color:#38b73e"
         offset="0.67"
         id="stop5482" /><stop
         style="stop-opacity:1;stop-color:#31767f"
         offset="0.89"
         id="stop5484" /><stop
         style="stop-opacity:1;stop-color:#2e3192"
         offset="1"
         id="stop5486" /></linearGradient><linearGradient
       x1="0"
       y1="0"
       x2="1"
       y2="0"
       gradientUnits="userSpaceOnUse"
       gradientTransform="matrix(277.6442,-46.649399,-46.649399,-277.6442,154.46143,462.43213)"
       spreadMethod="pad"
       id="linearGradient5518"><stop
         style="stop-opacity:1;stop-color:#fff424"
         offset="0"
         id="stop5506" /><stop
         style="stop-opacity:1;stop-color:#fac308"
         offset="0.13312686"
         id="stop5508" /><stop
         style="stop-opacity:1;stop-color:#fac308"
         offset="0.280899"
         id="stop5510" /><stop
         style="stop-opacity:1;stop-color:#f3812f"
         offset="0.668539"
         id="stop5512" /><stop
         style="stop-opacity:1;stop-color:#ee5233"
         offset="0.88764"
         id="stop5514" /><stop
         style="stop-opacity:1;stop-color:#ea2c35"
         offset="1"
         id="stop5516" /></linearGradient><linearGradient
       x1="0"
       y1="0"
       x2="1"
       y2="0"
       gradientUnits="userSpaceOnUse"
       gradientTransform="matrix(208.75946,-35.075485,-35.075485,-208.75946,295.5835,309.22949)"
       spreadMethod="pad"
       id="linearGradient5542"><stop
         style="stop-opacity:1;stop-color:#5ccaf4"
         offset="0"
         id="stop5536" /><stop
         style="stop-opacity:1;stop-color:#05aeef"
         offset="0.5"
         id="stop5538" /><stop
         style="stop-opacity:1;stop-color:#0995dd"
         offset="1"
         id="stop5540" /></linearGradient></defs><sodipodi:namedview
     pagecolor="#ffffff"
     bordercolor="#666666"
     borderopacity="1"
     objecttolerance="10"
     gridtolerance="10"
     guidetolerance="10"
     inkscape:pageopacity="0"
     inkscape:pageshadow="2"
     inkscape:window-width="1920"
     inkscape:window-height="1018"
     id="namedview5448"
     showgrid="false"
     inkscape:zoom="0.66966578"
     inkscape:cx="493.22034"
     inkscape:cy="318.64407"
     inkscape:window-x="-8"
     inkscape:window-y="-8"
     inkscape:window-maximized="1"
     inkscape:current-layer="g5454" /><g
     id="g5454"
     inkscape:groupmode="layer"
     inkscape:label="logotype-element-8-publicdomainvectors.org"
     transform="matrix(1.3333333,0,0,-1.3333333,0,800)"><g
       id="g5456"><g
         id="g5458"
         clip-path="url(#clipPath5462)"><g
           id="g5464"><g
             id="g5466"><g
               id="g5472"><g
                 id="g5474"><path
                   d="m 316.454,181.57 c 1.573,3.951 -0.355,8.429 -4.303,10 -3.949,1.571 -8.426,-0.358 -9.997,-4.307 -1.569,-3.95 0.358,-8.424 4.307,-9.993 3.947,-1.576 8.423,0.353 9.993,4.3 m -33.773,-0.83 c 2.045,4.382 0.152,9.592 -4.228,11.635 -4.381,2.045 -9.587,0.152 -11.636,-4.229 -2.043,-4.378 -0.155,-9.588 4.231,-11.632 4.378,-2.047 9.589,-0.156 11.633,4.226 m -34.502,1.433 c 2.57,4.77 0.795,10.724 -3.974,13.3 -4.769,2.571 -10.72,0.795 -13.296,-3.974 -2.574,-4.77 -0.798,-10.725 3.97,-13.3 4.77,-2.57 10.72,-0.793 13.3,3.974 m -35.088,3.785 c 3.157,5.109 1.574,11.806 -3.533,14.961 -5.111,3.156 -11.808,1.573 -14.961,-3.534 -3.153,-5.11 -1.57,-11.808 3.534,-14.961 5.111,-3.154 11.807,-1.573 14.96,3.534 m -35.497,6.205 c 3.777,5.398 2.472,12.834 -2.922,16.615 -5.397,3.782 -12.834,2.476 -16.615,-2.922 -3.782,-5.393 -2.473,-12.83 2.919,-16.612 5.394,-3.781 12.835,-2.476 16.618,2.919 m -35.758,8.683 c 4.451,5.623 3.501,13.794 -2.123,18.245 -5.621,4.452 -13.79,3.5 -18.241,-2.122 -4.451,-5.62 -3.503,-13.793 2.121,-18.244 5.625,-4.452 13.791,-3.503 18.243,2.121 m -35.839,11.216 c 5.16,5.794 4.647,14.67 -1.144,19.83 -5.795,5.16 -14.669,4.648 -19.829,-1.144 -5.162,-5.794 -4.646,-14.67 1.145,-19.833 5.791,-5.156 14.668,-4.644 19.828,1.147 m 200.49,19.924 c 1.039,2.272 0.039,4.952 -2.228,5.993 -2.276,1.037 -4.957,0.04 -5.995,-2.232 -1.037,-2.275 -0.04,-4.956 2.233,-5.992 2.27,-1.036 4.955,-0.036 5.99,2.231 m -31.491,-0.143 c 1.44,2.72 0.4,6.095 -2.325,7.537 -2.721,1.443 -6.102,0.406 -7.542,-2.322 -1.439,-2.722 -0.4,-6.096 2.323,-7.537 2.725,-1.444 6.101,-0.405 7.544,2.322 m -32.179,2.024 c 1.901,3.134 0.899,7.218 -2.234,9.115 -3.139,1.903 -7.218,0.9 -9.117,-2.234 -1.903,-3.133 -0.903,-7.216 2.234,-9.117 3.137,-1.901 7.215,-0.899 9.117,2.236 m -32.709,4.276 c 2.407,3.503 1.526,8.286 -1.974,10.703 -3.502,2.409 -8.293,1.527 -10.703,-1.974 -2.411,-3.5 -1.528,-8.292 1.973,-10.703 3.499,-2.407 8.293,-1.526 10.704,1.974 m -33.092,6.592 c 2.969,3.818 2.288,9.318 -1.531,12.286 -3.816,2.968 -9.314,2.288 -12.288,-1.532 -2.964,-3.816 -2.277,-9.317 1.534,-12.285 3.817,-2.971 9.319,-2.283 12.285,1.531 m -33.299,8.971 c 3.567,4.078 3.158,10.276 -0.917,13.846 -4.076,3.568 -10.277,3.163 -13.847,-0.911 -3.572,-4.082 -3.162,-10.281 0.913,-13.851 4.077,-3.569 10.276,-3.162 13.851,0.916 m -33.362,11.391 c 4.213,4.276 4.16,11.159 -0.12,15.37 -4.274,4.212 -11.155,4.156 -15.37,-0.12 -4.211,-4.277 -4.157,-11.161 0.122,-15.368 4.276,-4.215 11.161,-4.163 15.368,0.118 m 219.307,19.025 c 0.068,0.144 0,0.317 -0.143,0.383 -0.147,0.064 -0.313,-0.002 -0.379,-0.147 -0.068,-0.145 -0.002,-0.314 0.144,-0.382 0.144,-0.064 0.313,-0.002 0.378,0.146 m -28.43,-1.694 c 0.346,0.661 0.085,1.474 -0.578,1.814 -0.659,0.344 -1.466,0.09 -1.81,-0.573 -0.344,-0.664 -0.088,-1.472 0.578,-1.815 0.654,-0.344 1.469,-0.083 1.81,0.574 m -29.213,0.303 c 0.68,1.14 0.302,2.613 -0.839,3.293 -1.14,0.681 -2.616,0.305 -3.298,-0.836 -0.678,-1.143 -0.301,-2.62 0.837,-3.294 1.145,-0.682 2.62,-0.309 3.3,0.837 m -29.86,2.374 c 1.069,1.583 0.655,3.737 -0.931,4.808 -1.583,1.068 -3.735,0.658 -4.81,-0.927 -1.071,-1.583 -0.656,-3.739 0.934,-4.807 1.579,-1.074 3.732,-0.659 4.807,0.926 m -30.361,4.528 c 1.516,1.984 1.137,4.821 -0.846,6.342 -1.984,1.516 -4.821,1.137 -6.334,-0.843 -1.52,-1.987 -1.14,-4.824 0.842,-6.339 1.98,-1.52 4.819,-1.144 6.338,0.84 m -30.715,6.749 c 2.016,2.333 1.755,5.858 -0.581,7.866 -2.338,2.012 -5.859,1.753 -7.869,-0.581 -2.009,-2.337 -1.749,-5.858 0.586,-7.871 2.333,-2.01 5.857,-1.749 7.864,0.586 m -30.895,9.019 c 2.548,2.632 2.481,6.834 -0.154,9.385 -2.633,2.55 -6.837,2.48 -9.384,-0.15 -2.552,-2.637 -2.483,-6.837 0.152,-9.388 2.63,-2.549 6.832,-2.481 9.386,0.153 m -30.932,11.33 c 3.128,2.878 3.335,7.745 0.459,10.873 -2.881,3.132 -7.748,3.336 -10.876,0.461 -3.127,-2.876 -3.339,-7.744 -0.457,-10.876 2.875,-3.128 7.743,-3.332 10.874,-0.458 m 126.911,18.832 c 0.095,0.127 0.074,0.305 -0.057,0.402 -0.127,0.098 -0.309,0.074 -0.403,-0.058 -0.098,-0.125 -0.071,-0.307 0.058,-0.402 0.126,-0.094 0.309,-0.068 0.402,0.058 m -28.053,4.544 c 0.482,0.571 0.41,1.415 -0.156,1.896 -0.567,0.484 -1.414,0.417 -1.899,-0.152 -0.482,-0.571 -0.411,-1.417 0.156,-1.9 0.572,-0.482 1.422,-0.41 1.899,0.156 m -28.384,6.664 c 0.919,0.961 0.88,2.483 -0.081,3.398 -0.961,0.916 -2.488,0.883 -3.404,-0.081 -0.912,-0.961 -0.878,-2.481 0.088,-3.4 0.962,-0.916 2.482,-0.876 3.397,0.083 m -28.558,8.838 c 1.396,1.306 1.473,3.496 0.161,4.892 -1.302,1.397 -3.494,1.47 -4.892,0.166 -1.397,-1.306 -1.472,-3.499 -0.166,-4.898 1.309,-1.395 3.498,-1.469 4.897,-0.16 m -28.584,11.042 c 1.924,1.596 2.186,4.45 0.592,6.368 -1.6,1.923 -4.451,2.184 -6.37,0.586 -1.921,-1.596 -2.182,-4.443 -0.587,-6.365 1.599,-1.922 4.448,-2.181 6.365,-0.589 m 43.947,37.331 c 0.122,0.103 0.14,0.284 0.036,0.409 -0.101,0.119 -0.283,0.135 -0.405,0.034 -0.124,-0.104 -0.139,-0.286 -0.035,-0.407 0.105,-0.122 0.284,-0.14 0.404,-0.036 m -28.207,10.805 c -0.447,0.599 -0.328,1.442 0.267,1.889 0.597,0.443 1.439,0.326 1.889,-0.27 0.448,-0.596 0.326,-1.44 -0.271,-1.886 -0.596,-0.448 -1.441,-0.325 -1.885,0.267"
                   style="fill:url(#linearGradient5488);stroke:none"
                   id="path5490"
                   inkscape:connector-curvature="0" /></g></g></g></g><path
           d="m 316.454,181.57 c 1.573,3.951 -0.355,8.429 -4.303,10 -3.949,1.571 -8.426,-0.358 -9.997,-4.307 -1.569,-3.95 0.358,-8.424 4.307,-9.993 3.947,-1.576 8.423,0.353 9.993,4.3 z m -33.773,-0.83 c 2.045,4.382 0.152,9.592 -4.228,11.635 -4.381,2.045 -9.587,0.152 -11.636,-4.229 -2.043,-4.378 -0.155,-9.588 4.231,-11.632 4.378,-2.047 9.589,-0.156 11.633,4.226 z m -34.502,1.433 c 2.57,4.77 0.795,10.724 -3.974,13.3 -4.769,2.571 -10.72,0.795 -13.296,-3.974 -2.574,-4.77 -0.798,-10.725 3.97,-13.3 4.77,-2.57 10.72,-0.793 13.3,3.974 z m -35.088,3.785 c 3.157,5.109 1.574,11.806 -3.533,14.961 -5.111,3.156 -11.808,1.573 -14.961,-3.534 -3.153,-5.11 -1.57,-11.808 3.534,-14.961 5.111,-3.154 11.807,-1.573 14.96,3.534 z m -35.497,6.205 c 3.777,5.398 2.472,12.834 -2.922,16.615 -5.397,3.782 -12.834,2.476 -16.615,-2.922 -3.782,-5.393 -2.473,-12.83 2.919,-16.612 5.394,-3.781 12.835,-2.476 16.618,2.919 z m -35.758,8.683 c 4.451,5.623 3.501,13.794 -2.123,18.245 -5.621,4.452 -13.79,3.5 -18.241,-2.122 -4.451,-5.62 -3.503,-13.793 2.121,-18.244 5.625,-4.452 13.791,-3.503 18.243,2.121 z m -35.839,11.216 c 5.16,5.794 4.647,14.67 -1.144,19.83 -5.795,5.16 -14.669,4.648 -19.829,-1.144 -5.162,-5.794 -4.646,-14.67 1.145,-19.833 5.791,-5.156 14.668,-4.644 19.828,1.147 z m 200.49,19.924 c 1.039,2.272 0.039,4.952 -2.228,5.993 -2.276,1.037 -4.957,0.04 -5.995,-2.232 -1.037,-2.275 -0.04,-4.956 2.233,-5.992 2.27,-1.036 4.955,-0.036 5.99,2.231 z m -31.491,-0.143 c 1.44,2.72 0.4,6.095 -2.325,7.537 -2.721,1.443 -6.102,0.406 -7.542,-2.322 -1.439,-2.722 -0.4,-6.096 2.323,-7.537 2.725,-1.444 6.101,-0.405 7.544,2.322 z m -32.179,2.024 c 1.901,3.134 0.899,7.218 -2.234,9.115 -3.139,1.903 -7.218,0.9 -9.117,-2.234 -1.903,-3.133 -0.903,-7.216 2.234,-9.117 3.137,-1.901 7.215,-0.899 9.117,2.236 z m -32.709,4.276 c 2.407,3.503 1.526,8.286 -1.974,10.703 -3.502,2.409 -8.293,1.527 -10.703,-1.974 -2.411,-3.5 -1.528,-8.292 1.973,-10.703 3.499,-2.407 8.293,-1.526 10.704,1.974 z m -33.092,6.592 c 2.969,3.818 2.288,9.318 -1.531,12.286 -3.816,2.968 -9.314,2.288 -12.288,-1.532 -2.964,-3.816 -2.277,-9.317 1.534,-12.285 3.817,-2.971 9.319,-2.283 12.285,1.531 z m -33.299,8.971 c 3.567,4.078 3.158,10.276 -0.917,13.846 -4.076,3.568 -10.277,3.163 -13.847,-0.911 -3.572,-4.082 -3.162,-10.281 0.913,-13.851 4.077,-3.569 10.276,-3.162 13.851,0.916 z m -33.362,11.391 c 4.213,4.276 4.16,11.159 -0.12,15.37 -4.274,4.212 -11.155,4.156 -15.37,-0.12 -4.211,-4.277 -4.157,-11.161 0.122,-15.368 4.276,-4.215 11.161,-4.163 15.368,0.118 z m 219.307,19.025 c 0.068,0.144 0,0.317 -0.143,0.383 -0.147,0.064 -0.313,-0.002 -0.379,-0.147 -0.068,-0.145 -0.002,-0.314 0.144,-0.382 0.144,-0.064 0.313,-0.002 0.378,0.146 z m -28.43,-1.694 c 0.346,0.661 0.085,1.474 -0.578,1.814 -0.659,0.344 -1.466,0.09 -1.81,-0.573 -0.344,-0.664 -0.088,-1.472 0.578,-1.815 0.654,-0.344 1.469,-0.083 1.81,0.574 z m -29.213,0.303 c 0.68,1.14 0.302,2.613 -0.839,3.293 -1.14,0.681 -2.616,0.305 -3.298,-0.836 -0.678,-1.143 -0.301,-2.62 0.837,-3.294 1.145,-0.682 2.62,-0.309 3.3,0.837 z m -29.86,2.374 c 1.069,1.583 0.655,3.737 -0.931,4.808 -1.583,1.068 -3.735,0.658 -4.81,-0.927 -1.071,-1.583 -0.656,-3.739 0.934,-4.807 1.579,-1.074 3.732,-0.659 4.807,0.926 z m -30.361,4.528 c 1.516,1.984 1.137,4.821 -0.846,6.342 -1.984,1.516 -4.821,1.137 -6.334,-0.843 -1.52,-1.987 -1.14,-4.824 0.842,-6.339 1.98,-1.52 4.819,-1.144 6.338,0.84 z m -30.715,6.749 c 2.016,2.333 1.755,5.858 -0.581,7.866 -2.338,2.012 -5.859,1.753 -7.869,-0.581 -2.009,-2.337 -1.749,-5.858 0.586,-7.871 2.333,-2.01 5.857,-1.749 7.864,0.586 z m -30.895,9.019 c 2.548,2.632 2.481,6.834 -0.154,9.385 -2.633,2.55 -6.837,2.48 -9.384,-0.15 -2.552,-2.637 -2.483,-6.837 0.152,-9.388 2.63,-2.549 6.832,-2.481 9.386,0.153 z m -30.932,11.33 c 3.128,2.878 3.335,7.745 0.459,10.873 -2.881,3.132 -7.748,3.336 -10.876,0.461 -3.127,-2.876 -3.339,-7.744 -0.457,-10.876 2.875,-3.128 7.743,-3.332 10.874,-0.458 z m 126.911,18.832 c 0.095,0.127 0.074,0.305 -0.057,0.402 -0.127,0.098 -0.309,0.074 -0.403,-0.058 -0.098,-0.125 -0.071,-0.307 0.058,-0.402 0.126,-0.094 0.309,-0.068 0.402,0.058 z m -28.053,4.544 c 0.482,0.571 0.41,1.415 -0.156,1.896 -0.567,0.484 -1.414,0.417 -1.899,-0.152 -0.482,-0.571 -0.411,-1.417 0.156,-1.9 0.572,-0.482 1.422,-0.41 1.899,0.156 z m -28.384,6.664 c 0.919,0.961 0.88,2.483 -0.081,3.398 -0.961,0.916 -2.488,0.883 -3.404,-0.081 -0.912,-0.961 -0.878,-2.481 0.088,-3.4 0.962,-0.916 2.482,-0.876 3.397,0.083 z m -28.558,8.838 c 1.396,1.306 1.473,3.496 0.161,4.892 -1.302,1.397 -3.494,1.47 -4.892,0.166 -1.397,-1.306 -1.472,-3.499 -0.166,-4.898 1.309,-1.395 3.498,-1.469 4.897,-0.16 z m -28.584,11.042 c 1.924,1.596 2.186,4.45 0.592,6.368 -1.6,1.923 -4.451,2.184 -6.37,0.586 -1.921,-1.596 -2.182,-4.443 -0.587,-6.365 1.599,-1.922 4.448,-2.181 6.365,-0.589 z m 43.947,37.331 c 0.122,0.103 0.14,0.284 0.036,0.409 -0.101,0.119 -0.283,0.135 -0.405,0.034 -0.124,-0.104 -0.139,-0.286 -0.035,-0.407 0.105,-0.122 0.284,-0.14 0.404,-0.036 z m -28.207,10.805 c -0.447,0.599 -0.328,1.442 0.267,1.889 0.597,0.443 1.439,0.326 1.889,-0.27 0.448,-0.596 0.326,-1.44 -0.271,-1.886 -0.596,-0.448 -1.441,-0.325 -1.885,0.267 z"
           style="fill:none;stroke:#ffffff;stroke-width:0.133;stroke-linecap:butt;stroke-linejoin:miter;stroke-miterlimit:4;stroke-dasharray:none;stroke-opacity:1"
           id="path5492"
           inkscape:connector-curvature="0" /><g
           id="g5494"><g
             id="g5496"><g
               id="g5502"><g
                 id="g5504"><path
                   d="m 143.796,383.703 c 2.639,-3.336 7.479,-3.906 10.815,-1.274 3.332,2.635 3.902,7.477 1.267,10.814 -2.635,3.332 -7.474,3.903 -10.808,1.267 -3.338,-2.632 -3.905,-7.472 -1.274,-10.807 m 16.17,29.664 c 2.773,-3.963 8.231,-4.926 12.19,-2.157 3.962,2.774 4.927,8.228 2.155,12.192 -2.77,3.958 -8.225,4.929 -12.187,2.155 -3.964,-2.769 -4.93,-8.229 -2.158,-12.19 m 18.492,29.165 c 2.846,-4.611 8.888,-6.052 13.505,-3.208 4.611,2.843 6.047,8.885 3.205,13.501 -2.845,4.614 -8.887,6.052 -13.502,3.208 -4.609,-2.843 -6.046,-8.887 -3.208,-13.501 m 20.819,28.491 c 2.849,-5.286 9.44,-7.263 14.726,-4.42 5.287,2.849 7.264,9.441 4.417,14.726 -2.846,5.283 -9.439,7.261 -14.722,4.421 -5.287,-2.849 -7.266,-9.443 -4.421,-14.727 m 23.125,27.642 c 2.784,-5.968 9.878,-8.561 15.848,-5.777 5.975,2.781 8.564,9.874 5.781,15.848 -2.784,5.973 -9.878,8.557 -15.849,5.778 -5.97,-2.781 -8.56,-9.876 -5.78,-15.849 m 25.397,26.625 c 2.647,-6.667 10.196,-9.929 16.861,-7.284 6.668,2.642 9.928,10.193 7.283,16.859 -2.641,6.666 -10.192,9.928 -16.859,7.284 -6.666,-2.645 -9.926,-10.191 -7.285,-16.859 m 27.633,25.429 c 2.437,-7.366 10.382,-11.359 17.746,-8.922 7.364,2.437 11.359,10.379 8.925,17.743 -2.437,7.368 -10.384,11.358 -17.749,8.926 -7.362,-2.439 -11.355,-10.383 -8.922,-17.747 M 192.444,367.127 c 1.446,-2.036 4.268,-2.51 6.304,-1.067 2.034,1.451 2.511,4.275 1.064,6.309 -1.45,2.034 -4.272,2.513 -6.305,1.06 -2.034,-1.446 -2.511,-4.273 -1.063,-6.302 m 15.62,27.346 c 1.637,-2.608 5.081,-3.396 7.692,-1.757 2.609,1.637 3.401,5.081 1.759,7.69 -1.637,2.611 -5.081,3.397 -7.691,1.761 -2.612,-1.639 -3.4,-5.084 -1.76,-7.694 m 17.842,26.854 c 1.763,-3.211 5.802,-4.387 9.012,-2.622 3.217,1.766 4.388,5.798 2.623,9.011 -1.763,3.214 -5.798,4.389 -9.013,2.626 -3.212,-1.767 -4.384,-5.801 -2.622,-9.015 m 20.058,26.189 c 1.83,-3.837 6.415,-5.464 10.257,-3.642 3.837,1.827 5.469,6.418 3.641,10.257 -1.823,3.839 -6.416,5.469 -10.257,3.642 -3.835,-1.828 -5.465,-6.42 -3.641,-10.257 m 22.253,25.36 c 1.823,-4.477 6.929,-6.638 11.407,-4.813 4.479,1.817 6.639,6.921 4.817,11.406 -1.822,4.476 -6.931,6.632 -11.406,4.815 -4.482,-1.821 -6.635,-6.929 -4.818,-11.408 m 24.424,24.355 c 1.744,-5.128 7.315,-7.873 12.449,-6.13 5.127,1.746 7.874,7.321 6.13,12.449 -1.748,5.133 -7.32,7.879 -12.448,6.133 -5.131,-1.745 -7.876,-7.317 -6.131,-12.452 m 26.541,23.197 c 1.597,-5.787 7.587,-9.182 13.373,-7.582 5.785,1.596 9.177,7.583 7.579,13.372 -1.596,5.785 -7.586,9.18 -13.37,7.578 -5.787,-1.598 -9.183,-7.583 -7.582,-13.368 M 226.006,320.991 c 0.092,-0.134 0.274,-0.162 0.403,-0.068 0.129,0.094 0.154,0.273 0.063,0.401 -0.093,0.129 -0.273,0.158 -0.402,0.064 -0.129,-0.091 -0.161,-0.27 -0.064,-0.397 m 12.749,25.465 c 0.399,-0.629 1.235,-0.81 1.859,-0.407 0.627,0.4 0.814,1.226 0.412,1.856 -0.404,0.632 -1.235,0.813 -1.863,0.408 -0.626,-0.396 -0.808,-1.232 -0.408,-1.857 m 14.868,25.149 c 0.65,-1.159 2.111,-1.566 3.271,-0.92 1.161,0.648 1.573,2.112 0.923,3.275 -0.648,1.157 -2.116,1.57 -3.271,0.922 -1.162,-0.652 -1.573,-2.114 -0.923,-3.277 m 16.985,24.674 c 0.839,-1.718 2.909,-2.436 4.632,-1.599 1.717,0.837 2.438,2.905 1.601,4.628 -0.836,1.72 -2.91,2.437 -4.63,1.598 -1.72,-0.834 -2.439,-2.901 -1.603,-4.627 m 19.104,24.029 c 0.959,-2.307 3.605,-3.394 5.914,-2.436 2.304,0.957 3.395,3.605 2.436,5.905 -0.961,2.309 -3.608,3.4 -5.911,2.443 -2.304,-0.958 -3.397,-3.604 -2.439,-5.912 m 21.201,23.224 c 1.014,-2.908 4.195,-4.449 7.103,-3.43 2.91,1.018 4.446,4.199 3.431,7.107 -1.019,2.909 -4.198,4.445 -7.108,3.427 -2.911,-1.016 -4.445,-4.197 -3.426,-7.104 m 23.259,22.249 c 1.005,-3.525 4.679,-5.569 8.203,-4.56 3.526,1.005 5.567,4.68 4.563,8.201 -1.005,3.526 -4.68,5.569 -8.205,4.562 -3.524,-1.005 -5.566,-4.675 -4.561,-8.203 m 25.278,21.121 c 0.928,-4.149 5.039,-6.758 9.189,-5.833 4.149,0.926 6.761,5.042 5.834,9.187 -0.926,4.148 -5.036,6.764 -9.19,5.833 -4.146,-0.926 -6.759,-5.038 -5.833,-9.187 M 312.301,367.576 c 0.065,-0.145 0.231,-0.215 0.378,-0.153 0.146,0.063 0.218,0.233 0.153,0.381 -0.061,0.146 -0.231,0.216 -0.378,0.15 -0.143,-0.06 -0.215,-0.229 -0.153,-0.378 m 17.964,22.023 c 0.253,-0.699 1.019,-1.062 1.721,-0.812 0.701,0.25 1.067,1.018 0.815,1.723 -0.251,0.701 -1.022,1.062 -1.722,0.813 -0.702,-0.256 -1.065,-1.028 -0.814,-1.724 m 19.964,21.25 c 0.371,-1.274 1.709,-2.003 2.983,-1.629 1.272,0.375 2.009,1.715 1.632,2.99 -0.378,1.27 -1.71,1.998 -2.99,1.623 -1.274,-0.375 -1.999,-1.711 -1.625,-2.984 m 21.932,20.314 c 0.432,-1.862 2.292,-3.025 4.154,-2.588 1.864,0.433 3.02,2.293 2.593,4.156 -0.432,1.863 -2.296,3.026 -4.162,2.591 -1.861,-0.435 -3.019,-2.295 -2.585,-4.159 m 23.855,19.232 c 0.42,-2.462 2.758,-4.117 5.218,-3.695 2.465,0.422 4.117,2.763 3.694,5.224 -0.424,2.461 -2.758,4.109 -5.218,3.689 -2.463,-0.423 -4.112,-2.76 -3.694,-5.218 m 10.358,-56.725 c 0.025,-0.156 0.176,-0.261 0.332,-0.234 0.156,0.029 0.259,0.175 0.234,0.334 -0.029,0.159 -0.178,0.262 -0.336,0.232 -0.159,-0.027 -0.263,-0.176 -0.23,-0.332 m 23.459,19.027 c 0.742,0.087 1.413,-0.438 1.503,-1.176 0.083,-0.739 -0.44,-1.41 -1.181,-1.5 -0.739,-0.091 -1.41,0.437 -1.495,1.178 -0.092,0.738 0.44,1.408 1.173,1.498"
                   style="fill:url(#linearGradient5518);stroke:none"
                   id="path5520"
                   inkscape:connector-curvature="0" /></g></g></g></g><path
           d="m 143.796,383.703 c 2.639,-3.336 7.479,-3.906 10.815,-1.274 3.332,2.635 3.902,7.477 1.267,10.814 -2.635,3.332 -7.474,3.903 -10.808,1.267 -3.338,-2.632 -3.905,-7.472 -1.274,-10.807 z m 16.17,29.664 c 2.773,-3.963 8.231,-4.926 12.19,-2.157 3.962,2.774 4.927,8.228 2.155,12.192 -2.77,3.958 -8.225,4.929 -12.187,2.155 -3.964,-2.769 -4.93,-8.229 -2.158,-12.19 z m 18.492,29.165 c 2.846,-4.611 8.888,-6.052 13.505,-3.208 4.611,2.843 6.047,8.885 3.205,13.501 -2.845,4.614 -8.887,6.052 -13.502,3.208 -4.609,-2.843 -6.046,-8.887 -3.208,-13.501 z m 20.819,28.491 c 2.849,-5.286 9.44,-7.263 14.726,-4.42 5.287,2.849 7.264,9.441 4.417,14.726 -2.846,5.283 -9.439,7.261 -14.722,4.421 -5.287,-2.849 -7.266,-9.443 -4.421,-14.727 z m 23.125,27.642 c 2.784,-5.968 9.878,-8.561 15.848,-5.777 5.975,2.781 8.564,9.874 5.781,15.848 -2.784,5.973 -9.878,8.557 -15.849,5.778 -5.97,-2.781 -8.56,-9.876 -5.78,-15.849 z m 25.397,26.625 c 2.647,-6.667 10.196,-9.929 16.861,-7.284 6.668,2.642 9.928,10.193 7.283,16.859 -2.641,6.666 -10.192,9.928 -16.859,7.284 -6.666,-2.645 -9.926,-10.191 -7.285,-16.859 z m 27.633,25.429 c 2.437,-7.366 10.382,-11.359 17.746,-8.922 7.364,2.437 11.359,10.379 8.925,17.743 -2.437,7.368 -10.384,11.358 -17.749,8.926 -7.362,-2.439 -11.355,-10.383 -8.922,-17.747 z M 192.444,367.127 c 1.446,-2.036 4.268,-2.51 6.304,-1.067 2.034,1.451 2.511,4.275 1.064,6.309 -1.45,2.034 -4.272,2.513 -6.305,1.06 -2.034,-1.446 -2.511,-4.273 -1.063,-6.302 z m 15.62,27.346 c 1.637,-2.608 5.081,-3.396 7.692,-1.757 2.609,1.637 3.401,5.081 1.759,7.69 -1.637,2.611 -5.081,3.397 -7.691,1.761 -2.612,-1.639 -3.4,-5.084 -1.76,-7.694 z m 17.842,26.854 c 1.763,-3.211 5.802,-4.387 9.012,-2.622 3.217,1.766 4.388,5.798 2.623,9.011 -1.763,3.214 -5.798,4.389 -9.013,2.626 -3.212,-1.767 -4.384,-5.801 -2.622,-9.015 z m 20.058,26.189 c 1.83,-3.837 6.415,-5.464 10.257,-3.642 3.837,1.827 5.469,6.418 3.641,10.257 -1.823,3.839 -6.416,5.469 -10.257,3.642 -3.835,-1.828 -5.465,-6.42 -3.641,-10.257 z m 22.253,25.36 c 1.823,-4.477 6.929,-6.638 11.407,-4.813 4.479,1.817 6.639,6.921 4.817,11.406 -1.822,4.476 -6.931,6.632 -11.406,4.815 -4.482,-1.821 -6.635,-6.929 -4.818,-11.408 z m 24.424,24.355 c 1.744,-5.128 7.315,-7.873 12.449,-6.13 5.127,1.746 7.874,7.321 6.13,12.449 -1.748,5.133 -7.32,7.879 -12.448,6.133 -5.131,-1.745 -7.876,-7.317 -6.131,-12.452 z m 26.541,23.197 c 1.597,-5.787 7.587,-9.182 13.373,-7.582 5.785,1.596 9.177,7.583 7.579,13.372 -1.596,5.785 -7.586,9.18 -13.37,7.578 -5.787,-1.598 -9.183,-7.583 -7.582,-13.368 z M 226.006,320.991 c 0.092,-0.134 0.274,-0.162 0.403,-0.068 0.129,0.094 0.154,0.273 0.063,0.401 -0.093,0.129 -0.273,0.158 -0.402,0.064 -0.129,-0.091 -0.161,-0.27 -0.064,-0.397 z m 12.749,25.465 c 0.399,-0.629 1.235,-0.81 1.859,-0.407 0.627,0.4 0.814,1.226 0.412,1.856 -0.404,0.632 -1.235,0.813 -1.863,0.408 -0.626,-0.396 -0.808,-1.232 -0.408,-1.857 z m 14.868,25.149 c 0.65,-1.159 2.111,-1.566 3.271,-0.92 1.161,0.648 1.573,2.112 0.923,3.275 -0.648,1.157 -2.116,1.57 -3.271,0.922 -1.162,-0.652 -1.573,-2.114 -0.923,-3.277 z m 16.985,24.674 c 0.839,-1.718 2.909,-2.436 4.632,-1.599 1.717,0.837 2.438,2.905 1.601,4.628 -0.836,1.72 -2.91,2.437 -4.63,1.598 -1.72,-0.834 -2.439,-2.901 -1.603,-4.627 z m 19.104,24.029 c 0.959,-2.307 3.605,-3.394 5.914,-2.436 2.304,0.957 3.395,3.605 2.436,5.905 -0.961,2.309 -3.608,3.4 -5.911,2.443 -2.304,-0.958 -3.397,-3.604 -2.439,-5.912 z m 21.201,23.224 c 1.014,-2.908 4.195,-4.449 7.103,-3.43 2.91,1.018 4.446,4.199 3.431,7.107 -1.019,2.909 -4.198,4.445 -7.108,3.427 -2.911,-1.016 -4.445,-4.197 -3.426,-7.104 z m 23.259,22.249 c 1.005,-3.525 4.679,-5.569 8.203,-4.56 3.526,1.005 5.567,4.68 4.563,8.201 -1.005,3.526 -4.68,5.569 -8.205,4.562 -3.524,-1.005 -5.566,-4.675 -4.561,-8.203 z m 25.278,21.121 c 0.928,-4.149 5.039,-6.758 9.189,-5.833 4.149,0.926 6.761,5.042 5.834,9.187 -0.926,4.148 -5.036,6.764 -9.19,5.833 -4.146,-0.926 -6.759,-5.038 -5.833,-9.187 z M 312.301,367.576 c 0.065,-0.145 0.231,-0.215 0.378,-0.153 0.146,0.063 0.218,0.233 0.153,0.381 -0.061,0.146 -0.231,0.216 -0.378,0.15 -0.143,-0.06 -0.215,-0.229 -0.153,-0.378 z m 17.964,22.023 c 0.253,-0.699 1.019,-1.062 1.721,-0.812 0.701,0.25 1.067,1.018 0.815,1.723 -0.251,0.701 -1.022,1.062 -1.722,0.813 -0.702,-0.256 -1.065,-1.028 -0.814,-1.724 z m 19.964,21.25 c 0.371,-1.274 1.709,-2.003 2.983,-1.629 1.272,0.375 2.009,1.715 1.632,2.99 -0.378,1.27 -1.71,1.998 -2.99,1.623 -1.274,-0.375 -1.999,-1.711 -1.625,-2.984 z m 21.932,20.314 c 0.432,-1.862 2.292,-3.025 4.154,-2.588 1.864,0.433 3.02,2.293 2.593,4.156 -0.432,1.863 -2.296,3.026 -4.162,2.591 -1.861,-0.435 -3.019,-2.295 -2.585,-4.159 z m 23.855,19.232 c 0.42,-2.462 2.758,-4.117 5.218,-3.695 2.465,0.422 4.117,2.763 3.694,5.224 -0.424,2.461 -2.758,4.109 -5.218,3.689 -2.463,-0.423 -4.112,-2.76 -3.694,-5.218 z m 10.358,-56.725 c 0.025,-0.156 0.176,-0.261 0.332,-0.234 0.156,0.029 0.259,0.175 0.234,0.334 -0.029,0.159 -0.178,0.262 -0.336,0.232 -0.159,-0.027 -0.263,-0.176 -0.23,-0.332 z m 23.459,19.027 c 0.742,0.087 1.413,-0.438 1.503,-1.176 0.083,-0.739 -0.44,-1.41 -1.181,-1.5 -0.739,-0.091 -1.41,0.437 -1.495,1.178 -0.092,0.738 0.44,1.408 1.173,1.498 z"
           style="fill:none;stroke:#ffffff;stroke-width:0.133;stroke-linecap:butt;stroke-linejoin:miter;stroke-miterlimit:4;stroke-dasharray:none;stroke-opacity:1"
           id="path5522"
           inkscape:connector-curvature="0" /><g
           id="g5524"><g
             id="g5526"><g
               id="g5532"><g
                 id="g5534"><path
                   d="m 405.18,432.163 c -4.21,-0.614 -7.122,-4.523 -6.511,-8.728 0.617,-4.206 4.524,-7.117 8.727,-6.503 4.206,0.615 7.121,4.519 6.505,8.726 -0.612,4.207 -4.517,7.118 -8.721,6.505 m 17.604,-28.835 c -4.817,-0.419 -8.381,-4.663 -7.964,-9.477 0.42,-4.819 4.664,-8.383 9.482,-7.963 4.814,0.421 8.383,4.658 7.961,9.477 -0.417,4.816 -4.663,8.386 -9.479,7.963 m 16.011,-30.596 c -5.417,-0.159 -9.686,-4.673 -9.532,-10.092 0.159,-5.415 4.674,-9.681 10.091,-9.526 5.417,0.155 9.683,4.671 9.531,10.087 -0.16,5.416 -4.673,9.683 -10.09,9.531 m 14.266,-32.279 c -6.004,0.179 -11.01,-4.541 -11.191,-10.541 -0.178,-6.003 4.542,-11.009 10.542,-11.19 6.001,-0.177 11.011,4.549 11.191,10.543 0.175,6.001 -4.543,11.012 -10.542,11.188 m 12.374,-33.843 c -6.561,0.572 -12.35,-4.277 -12.928,-10.839 -0.577,-6.565 4.271,-12.353 10.837,-12.929 6.564,-0.578 12.349,4.273 12.927,10.834 0.579,6.563 -4.27,12.354 -10.836,12.934 m 10.361,-35.308 c -7.098,1.042 -13.697,-3.867 -14.739,-10.961 -1.047,-7.095 3.863,-13.694 10.957,-14.737 7.094,-1.044 13.697,3.864 14.739,10.959 1.043,7.097 -3.863,13.693 -10.957,14.739 m 8.207,-36.648 c -7.6,1.574 -15.028,-3.311 -16.603,-10.905 -1.57,-7.597 3.308,-15.027 10.904,-16.6 7.599,-1.574 15.029,3.313 16.603,10.906 1.572,7.595 -3.31,15.026 -10.904,16.599 M 366.498,398.321 c -2.484,-0.234 -4.308,-2.439 -4.074,-4.925 0.241,-2.49 2.446,-4.312 4.931,-4.076 2.489,0.239 4.313,2.443 4.072,4.93 -0.237,2.485 -2.444,4.311 -4.929,4.071 m 15.873,-27.201 c -3.075,-0.111 -5.478,-2.702 -5.366,-5.78 0.112,-3.08 2.7,-5.486 5.781,-5.369 3.078,0.112 5.481,2.7 5.37,5.778 -0.114,3.081 -2.704,5.485 -5.785,5.371 m 14.335,-28.879 c -3.662,0.08 -6.7,-2.831 -6.774,-6.492 -0.078,-3.667 2.827,-6.7 6.491,-6.778 3.666,-0.081 6.7,2.828 6.778,6.492 0.078,3.668 -2.83,6.7 -6.495,6.778 m 12.654,-30.465 c -4.24,0.335 -7.94,-2.821 -8.283,-7.06 -0.335,-4.237 2.824,-7.946 7.063,-8.281 4.235,-0.339 7.944,2.82 8.279,7.061 0.339,4.234 -2.824,7.942 -7.059,8.28 m 10.834,-31.954 c -4.79,0.661 -9.212,-2.677 -9.873,-7.468 -0.662,-4.789 2.678,-9.21 7.47,-9.876 4.789,-0.659 9.209,2.687 9.874,7.471 0.663,4.792 -2.683,9.212 -7.471,9.873 m 8.881,-33.323 c -5.314,1.051 -10.476,-2.402 -11.532,-7.718 -1.052,-5.314 2.402,-10.478 7.717,-11.534 5.317,-1.054 10.481,2.4 11.533,7.713 1.056,5.317 -2.397,10.48 -7.718,11.539 m 6.817,-34.584 c -5.809,1.508 -11.744,-1.98 -13.251,-7.791 -1.512,-5.808 1.978,-11.743 7.791,-13.253 5.807,-1.51 11.743,1.981 13.248,7.79 1.51,5.812 -1.976,11.747 -7.788,13.254 m -126.13,180.408 c -0.158,-0.011 -0.276,-0.155 -0.259,-0.314 0.017,-0.16 0.16,-0.271 0.316,-0.254 0.16,0.013 0.274,0.156 0.257,0.316 -0.013,0.155 -0.154,0.27 -0.314,0.252 m 15.682,-23.773 c -0.746,-0.029 -1.319,-0.663 -1.282,-1.407 0.033,-0.743 0.656,-1.316 1.402,-1.282 0.747,0.035 1.32,0.66 1.281,1.408 -0.03,0.741 -0.659,1.314 -1.401,1.281 m 14.345,-25.452 c -1.329,0.021 -2.414,-1.042 -2.434,-2.371 -0.017,-1.328 1.044,-2.419 2.375,-2.437 1.326,-0.017 2.418,1.046 2.433,2.371 0.02,1.332 -1.042,2.424 -2.374,2.437 m 12.874,-27.045 c -1.907,0.134 -3.563,-1.303 -3.701,-3.212 -0.134,-1.903 1.299,-3.564 3.208,-3.7 1.909,-0.137 3.566,1.301 3.698,3.21 0.139,1.907 -1.295,3.565 -3.205,3.702 m 11.258,-28.558 c -2.478,0.324 -4.743,-1.426 -5.067,-3.904 -0.323,-2.472 1.423,-4.742 3.897,-5.062 2.478,-0.322 4.747,1.423 5.07,3.899 0.323,2.474 -1.424,4.743 -3.9,5.067 m 9.514,-29.972 c -3.028,0.577 -5.952,-1.411 -6.523,-4.438 -0.573,-3.03 1.412,-5.949 4.44,-6.524 3.029,-0.572 5.948,1.416 6.524,4.441 0.573,3.029 -1.413,5.948 -4.441,6.521 m 7.636,-31.268 c -3.553,0.892 -7.159,-1.269 -8.05,-4.825 -0.891,-3.556 1.272,-7.16 4.821,-8.052 3.558,-0.893 7.164,1.268 8.054,4.823 0.892,3.556 -1.264,7.16 -4.825,8.054 m 5.654,-32.453 c -4.056,1.273 -8.373,-0.985 -9.644,-5.039 -1.276,-4.059 0.982,-8.376 5.039,-9.649 4.053,-1.27 8.371,0.981 9.645,5.041 1.274,4.055 -0.987,8.372 -5.04,9.647 m -79.764,100.494 c -0.16,0.017 -0.302,-0.091 -0.321,-0.249 -0.02,-0.16 0.091,-0.307 0.253,-0.324 0.158,-0.018 0.302,0.094 0.319,0.252 0.017,0.157 -0.093,0.303 -0.251,0.321 m 10.093,-26.567 c -0.737,0.132 -1.434,-0.353 -1.568,-1.085 -0.132,-0.73 0.349,-1.432 1.085,-1.567 0.733,-0.133 1.432,0.353 1.566,1.084 0.128,0.736 -0.358,1.437 -1.083,1.568 m 8.416,-27.914 c -1.289,0.314 -2.588,-0.48 -2.901,-1.77 -0.31,-1.288 0.481,-2.593 1.773,-2.905 1.291,-0.312 2.588,0.478 2.902,1.774 0.313,1.292 -0.48,2.587 -1.774,2.901 m 6.629,-29.151 c -1.831,0.558 -3.766,-0.472 -4.318,-2.306 -0.558,-1.827 0.474,-3.762 2.301,-4.319 1.829,-0.559 3.768,0.473 4.324,2.306 0.556,1.831 -0.475,3.762 -2.307,4.319 m 4.727,-30.272 c -2.343,0.863 -4.942,-0.333 -5.81,-2.675 -0.866,-2.345 0.337,-4.946 2.68,-5.811 2.341,-0.863 4.937,0.335 5.803,2.674 0.865,2.346 -0.335,4.944 -2.673,5.812 m -54.303,19.389 c -0.149,0.056 -0.314,-0.019 -0.371,-0.171 -0.052,-0.147 0.023,-0.313 0.173,-0.369 0.153,-0.055 0.317,0.027 0.371,0.176 0.052,0.149 -0.023,0.312 -0.173,0.364 m 4.746,-29.829 c -0.293,-0.687 -1.084,-1.005 -1.769,-0.714 -0.682,0.297 -1.001,1.085 -0.708,1.773 0.291,0.683 1.083,1.003 1.767,0.706 0.684,-0.289 1.002,-1.084 0.71,-1.765"
                   style="fill:url(#linearGradient5542);stroke:none"
                   id="path5544"
                   inkscape:connector-curvature="0" /></g></g></g></g><path
           d="m 405.18,432.163 c -4.21,-0.614 -7.122,-4.523 -6.511,-8.728 0.617,-4.206 4.524,-7.117 8.727,-6.503 4.206,0.615 7.121,4.519 6.505,8.726 -0.612,4.207 -4.517,7.118 -8.721,6.505 z m 17.604,-28.835 c -4.817,-0.419 -8.381,-4.663 -7.964,-9.477 0.42,-4.819 4.664,-8.383 9.482,-7.963 4.814,0.421 8.383,4.658 7.961,9.477 -0.417,4.816 -4.663,8.386 -9.479,7.963 z m 16.011,-30.596 c -5.417,-0.159 -9.686,-4.673 -9.532,-10.092 0.159,-5.415 4.674,-9.681 10.091,-9.526 5.417,0.155 9.683,4.671 9.531,10.087 -0.16,5.416 -4.673,9.683 -10.09,9.531 z m 14.266,-32.279 c -6.004,0.179 -11.01,-4.541 -11.191,-10.541 -0.178,-6.003 4.542,-11.009 10.542,-11.19 6.001,-0.177 11.011,4.549 11.191,10.543 0.175,6.001 -4.543,11.012 -10.542,11.188 z m 12.374,-33.843 c -6.561,0.572 -12.35,-4.277 -12.928,-10.839 -0.577,-6.565 4.271,-12.353 10.837,-12.929 6.564,-0.578 12.349,4.273 12.927,10.834 0.579,6.563 -4.27,12.354 -10.836,12.934 z m 10.361,-35.308 c -7.098,1.042 -13.697,-3.867 -14.739,-10.961 -1.047,-7.095 3.863,-13.694 10.957,-14.737 7.094,-1.044 13.697,3.864 14.739,10.959 1.043,7.097 -3.863,13.693 -10.957,14.739 z m 8.207,-36.648 c -7.6,1.574 -15.028,-3.311 -16.603,-10.905 -1.57,-7.597 3.308,-15.027 10.904,-16.6 7.599,-1.574 15.029,3.313 16.603,10.906 1.572,7.595 -3.31,15.026 -10.904,16.599 z M 366.498,398.321 c -2.484,-0.234 -4.308,-2.439 -4.074,-4.925 0.241,-2.49 2.446,-4.312 4.931,-4.076 2.489,0.239 4.313,2.443 4.072,4.93 -0.237,2.485 -2.444,4.311 -4.929,4.071 z m 15.873,-27.201 c -3.075,-0.111 -5.478,-2.702 -5.366,-5.78 0.112,-3.08 2.7,-5.486 5.781,-5.369 3.078,0.112 5.481,2.7 5.37,5.778 -0.114,3.081 -2.704,5.485 -5.785,5.371 z m 14.335,-28.879 c -3.662,0.08 -6.7,-2.831 -6.774,-6.492 -0.078,-3.667 2.827,-6.7 6.491,-6.778 3.666,-0.081 6.7,2.828 6.778,6.492 0.078,3.668 -2.83,6.7 -6.495,6.778 z m 12.654,-30.465 c -4.24,0.335 -7.94,-2.821 -8.283,-7.06 -0.335,-4.237 2.824,-7.946 7.063,-8.281 4.235,-0.339 7.944,2.82 8.279,7.061 0.339,4.234 -2.824,7.942 -7.059,8.28 z m 10.834,-31.954 c -4.79,0.661 -9.212,-2.677 -9.873,-7.468 -0.662,-4.789 2.678,-9.21 7.47,-9.876 4.789,-0.659 9.209,2.687 9.874,7.471 0.663,4.792 -2.683,9.212 -7.471,9.873 z m 8.881,-33.323 c -5.314,1.051 -10.476,-2.402 -11.532,-7.718 -1.052,-5.314 2.402,-10.478 7.717,-11.534 5.317,-1.054 10.481,2.4 11.533,7.713 1.056,5.317 -2.397,10.48 -7.718,11.539 z m 6.817,-34.584 c -5.809,1.508 -11.744,-1.98 -13.251,-7.791 -1.512,-5.808 1.978,-11.743 7.791,-13.253 5.807,-1.51 11.743,1.981 13.248,7.79 1.51,5.812 -1.976,11.747 -7.788,13.254 z m -126.13,180.408 c -0.158,-0.011 -0.276,-0.155 -0.259,-0.314 0.017,-0.16 0.16,-0.271 0.316,-0.254 0.16,0.013 0.274,0.156 0.257,0.316 -0.013,0.155 -0.154,0.27 -0.314,0.252 z m 15.682,-23.773 c -0.746,-0.029 -1.319,-0.663 -1.282,-1.407 0.033,-0.743 0.656,-1.316 1.402,-1.282 0.747,0.035 1.32,0.66 1.281,1.408 -0.03,0.741 -0.659,1.314 -1.401,1.281 z m 14.345,-25.452 c -1.329,0.021 -2.414,-1.042 -2.434,-2.371 -0.017,-1.328 1.044,-2.419 2.375,-2.437 1.326,-0.017 2.418,1.046 2.433,2.371 0.02,1.332 -1.042,2.424 -2.374,2.437 z m 12.874,-27.045 c -1.907,0.134 -3.563,-1.303 -3.701,-3.212 -0.134,-1.903 1.299,-3.564 3.208,-3.7 1.909,-0.137 3.566,1.301 3.698,3.21 0.139,1.907 -1.295,3.565 -3.205,3.702 z m 11.258,-28.558 c -2.478,0.324 -4.743,-1.426 -5.067,-3.904 -0.323,-2.472 1.423,-4.742 3.897,-5.062 2.478,-0.322 4.747,1.423 5.07,3.899 0.323,2.474 -1.424,4.743 -3.9,5.067 z m 9.514,-29.972 c -3.028,0.577 -5.952,-1.411 -6.523,-4.438 -0.573,-3.03 1.412,-5.949 4.44,-6.524 3.029,-0.572 5.948,1.416 6.524,4.441 0.573,3.029 -1.413,5.948 -4.441,6.521 z m 7.636,-31.268 c -3.553,0.892 -7.159,-1.269 -8.05,-4.825 -0.891,-3.556 1.272,-7.16 4.821,-8.052 3.558,-0.893 7.164,1.268 8.054,4.823 0.892,3.556 -1.264,7.16 -4.825,8.054 z m 5.654,-32.453 c -4.056,1.273 -8.373,-0.985 -9.644,-5.039 -1.276,-4.059 0.982,-8.376 5.039,-9.649 4.053,-1.27 8.371,0.981 9.645,5.041 1.274,4.055 -0.987,8.372 -5.04,9.647 z m -79.764,100.494 c -0.16,0.017 -0.302,-0.091 -0.321,-0.249 -0.02,-0.16 0.091,-0.307 0.253,-0.324 0.158,-0.018 0.302,0.094 0.319,0.252 0.017,0.157 -0.093,0.303 -0.251,0.321 z m 10.093,-26.567 c -0.737,0.132 -1.434,-0.353 -1.568,-1.085 -0.132,-0.73 0.349,-1.432 1.085,-1.567 0.733,-0.133 1.432,0.353 1.566,1.084 0.128,0.736 -0.358,1.437 -1.083,1.568 z m 8.416,-27.914 c -1.289,0.314 -2.588,-0.48 -2.901,-1.77 -0.31,-1.288 0.481,-2.593 1.773,-2.905 1.291,-0.312 2.588,0.478 2.902,1.774 0.313,1.292 -0.48,2.587 -1.774,2.901 z m 6.629,-29.151 c -1.831,0.558 -3.766,-0.472 -4.318,-2.306 -0.558,-1.827 0.474,-3.762 2.301,-4.319 1.829,-0.559 3.768,0.473 4.324,2.306 0.556,1.831 -0.475,3.762 -2.307,4.319 z m 4.727,-30.272 c -2.343,0.863 -4.942,-0.333 -5.81,-2.675 -0.866,-2.345 0.337,-4.946 2.68,-5.811 2.341,-0.863 4.937,0.335 5.803,2.674 0.865,2.346 -0.335,4.944 -2.673,5.812 z m -54.303,19.389 c -0.149,0.056 -0.314,-0.019 -0.371,-0.171 -0.052,-0.147 0.023,-0.313 0.173,-0.369 0.153,-0.055 0.317,0.027 0.371,0.176 0.052,0.149 -0.023,0.312 -0.173,0.364 z m 4.746,-29.829 c -0.293,-0.687 -1.084,-1.005 -1.769,-0.714 -0.682,0.297 -1.001,1.085 -0.708,1.773 0.291,0.683 1.083,1.003 1.767,0.706 0.684,-0.289 1.002,-1.084 0.71,-1.765 z"
           style="fill:none;stroke:#ffffff;stroke-width:0.133;stroke-linecap:butt;stroke-linejoin:miter;stroke-miterlimit:4;stroke-dasharray:none;stroke-opacity:1"
           id="path5546"
           inkscape:connector-curvature="0" /></g></g></g></svg>